<svg width="393" height="542" viewBox="0 0 393 542" fill="none" xmlns="http://www.w3.org/2000/svg">
<rect x="70" y="49" width="254" height="353" rx="26" fill="url(#paint0_linear)"/>
<g filter="url(#filter0_d)">
<path fill-rule="evenodd" clip-rule="evenodd" d="M196.417 70.0347C191.612 64.3939 188.359 57.4811 188.903 49.735C190.468 27.4166 221.537 32.3264 227.58 43.5908C233.623 54.8552 232.905 83.4284 225.095 85.4417C221.98 86.2446 215.344 84.2778 208.591 80.2073L212.83 110.196H187.8L196.417 70.0347Z" fill="#57331F"/>
<path d="M196.906 70.1396L196.958 69.8983L196.798 69.7104C192.048 64.1347 188.87 57.3462 189.401 49.77C189.784 44.3187 191.959 40.5774 195.063 38.1705C198.181 35.7527 202.286 34.6451 206.571 34.5693C210.855 34.4934 215.281 35.4499 219.003 37.1165C222.735 38.7873 225.7 41.1449 227.139 43.8272C230.098 49.3423 231.432 59.1946 231.033 67.9627C230.834 72.3373 230.205 76.3985 229.155 79.4757C228.629 81.0145 228.006 82.2862 227.293 83.2253C226.582 84.1638 225.803 84.7427 224.97 84.9575C223.554 85.3226 221.229 85.0688 218.356 84.1746C215.507 83.288 212.196 81.7966 208.849 79.779L207.949 79.2364L208.096 80.2772L212.254 109.696H188.419L196.906 70.1396Z" stroke="white" stroke-opacity="0.25"/>
<path fill-rule="evenodd" clip-rule="evenodd" d="M209.842 52.1999C210.8 65.546 213.335 72.2191 217.446 72.2191C223.612 72.2191 228.844 68.3044 231.549 68.3044C233.522 68.3044 233.081 70.7726 231.774 72.6026C230.695 74.1124 225.443 75.5677 225.443 77.9084C225.443 80.2492 229.593 78.4383 229.593 79.8265C229.593 82.1228 230.322 86.4403 226.337 86.4403C222.303 86.4403 210.739 84.9704 208.757 78.9841C207.478 75.1207 206.651 67.115 206.276 54.967C206.031 54.9379 205.782 54.923 205.53 54.923C202.074 54.923 199.272 57.7245 199.272 61.1803C199.272 62.9347 199.994 64.5205 201.157 65.6567C199.709 67.7003 198.087 69.8352 196.227 72.0381C189.242 67.8472 184.059 55.5789 190.888 43.7935C192.776 38.02 197.049 34.9361 202.096 33.5042C206.184 31.7941 210.428 31.6012 214.011 32.6264C221.033 33.2288 227.304 35.3702 229.082 36.642C229.082 43.2907 227.793 45.2633 216.79 45.0894C214.086 46.5174 212.007 48.9762 209.842 52.1999Z" fill="#191847"/>
<path d="M209.427 51.9211L209.331 52.064L209.344 52.2357C209.824 58.9227 210.701 63.986 211.994 67.3918C213.276 70.7658 215.054 72.7191 217.446 72.7191C220.629 72.7191 223.553 71.709 225.983 70.7252C226.489 70.5203 226.967 70.3195 227.421 70.1287C228.075 69.8538 228.679 69.5996 229.249 69.3836C230.214 69.0175 230.973 68.8044 231.549 68.8044C231.934 68.8044 232.118 68.9201 232.216 69.0379C232.325 69.1701 232.403 69.3979 232.392 69.7513C232.369 70.4651 231.987 71.4451 231.367 72.312C231.166 72.5938 230.723 72.9213 230.073 73.3104C229.759 73.4983 229.415 73.69 229.054 73.8906L228.974 73.9351C228.639 74.1207 228.292 74.3135 227.952 74.5121C227.222 74.9381 226.488 75.4111 225.934 75.9436C225.383 76.4728 224.943 77.1248 224.943 77.9084C224.943 78.2764 225.025 78.6024 225.2 78.8756C225.375 79.1489 225.619 79.3321 225.88 79.4537C226.378 79.6852 226.997 79.718 227.511 79.7246C227.671 79.7267 227.821 79.7264 227.961 79.7262C228.322 79.7255 228.62 79.725 228.866 79.7641C228.997 79.785 229.064 79.8115 229.093 79.8272C229.093 80.1247 229.105 80.4526 229.117 80.788L229.117 80.792C229.129 81.1296 229.142 81.4785 229.145 81.8329C229.151 82.5479 229.117 83.2564 228.972 83.8819C228.828 84.5063 228.582 85.0093 228.193 85.3573C227.812 85.6985 227.239 85.9403 226.337 85.9403C224.361 85.9403 220.512 85.578 216.924 84.479C215.131 83.9298 213.425 83.2034 212.056 82.2625C210.687 81.3218 209.682 80.1872 209.232 78.827C207.979 75.0441 207.151 67.1121 206.776 54.9516L206.762 54.5213L206.335 54.4705C206.071 54.4391 205.802 54.423 205.53 54.423C201.798 54.423 198.772 57.4483 198.772 61.1803C198.772 62.92 199.43 64.5068 200.51 65.7041C199.204 67.5321 197.757 69.4308 196.124 71.3842C189.553 67.13 184.749 55.3853 191.321 44.0442L191.347 43.9987L191.363 43.9488C193.187 38.3697 197.305 35.3832 202.232 33.9852L202.261 33.977L202.289 33.9655C206.277 32.2971 210.405 32.1146 213.873 33.1072L213.92 33.1205L213.968 33.1246C217.444 33.4227 220.735 34.1021 223.375 34.8636C225.828 35.5715 227.67 36.3365 228.581 36.9085C228.562 40.0921 228.198 41.9222 226.758 43.0275C226.002 43.6074 224.902 44.0261 223.274 44.284C221.648 44.5417 219.538 44.6328 216.798 44.5895L216.669 44.5875L216.556 44.6473C213.738 46.1358 211.602 48.6832 209.427 51.9211Z" stroke="white" stroke-opacity="0.25"/>
<path fill-rule="evenodd" clip-rule="evenodd" d="M185.793 196.499L236.98 326.055L271.311 435.583H284.868L232.383 196.499L185.793 196.499Z" fill="#3D2216"/>
<path d="M237.457 325.905L237.451 325.888L237.445 325.871L186.528 196.999H231.98L284.246 435.083H271.678L237.457 325.905Z" stroke="white" stroke-opacity="0.25"/>
<path fill-rule="evenodd" clip-rule="evenodd" d="M175.485 196.499C174.94 242.026 166.991 303.32 165.721 306.158C164.874 308.05 135.646 332.109 78.0363 378.336L87.3735 388.328C155.348 348.694 190.908 326.234 194.053 320.948C198.772 313.019 214.133 240.053 226.465 196.499H175.485Z" fill="#57331F"/>
<path d="M166.177 306.362C166.283 306.126 166.398 305.664 166.524 305.061C166.654 304.436 166.806 303.602 166.976 302.581C167.317 300.537 167.735 297.727 168.201 294.296C169.134 287.433 170.265 278.077 171.372 267.388C173.571 246.167 175.682 219.676 175.979 196.999H225.805C220.349 216.346 214.317 241.326 208.886 263.822C208.22 266.579 207.563 269.298 206.918 271.965C203.932 284.305 201.185 295.524 198.891 304.154C197.743 308.47 196.71 312.132 195.818 314.96C194.92 317.807 194.179 319.759 193.624 320.693C193.277 321.275 192.437 322.157 191.03 323.355C189.639 324.54 187.739 325.996 185.325 327.727C180.499 331.186 173.644 335.722 164.757 341.335C147.045 352.522 121.282 367.975 87.4664 387.695L78.7697 378.388C107.366 355.441 128.937 337.98 143.483 326.007C150.791 319.992 156.327 315.36 160.091 312.112C161.973 310.488 163.415 309.208 164.415 308.272C164.914 307.804 165.309 307.418 165.594 307.115C165.736 306.964 165.856 306.829 165.949 306.712C166.036 306.603 166.124 306.482 166.177 306.362Z" stroke="white" stroke-opacity="0.25"/>
<path fill-rule="evenodd" clip-rule="evenodd" d="M76.7874 375C73.6515 376.109 71.4913 377.16 70.3068 378.154C68.8661 379.362 66.9652 381.366 64.6041 384.166C66.0065 385.837 78.6096 400.857 102.414 429.225C107.267 427.148 108.79 424.718 106.982 421.937C105.174 419.155 103.694 416.825 102.542 414.948L94.3053 386.17C94.1468 385.616 93.5695 385.296 93.0157 385.455C93.0063 385.457 92.9968 385.46 92.9874 385.463L88.5922 386.857C85.5429 385.436 83.4056 383.995 82.1804 382.535C81.1849 381.349 80.2893 379.308 79.4936 376.414L79.4936 376.414C79.1882 375.303 78.0402 374.65 76.9294 374.956C76.8816 374.969 76.8342 374.984 76.7874 375Z" fill="#E4E4E4"/>
<path d="M79.0097 376.54C78.775 375.7 77.9044 375.206 77.062 375.438C77.0256 375.448 76.9896 375.459 76.954 375.472C73.8247 376.578 71.7388 377.605 70.6282 378.537C69.2759 379.671 67.4876 381.542 65.258 384.167L65.2582 384.167L65.2727 384.185L65.2874 384.202L65.3024 384.22L65.3177 384.238L65.3332 384.257L65.349 384.276L65.365 384.295L65.3813 384.314L65.3979 384.334L65.4147 384.354L65.4317 384.374L65.4491 384.395L65.4666 384.416L65.4845 384.437L65.5026 384.458L65.5209 384.48L65.5395 384.503L65.5584 384.525L65.5775 384.548L65.5968 384.571L65.6165 384.594L65.6363 384.618L65.6565 384.642L65.6769 384.666L65.6975 384.691L65.7184 384.716L65.7396 384.741L65.761 384.767L65.7827 384.792L65.8046 384.818L65.8268 384.845L65.8493 384.872L65.872 384.899L65.8949 384.926L65.9181 384.954L65.9416 384.982L65.9653 385.01L65.9893 385.039L66.0136 385.067L66.0381 385.097L66.0628 385.126L66.0878 385.156L66.1131 385.186L66.1386 385.217L66.1644 385.247L66.1904 385.278L66.2167 385.31L66.2433 385.341L66.2701 385.373L66.2971 385.405L66.3244 385.438L66.352 385.471L66.3798 385.504L66.4079 385.537L66.4363 385.571L66.4649 385.605L66.4937 385.64L66.5228 385.674L66.5522 385.709L66.5818 385.745L66.6117 385.78L66.6418 385.816L66.6722 385.852L66.7029 385.889L66.7338 385.926L66.7649 385.963L66.7964 386L66.828 386.038L66.86 386.076L66.8921 386.115L66.9246 386.153L66.9573 386.192L66.9902 386.231L67.0235 386.271L67.0569 386.311L67.0907 386.351L67.1246 386.392L67.1589 386.432L67.1934 386.474L67.2281 386.515L67.2631 386.557L67.2984 386.599L67.3339 386.641L67.3697 386.684L67.4057 386.727L67.442 386.77L67.4786 386.813L67.5154 386.857L67.5524 386.901L67.5897 386.946L67.6273 386.991L67.6651 387.036L67.7032 387.081L67.7416 387.127L67.7801 387.173L67.819 387.219L67.8581 387.266L67.8975 387.313L67.9371 387.36L67.977 387.407L68.0171 387.455L68.0575 387.503L68.0981 387.552L68.1391 387.601L68.1802 387.65L68.2216 387.699L68.2633 387.749L68.3052 387.799L68.3474 387.849L68.3899 387.899L68.4326 387.95L68.4755 388.002L68.5187 388.053L68.5622 388.105L68.6059 388.157L68.6499 388.209L68.6941 388.262L68.7386 388.315L68.7834 388.368L68.8284 388.422L68.8736 388.476L68.9192 388.53L68.9649 388.585L69.011 388.64L69.0572 388.695L69.1038 388.75L69.1506 388.806L69.1976 388.862L69.245 388.919L69.2925 388.975L69.3404 389.032L69.3884 389.09L69.4368 389.147L69.4854 389.205L69.5342 389.263L69.5833 389.322L69.6327 389.381L69.6823 389.44L69.7322 389.499L69.7823 389.559L69.8327 389.619L69.8834 389.679L69.9343 389.74L69.9854 389.801L70.0368 389.862L70.0885 389.924L70.1404 389.986L70.1926 390.048L70.2451 390.11L70.2978 390.173L70.3507 390.236L70.4039 390.3L70.4574 390.363L70.5111 390.427L70.5651 390.492L70.6193 390.556L70.6738 390.621L70.7286 390.687L70.7836 390.752L70.8388 390.818L70.8943 390.884L70.9501 390.951L71.0061 391.017L71.0624 391.084L71.119 391.152L71.1758 391.22L71.2328 391.288L71.2901 391.356L71.3477 391.424L71.4055 391.493L71.4636 391.563L71.5219 391.632L71.5805 391.702L71.6394 391.772L71.6985 391.843L71.7578 391.913L71.8175 391.984L71.8773 392.056L71.9375 392.127L71.9979 392.199L72.0585 392.272L72.1194 392.344L72.1806 392.417L72.242 392.49L72.3036 392.564L72.3656 392.638L72.4277 392.712L72.4902 392.786L72.5529 392.861L72.6158 392.936L72.679 393.011L72.7425 393.087L72.8062 393.163L72.8702 393.239L72.9344 393.315L72.9989 393.392L73.0637 393.469L73.1287 393.547L73.1939 393.625L73.2594 393.703L73.3252 393.781L73.3912 393.86L73.4575 393.939L73.5241 394.018L73.5909 394.098L73.6579 394.178L73.7252 394.258L73.7928 394.338L73.8606 394.419L73.9287 394.5L73.997 394.582L74.0656 394.664L74.1345 394.746L74.2036 394.828L74.2729 394.911L74.3425 394.994L74.4124 395.077L74.4826 395.16L74.5529 395.244L74.6236 395.329L74.6945 395.413L74.7656 395.498L74.837 395.583L74.9087 395.668L74.9806 395.754L75.0528 395.84L75.1253 395.926L75.1979 396.013L75.2709 396.1L75.3441 396.187L75.4176 396.275L75.4913 396.363L75.5653 396.451L75.6395 396.539L75.714 396.628L75.7887 396.717L75.8637 396.806L75.939 396.896L76.0145 396.986L76.0903 397.076L76.1663 397.167L76.2426 397.258L76.3191 397.349L76.3959 397.441L76.473 397.533L76.5503 397.625L76.6278 397.717L76.7056 397.81L76.7837 397.903L76.8621 397.996L76.9406 398.09L77.0195 398.184L77.0986 398.278L77.178 398.373L77.2576 398.468L77.3374 398.563L77.4176 398.658L77.4979 398.754L77.5786 398.85L77.6595 398.947L77.7406 399.043L77.822 399.14L77.9037 399.238L77.9856 399.335L78.0678 399.433L78.1503 399.531L78.2329 399.63L78.3159 399.729L78.3991 399.828L78.4826 399.927L78.5663 400.027L78.6502 400.127L78.7345 400.228L78.819 400.328L78.9037 400.429L78.9887 400.531L79.074 400.632L79.1595 400.734L79.2452 400.836L79.3313 400.939L79.4175 401.042L79.5041 401.145L79.5909 401.248L79.6779 401.352L79.7652 401.456L79.8528 401.56L79.9406 401.665L80.0287 401.77L80.117 401.875L80.2056 401.981L80.2944 402.087L80.3835 402.193L80.4729 402.299L80.5625 402.406L80.6524 402.513L80.7425 402.621L80.8329 402.728L80.9235 402.837L81.0144 402.945L81.1056 403.053L81.197 403.162L81.2887 403.272L81.3806 403.381L81.4727 403.491L81.5652 403.601L81.6579 403.712L81.7508 403.822L81.844 403.933L81.9375 404.045L82.0312 404.157L82.1252 404.269L82.2194 404.381L82.3139 404.493L82.4086 404.606L82.5036 404.72L82.5989 404.833L82.6944 404.947L82.7901 405.061L82.8862 405.175L82.9824 405.29L83.079 405.405L83.1758 405.521L83.2728 405.636L83.3701 405.752L83.4677 405.869L83.5655 405.985L83.6636 406.102L83.7619 406.219L83.8605 406.337L83.9593 406.454L84.0584 406.573L84.1578 406.691L84.2574 406.81L84.3573 406.929L84.4574 407.048L84.5578 407.168L84.6584 407.288L84.7593 407.408L84.8605 407.528L84.9619 407.649L85.0635 407.77L85.1654 407.892L85.2676 408.014L85.37 408.136L85.4727 408.258L85.5757 408.381L85.6789 408.504L85.7823 408.627L85.8861 408.751L85.99 408.875L86.0942 408.999L86.1987 409.123L86.3035 409.248L86.4085 409.373L86.5137 409.499L86.6192 409.624L86.725 409.75L86.831 409.877L86.9373 410.003L87.0438 410.13L87.1506 410.258L87.2577 410.385L87.365 410.513L87.4725 410.641L87.5803 410.77L87.6884 410.899L87.7967 411.028L87.9053 411.157L88.0142 411.287L88.1233 411.417L88.2326 411.547L88.3422 411.678L88.4521 411.809L88.5622 411.94L88.6726 412.071L88.7832 412.203L88.8941 412.335L89.0053 412.468L89.1167 412.601L89.2283 412.734L89.3402 412.867L89.4524 413.001L89.5648 413.135L89.6775 413.269L89.7905 413.404L89.9037 413.539L90.0171 413.674L90.1308 413.809L90.2448 413.945L90.359 414.081L90.4735 414.218L90.5883 414.354L90.7032 414.492L90.8185 414.629L90.934 414.767L91.0498 414.904L91.1658 415.043L91.2821 415.181L91.3986 415.32L91.5154 415.459L91.6324 415.599L91.7497 415.739L91.8673 415.879L91.9851 416.019L92.1032 416.16L92.2215 416.301L92.3401 416.442L92.4589 416.584L92.578 416.726L92.6974 416.868L92.817 417.011L92.9368 417.153L93.057 417.297L93.1773 417.44L93.298 417.584L93.4189 417.728L93.54 417.872L93.6614 418.017L93.7831 418.162L93.905 418.307L94.0272 418.453L94.1496 418.599L94.2723 418.745L94.3952 418.891L94.5184 419.038L94.6419 419.185L94.7656 419.333L94.8895 419.481L95.0138 419.629L95.1382 419.777L95.263 419.926L95.388 420.075L95.5132 420.224L95.6387 420.373L95.7645 420.523L95.8905 420.673L96.0168 420.824L96.1433 420.975L96.2701 421.126L96.3971 421.277L96.5244 421.429L96.652 421.581L96.7798 421.733L96.9079 421.886L97.0362 422.039L97.1648 422.192L97.2936 422.346L97.4227 422.499L97.5521 422.654L97.6817 422.808L97.8115 422.963L97.9416 423.118L98.072 423.273L98.2026 423.429L98.3335 423.585L98.4647 423.741L98.5961 423.898L98.7277 424.055L98.8597 424.212L98.9918 424.369L99.1242 424.527L99.2569 424.685L99.3899 424.844L99.5231 425.003L99.6565 425.162L99.7902 425.321L99.9242 425.481L100.058 425.641L100.193 425.801L100.328 425.961L100.463 426.122L100.598 426.283L100.733 426.445L100.869 426.607L101.005 426.769L101.141 426.931L101.278 427.094L101.415 427.257L101.552 427.42L101.689 427.584L101.827 427.748L101.964 427.912L102.102 428.077L102.241 428.241L102.379 428.407L102.518 428.572L102.556 428.617C104.758 427.635 106.127 426.61 106.772 425.58C107.104 425.051 107.244 424.522 107.214 423.984C107.184 423.441 106.98 422.851 106.563 422.209C104.753 419.425 103.271 417.092 102.116 415.209L102.08 415.151L102.062 415.085L93.8246 386.308C93.7421 386.02 93.4416 385.853 93.1534 385.935L79.0097 376.54ZM79.0097 376.54L79.0114 376.547C79.8117 379.457 80.73 381.585 81.7974 382.857C83.0927 384.4 85.3086 385.878 88.381 387.31L88.5576 387.393L88.7434 387.334L93.1386 385.94L93.1533 385.935L79.0097 376.54Z" stroke="white" stroke-opacity="0.25"/>
<path fill-rule="evenodd" clip-rule="evenodd" d="M265.76 430.527C264.593 433.641 264.01 435.972 264.01 437.518C264.01 439.399 264.323 442.143 264.95 445.751C267.131 445.751 286.738 445.751 323.771 445.751C325.299 440.698 324.417 437.969 321.124 437.566C317.83 437.164 315.095 436.8 312.916 436.475L285.577 424.287C285.051 424.052 284.434 424.289 284.2 424.815C284.196 424.824 284.192 424.833 284.188 424.842L282.431 429.105C279.382 430.527 276.905 431.239 274.998 431.239C273.45 431.239 271.311 430.613 268.582 429.362L268.582 429.362C267.535 428.882 266.297 429.342 265.817 430.389C265.796 430.434 265.777 430.48 265.76 430.527Z" fill="#E4E4E4"/>
<path d="M268.368 429.814C267.573 429.453 266.636 429.803 266.272 430.597C266.256 430.632 266.241 430.667 266.228 430.702C265.064 433.81 264.51 436.068 264.51 437.518C264.51 439.283 264.794 441.856 265.371 445.251H265.371H265.394H265.417H265.44H265.464H265.488H265.513H265.538H265.563H265.589H265.615H265.641H265.668H265.696H265.723H265.752H265.78H265.809H265.838H265.868H265.898H265.929H265.96H265.991H266.023H266.055H266.087H266.12H266.154H266.187H266.221H266.256H266.291H266.326H266.362H266.398H266.435H266.471H266.509H266.547H266.585H266.623H266.662H266.701H266.741H266.781H266.822H266.863H266.904H266.946H266.988H267.03H267.073H267.116H267.16H267.204H267.249H267.293H267.339H267.384H267.431H267.477H267.524H267.571H267.619H267.667H267.715H267.764H267.814H267.863H267.913H267.964H268.015H268.066H268.118H268.17H268.222H268.275H268.328H268.382H268.436H268.49H268.545H268.601H268.656H268.712H268.769H268.826H268.883H268.941H268.999H269.057H269.116H269.175H269.235H269.295H269.355H269.416H269.477H269.539H269.601H269.663H269.726H269.79H269.853H269.917H269.982H270.046H270.112H270.177H270.243H270.31H270.377H270.444H270.511H270.579H270.648H270.717H270.786H270.856H270.926H270.996H271.067H271.138H271.21H271.282H271.354H271.427H271.5H271.574H271.648H271.722H271.797H271.872H271.948H272.024H272.1H272.177H272.254H272.332H272.41H272.488H272.567H272.646H272.726H272.806H272.886H272.967H273.048H273.13H273.212H273.294H273.377H273.46H273.543H273.627H273.712H273.797H273.882H273.967H274.053H274.14H274.226H274.314H274.401H274.489H274.577H274.666H274.755H274.845H274.935H275.025H275.116H275.207H275.299H275.391H275.483H275.576H275.669H275.762H275.856H275.951H276.046H276.141H276.236H276.332H276.428H276.525H276.622H276.72H276.818H276.916H277.015H277.114H277.214H277.313H277.414H277.515H277.616H277.717H277.819H277.921H278.024H278.127H278.231H278.335H278.439H278.544H278.649H278.754H278.86H278.967H279.073H279.18H279.288H279.396H279.504H279.613H279.722H279.831H279.941H280.052H280.162H280.273H280.385H280.497H280.609H280.722H280.835H280.948H281.062H281.177H281.291H281.406H281.522H281.638H281.754H281.871H281.988H282.105H282.223H282.341H282.46H282.579H282.699H282.818H282.939H283.059H283.18H283.302H283.424H283.546H283.669H283.792H283.915H284.039H284.163H284.288H284.413H284.538H284.664H284.791H284.917H285.044H285.172H285.3H285.428H285.556H285.686H285.815H285.945H286.075H286.206H286.337H286.468H286.6H286.732H286.865H286.998H287.131H287.265H287.399H287.534H287.669H287.804H287.94H288.077H288.213H288.35H288.488H288.625H288.764H288.902H289.041H289.181H289.32H289.461H289.601H289.742H289.884H290.026H290.168H290.31H290.453H290.597H290.741H290.885H291.029H291.174H291.32H291.466H291.612H291.758H291.905H292.053H292.2H292.349H292.497H292.646H292.796H292.945H293.096H293.246H293.397H293.549H293.7H293.852H294.005H294.158H294.311H294.465H294.619H294.774H294.929H295.084H295.24H295.396H295.553H295.71H295.867H296.025H296.183H296.342H296.5H296.66H296.82H296.98H297.14H297.301H297.463H297.624H297.787H297.949H298.112H298.275H298.439H298.603H298.768H298.933H299.098H299.264H299.43H299.596H299.763H299.931H300.098H300.267H300.435H300.604H300.773H300.943H301.113H301.284H301.455H301.626H301.798H301.97H302.142H302.315H302.489H302.662H302.836H303.011H303.186H303.361H303.537H303.713H303.889H304.066H304.244H304.421H304.599H304.778H304.957H305.136H305.316H305.496H305.676H305.857H306.039H306.22H306.402H306.585H306.768H306.951H307.135H307.319H307.503H307.688H307.873H308.059H308.245H308.432H308.619H308.806H308.994H309.182H309.37H309.559H309.748H309.938H310.128H310.318H310.509H310.701H310.892H311.084H311.277H311.47H311.663H311.856H312.051H312.245H312.44H312.635H312.831H313.027H313.223H313.42H313.617H313.815H314.013H314.211H314.41H314.61H314.809H315.009H315.21H315.41H315.612H315.813H316.015H316.218H316.421H316.624H316.827H317.031H317.236H317.441H317.646H317.852H318.058H318.264H318.471H318.678H318.886H319.094H319.302H319.511H319.72H319.93H320.14H320.35H320.561H320.772H320.984H321.196H321.408H321.621H321.834H322.048H322.262H322.476H322.691H322.906H323.122H323.338H323.397C324.059 442.933 324.154 441.225 323.78 440.069C323.588 439.475 323.273 439.028 322.842 438.705C322.406 438.378 321.823 438.156 321.063 438.063C317.767 437.66 315.027 437.295 312.843 436.97L312.775 436.959L312.713 436.932L285.373 424.744C285.099 424.622 284.778 424.745 284.656 425.018L268.368 429.814ZM268.368 429.814L268.374 429.817C271.118 431.075 273.338 431.739 274.998 431.739C277.014 431.739 279.57 430.991 282.642 429.558L282.819 429.476L282.893 429.295L284.65 425.033L284.656 425.018L268.368 429.814Z" stroke="white" stroke-opacity="0.25"/>
<path fill-rule="evenodd" clip-rule="evenodd" d="M220.208 424.302L284.664 417.306L236.895 196.499H179.164L220.208 424.302Z" fill="#69A1AC"/>
<path d="M220.618 423.754L179.762 196.999H236.491L284.058 416.869L220.618 423.754Z" stroke="white" stroke-opacity="0.25"/>
<path fill-rule="evenodd" clip-rule="evenodd" d="M91.3688 362.215L133.648 412.259C178.179 363.623 204.141 331.887 211.534 317.053C218.926 302.219 225.572 262.034 231.47 196.499H166.476C163.254 254.154 161.082 284.323 159.961 287.006C158.839 289.689 135.975 314.759 91.3688 362.215Z" fill="#89C5CC"/>
<path d="M186.131 351.664C173.233 367.43 155.744 387.376 133.663 411.502L92.0383 362.233C114.191 338.664 130.958 320.638 142.341 308.158C148.058 301.889 152.418 297.017 155.421 293.543C156.922 291.806 158.087 290.415 158.913 289.372C159.326 288.851 159.657 288.412 159.905 288.059C160.146 287.715 160.329 287.421 160.422 287.199C160.591 286.794 160.755 285.962 160.925 284.783C161.1 283.579 161.29 281.946 161.496 279.89C161.909 275.777 162.386 269.947 162.93 262.403C164.01 247.397 165.35 225.595 166.949 196.999H230.923C227.989 229.509 224.871 255.744 221.569 275.708C218.246 295.802 214.745 309.488 211.086 316.83C207.418 324.192 199.113 335.795 186.131 351.664Z" stroke="white" stroke-opacity="0.25"/>
<path fill-rule="evenodd" clip-rule="evenodd" d="M277.018 183.566L306.561 212.387C315.157 216.053 322.2 220.102 327.69 224.533C328.925 226.022 330.269 228.876 324.46 227.599C318.651 226.322 312.483 225.24 311.391 227.129C310.299 229.018 313.516 231.913 311.499 234.386C310.153 236.034 305.629 230.791 297.926 218.657L267.206 200.544L277.018 183.566ZM132.552 157.483L155.389 157.568C137.996 213.92 128.763 243.425 127.691 246.083C125.277 252.063 130.384 261.172 132.568 266.066C125.455 269.249 126.213 257.462 117.241 261.636C109.051 265.446 102.822 272.35 93.3597 266.512C92.1964 265.794 90.9217 263.091 94.0016 260.98C101.675 255.718 112.733 246.509 114.227 243.478C116.264 239.345 122.373 210.68 132.552 157.483Z" fill="#57331F"/>
<path d="M277.129 184.373L306.212 212.744L306.279 212.81L306.365 212.846C314.91 216.492 321.897 220.508 327.337 224.89C327.617 225.233 327.89 225.637 328.069 226.027C328.262 226.451 328.3 226.763 328.24 226.951C328.2 227.079 328.07 227.281 327.507 227.374C326.929 227.47 325.998 227.425 324.567 227.11C321.662 226.472 318.639 225.875 316.197 225.678C314.978 225.58 313.874 225.578 312.99 225.733C312.128 225.885 311.346 226.208 310.958 226.879C310.597 227.503 310.614 228.182 310.741 228.811C310.836 229.279 311.007 229.779 311.169 230.255C311.22 230.405 311.27 230.551 311.317 230.694C311.73 231.957 311.939 233.055 311.111 234.069C311.043 234.153 310.975 234.185 310.863 234.181C310.719 234.176 310.488 234.107 310.155 233.903C309.49 233.496 308.599 232.666 307.475 231.363C305.238 228.771 302.198 224.452 298.349 218.389L298.284 218.287L298.18 218.226L267.886 200.365L277.129 184.373ZM120.825 218.983C123.865 204.719 127.912 184.385 132.966 157.984L154.712 158.066C146.113 185.924 139.523 207.173 134.943 221.811C130.321 236.581 127.753 244.591 127.227 245.896C125.948 249.066 126.679 252.991 127.932 256.644C128.856 259.335 130.097 261.966 131.117 264.127C131.398 264.724 131.663 265.284 131.899 265.8C130.495 266.317 129.502 266.149 128.676 265.692C127.818 265.217 127.107 264.418 126.307 263.519C126.198 263.396 126.087 263.271 125.974 263.145C125.064 262.132 124.022 261.06 122.59 260.545C121.131 260.02 119.356 260.101 117.03 261.183C115.169 262.049 113.409 263.072 111.712 264.058C111.519 264.171 111.326 264.283 111.134 264.394C109.249 265.487 107.437 266.506 105.595 267.227C103.759 267.945 101.91 268.359 99.9591 268.25C98.0104 268.141 95.9266 267.508 93.6222 266.086C93.1779 265.812 92.6549 265.102 92.588 264.23C92.5247 263.407 92.8669 262.364 94.2844 261.392C98.1374 258.75 102.834 255.121 106.756 251.773C108.717 250.098 110.49 248.489 111.87 247.105C113.231 245.738 114.261 244.541 114.675 243.699C115.214 242.607 115.989 239.982 117.004 235.899C118.024 231.791 119.298 226.152 120.825 218.983Z" stroke="white" stroke-opacity="0.25"/>
<path fill-rule="evenodd" clip-rule="evenodd" d="M202.14 92.7004L211.158 91.1536C225.364 141.371 298.355 175.601 302.836 194.374C304.479 201.258 299.524 204.738 302.084 206.835L290.362 215.416C288.377 213.1 284.141 217.336 275.295 214.373C266.449 211.41 202.14 152.162 202.14 92.7004Z" fill="#2A00A2"/>
<path d="M235.798 174.421C218.719 151.942 202.792 122.547 202.641 93.1217L210.801 91.7222C218.076 116.804 239.861 137.859 260.323 154.939C265.09 158.918 269.774 162.672 274.193 166.214C279.349 170.347 284.144 174.191 288.292 177.766C292.133 181.078 295.386 184.132 297.815 186.936C300.251 189.748 301.818 192.262 302.349 194.49C303.136 197.786 302.35 200.262 301.645 202.231C301.607 202.34 301.568 202.448 301.529 202.555C301.224 203.399 300.933 204.204 300.855 204.918C300.81 205.334 300.833 205.75 300.979 206.151C301.059 206.372 301.174 206.579 301.324 206.772L290.407 214.763C289.834 214.296 289.146 214.17 288.399 214.193C287.76 214.213 287.01 214.346 286.19 214.492C285.908 214.543 285.617 214.595 285.32 214.644C282.953 215.035 279.772 215.345 275.454 213.899C274.961 213.734 274.233 213.356 273.285 212.75C272.345 212.149 271.213 211.342 269.918 210.338C267.329 208.33 264.104 205.552 260.477 202.11C253.222 195.228 244.373 185.706 235.798 174.421Z" stroke="white" stroke-opacity="0.25"/>
<path fill-rule="evenodd" clip-rule="evenodd" d="M217.31 99.3766C216.27 165.861 254.703 182.82 246.142 209.49C239.073 231.515 171.408 255.19 159.699 233.602C154.96 224.863 152.809 214.293 152.565 202.803C149.573 211.631 147.206 219.231 145.465 225.602C142.461 236.594 130.818 238.342 130.818 242.576L115.477 238.342C116.517 232.589 109.286 229.788 111.225 216.935C119.913 159.349 143.256 117.607 181.255 91.7084L181.648 86.0866C181.809 83.7883 183.803 82.0554 186.101 82.2161L214.19 84.1804C216.489 84.3411 218.222 86.3345 218.061 88.6328L217.31 99.3766Z" fill="#5F2EEA"/>
<path d="M216.811 99.3417L216.81 99.3552L216.81 99.3688C216.288 132.725 225.674 153.672 234.104 169.597C235.11 171.497 236.099 173.321 237.055 175.084C240.114 180.721 242.83 185.729 244.634 190.558C246.991 196.867 247.762 202.808 245.666 209.337C243.953 214.675 238.521 220.204 231.024 225.168C223.548 230.118 214.106 234.448 204.512 237.423C194.915 240.399 185.202 242.008 177.181 241.54C169.139 241.071 162.941 238.529 160.139 233.363C155.449 224.716 153.308 214.232 153.065 202.792L152.092 202.642C149.097 211.476 146.727 219.086 144.983 225.47C143.527 230.798 139.981 233.898 136.725 236.216C136.141 236.632 135.557 237.029 134.994 237.411C134.014 238.076 133.1 238.697 132.367 239.296C131.41 240.079 130.627 240.926 130.391 241.94L116.036 237.977C116.193 236.607 115.916 235.391 115.444 234.194C115.123 233.38 114.694 232.537 114.247 231.659C113.987 231.147 113.72 230.623 113.466 230.086C112.063 227.129 110.767 223.317 111.719 217.01C120.392 159.522 143.682 117.922 181.537 92.1216L181.737 91.9851L181.754 91.7433L182.147 86.1214C182.289 84.0986 184.043 82.5735 186.066 82.7149L214.156 84.6791C216.178 84.8206 217.703 86.5751 217.562 88.5979L216.811 99.3417Z" stroke="white" stroke-opacity="0.25"/>
</g>
<defs>
<filter id="filter0_d" x="0" y="0" width="392.766" height="541.751" filterUnits="userSpaceOnUse" color-interpolation-filters="sRGB">
<feFlood flood-opacity="0" result="BackgroundImageFix"/>
<feColorMatrix in="SourceAlpha" type="matrix" values="0 0 0 0 0 0 0 0 0 0 0 0 0 0 0 0 0 0 127 0"/>
<feOffset dy="32"/>
<feGaussianBlur stdDeviation="32"/>
<feColorMatrix type="matrix" values="0 0 0 0 0.0666667 0 0 0 0 0.0666667 0 0 0 0 0.0666667 0 0 0 0.08 0"/>
<feBlend mode="normal" in2="BackgroundImageFix" result="effect1_dropShadow"/>
<feBlend mode="normal" in="SourceGraphic" in2="effect1_dropShadow" result="shape"/>
</filter>
<linearGradient id="paint0_linear" x1="70" y1="49" x2="403.747" y2="158.144" gradientUnits="userSpaceOnUse">
<stop stop-color="#7433FF"/>
<stop offset="1" stop-color="#FFA3FD"/>
</linearGradient>
</defs>
</svg>
