<svg width="348" height="164" viewBox="0 0 348 164" fill="none" xmlns="http://www.w3.org/2000/svg">
<rect opacity="0.75" y="15.5142" width="283.425" height="123.154" rx="20" transform="rotate(-0.295233 0 15.5142)" fill="url(#paint0_linear)"/>
<g clip-path="url(#clip0)">
<path d="M118.954 51.1331V59.3058C122.401 59.3058 125.707 60.6691 128.144 63.0958C130.582 65.5226 131.951 68.8139 131.951 72.2459C131.951 75.6778 130.582 78.9692 128.144 81.3959C125.707 83.8227 122.401 85.186 118.954 85.186V93.3587H161.365V51.1331H118.954Z" fill="#F2F2F2"/>
<path d="M118.954 82.4618C124.621 82.4618 129.215 77.888 129.215 72.2459C129.215 66.6038 124.621 62.03 118.954 62.03C113.288 62.03 108.694 66.6038 108.694 72.2459C108.694 77.888 113.288 82.4618 118.954 82.4618Z" fill="#F2F2F2"/>
<path d="M274.459 82.4735L257.814 72.2585V151.249H274.459V82.4735Z" fill="#F2F2F2"/>
<path d="M232.276 151.249H248.921V66.8011L232.276 56.5862V151.249Z" fill="#F2F2F2"/>
<path d="M223.384 51.1286L140.159 0.0537109V46.1387H166.837V99.2612H140.159V151.249H223.384V51.1286Z" fill="#F2F2F2"/>
<path d="M283.351 87.9307V151.249H292.016L315.501 107.661L283.351 87.9307Z" fill="#F2F2F2"/>
<path d="M315.687 121.03C301.874 131.311 297.979 149.372 297.979 149.372C297.979 149.372 316.479 150.765 330.292 140.485C344.105 130.205 348 112.144 348 112.144C348 112.144 329.5 110.75 315.687 121.03Z" fill="#3F3D56"/>
<path d="M297.99 149.197C297.99 149.197 297.787 149.085 297.42 148.86C297.127 148.681 296.726 148.431 296.24 148.112C291.9 145.264 280.655 136.889 276.043 123.965C270.273 107.785 277.087 90.603 277.087 90.603C277.087 90.603 291.95 98.9223 298.264 113.865C298.539 114.509 298.793 115.166 299.033 115.835C304.054 129.914 299.547 144.75 298.293 148.366C298.104 148.908 297.99 149.197 297.99 149.197Z" fill="#6C63FF"/>
<path d="M298.057 149.708L297.845 149.555C297.694 149.447 282.703 138.481 278.851 121.86C274.999 105.238 283.648 88.841 283.736 88.6774L283.859 88.4478L284.071 88.6005C284.222 88.7091 299.213 99.675 303.065 116.296C306.918 132.918 298.268 149.315 298.18 149.479L298.057 149.708ZM284.017 89.1279C282.977 91.193 275.733 106.388 279.295 121.758C282.857 137.127 296.056 147.625 297.899 149.028C298.939 146.963 306.183 131.768 302.621 116.398C299.059 101.029 285.86 90.5308 284.017 89.1279Z" fill="#3F3D56"/>
<path opacity="0.1" d="M298.293 148.366C297.956 148.562 297.662 148.726 297.42 148.86C296.887 149.15 296.592 149.296 296.592 149.296C296.592 149.296 296.452 148.877 296.24 148.112C295.071 143.925 291.723 129.331 297.326 115.927C297.621 115.224 297.933 114.537 298.264 113.865C298.539 114.509 298.793 115.166 299.033 115.835C304.054 129.914 299.548 144.75 298.293 148.366Z" fill="black"/>
<path d="M321.453 125.841C314.828 141.694 298.196 149.881 298.196 149.881C298.196 149.881 292.305 132.364 298.929 116.511C305.553 100.658 322.185 92.4714 322.185 92.4714C322.185 92.4714 328.077 109.988 321.453 125.841Z" fill="#6C63FF"/>
<path d="M321.848 93.0831L298.148 149.334L298.568 149.51L322.269 93.2586L321.848 93.0831Z" fill="#3F3D56"/>
<path d="M345.485 154.539C345.485 156.665 333.202 158.609 312.894 160.102C309.202 160.372 305.244 160.628 301.048 160.869C297.421 161.076 293.62 161.271 289.646 161.454C285.794 161.628 281.795 161.79 277.65 161.939C264.553 162.413 250.078 162.754 234.699 162.924C230.967 162.965 227.185 162.997 223.352 163.02C219.362 163.043 215.325 163.054 211.242 163.054C137.102 163.054 77 159.243 77 154.539C77 149.835 137.102 146.023 211.242 146.023C243.16 146.023 272.474 146.731 295.512 147.909C296.36 147.953 297.2 147.996 298.031 148.038C298.036 148.041 298.041 148.043 298.047 148.042C327.067 149.605 345.485 151.935 345.485 154.539Z" fill="#3F3D56"/>
<path opacity="0.15" d="M345.485 154.539C345.485 156.665 333.202 158.609 312.894 160.102C309.202 160.372 305.244 160.628 301.048 160.869C297.421 161.076 293.62 161.271 289.646 161.454C285.794 161.628 281.795 161.79 277.65 161.939C264.553 162.413 250.078 162.754 234.699 162.924C230.967 162.965 227.185 162.997 223.352 163.02C219.362 163.043 215.325 163.054 211.242 163.054C137.102 163.054 77 159.243 77 154.539C77 149.835 137.102 146.023 211.242 146.023C243.16 146.023 272.474 146.731 295.512 147.909C296.36 147.953 297.2 147.996 298.031 148.038C298.036 148.041 298.041 148.043 298.047 148.042C327.067 149.605 345.485 151.935 345.485 154.539Z" fill="black"/>
<path d="M335.167 153.04C335.167 154.818 323.716 156.443 304.784 157.692C301.344 157.916 297.652 158.13 293.742 158.332C290.36 158.504 286.817 158.667 283.112 158.82C279.521 158.967 275.793 159.103 271.928 159.226C259.718 159.624 246.222 159.907 231.884 160.05C228.407 160.084 224.881 160.111 221.307 160.13C217.586 160.15 213.823 160.16 210.018 160.159C140.898 160.159 84.8665 156.972 84.8665 153.04C84.8665 149.108 140.898 145.921 210.018 145.921C225.302 145.921 239.945 146.077 253.484 146.363H253.518C266.323 146.633 278.141 147.019 288.58 147.498C289.371 147.535 290.154 147.57 290.928 147.605C290.933 147.609 290.938 147.61 290.944 147.61C295.726 147.841 300.199 148.091 304.322 148.359C304.367 148.361 304.413 148.366 304.458 148.368C323.586 149.619 335.167 151.251 335.167 153.04Z" fill="#3F3D56"/>
<path opacity="0.1" d="M304.321 148.359C302.627 159.326 291.945 155.651 279.019 155.651C265.363 155.651 254.213 159.753 253.518 146.363C266.323 146.633 278.141 147.019 288.579 147.498C289.371 147.535 290.154 147.57 290.928 147.605C290.932 147.609 290.938 147.61 290.944 147.61C295.725 147.841 300.199 148.091 304.321 148.359Z" fill="black"/>
<path d="M149.343 145.022C149.343 148.976 146.982 150.357 144.07 150.357C144.003 150.357 143.935 150.356 143.868 150.354C143.733 150.351 143.599 150.345 143.467 150.336C140.839 150.151 138.797 148.699 138.797 145.022C138.797 141.218 143.68 136.416 144.048 136.06L144.049 136.06C144.063 136.046 144.07 136.039 144.07 136.039C144.07 136.039 149.343 141.069 149.343 145.022Z" fill="#6C63FF"/>
<path d="M143.878 149.752L145.807 147.069L143.873 150.047L143.868 150.354C143.734 150.351 143.6 150.345 143.468 150.336L143.675 146.381L143.674 146.35L143.677 146.344L143.697 145.97L141.759 142.986L143.703 145.69L143.708 145.769L143.865 142.781L142.205 139.697L143.885 142.257L144.049 136.06L144.049 136.039V136.06L144.022 140.946L145.674 139.009L144.015 141.366L143.971 144.042L145.514 141.474L143.965 144.436L143.941 145.924L146.179 142.349L143.932 146.443L143.878 149.752Z" fill="#3F3D56"/>
<path d="M253.482 142.257C253.482 127.212 264.915 115.015 279.019 115.015C293.123 115.015 304.556 127.212 304.556 142.257C304.556 157.303 293.123 152.927 279.019 152.927C264.915 152.927 253.482 157.303 253.482 142.257Z" fill="#3F3D56"/>
<path d="M111.973 124.309H111.517V154.997H111.973V124.309Z" fill="#3F3D56"/>
<path d="M111.745 128.648C114.153 128.648 116.104 126.705 116.104 124.309C116.104 121.912 114.153 119.969 111.745 119.969C109.338 119.969 107.387 121.912 107.387 124.309C107.387 126.705 109.338 128.648 111.745 128.648Z" fill="#3F3D56"/>
<path d="M111.745 143.223C111.745 143.223 111.123 129.888 98.3577 131.438Z" fill="#3F3D56"/>
<path d="M238.664 129.358C238.778 129.759 238.905 130.157 239.04 130.552C238.432 129.956 237.834 129.344 237.226 128.752C237.47 128.828 237.713 128.903 237.943 128.993C238.194 129.092 238.436 129.215 238.664 129.358V129.358ZM235.715 127.368C232.127 124.262 227.97 121.858 224.294 118.846C226.301 119.83 228.254 120.976 230.192 122.075C232.49 123.378 234.815 124.631 237.167 125.833C236.784 126.431 236.292 126.952 235.715 127.368V127.368ZM237.25 119.547C237.307 119.489 237.364 119.431 237.422 119.372C237.423 119.813 237.427 120.226 237.432 120.6C237.111 120.494 236.79 120.385 236.47 120.274C236.745 120.048 237.006 119.805 237.25 119.547V119.547ZM205.646 127.956C207.125 126.293 208.409 124.469 209.475 122.519C210.899 124.996 213.213 126.783 215.182 128.858C212.01 128.441 208.833 128.097 205.646 127.956Z" fill="url(#paint1_linear)"/>
<path d="M103.741 150.925C103.741 154.879 101.38 156.259 98.4677 156.259C98.4002 156.259 98.3328 156.258 98.2658 156.257C98.1309 156.254 97.9969 156.248 97.8649 156.239C95.2365 156.053 93.1948 154.602 93.1948 150.925C93.1948 147.12 98.078 142.319 98.4458 141.963L98.4463 141.962C98.4604 141.948 98.4677 141.941 98.4677 141.941C98.4677 141.941 103.741 146.971 103.741 150.925Z" fill="#6C63FF"/>
<path d="M98.2757 155.654L100.204 152.972L98.2708 155.949L98.266 156.257C98.1311 156.254 97.9971 156.248 97.8651 156.239L98.0728 152.283L98.0714 152.252L98.0748 152.247L98.0947 151.873L96.1564 148.888L98.1005 151.593L98.1054 151.672L98.2621 148.683L96.6028 145.599L98.2825 148.159L98.446 141.963L98.4465 141.941V141.962L98.4193 146.848L100.071 144.911L98.4126 147.269L98.3689 149.945L99.9117 147.377L98.3626 150.339L98.3383 151.827L100.577 148.252L98.3296 152.345L98.2757 155.654Z" fill="#3F3D56"/>
<path d="M106.414 119.466C107.673 119.466 108.694 118.45 108.694 117.196C108.694 115.942 107.673 114.926 106.414 114.926C105.154 114.926 104.133 115.942 104.133 117.196C104.133 118.45 105.154 119.466 106.414 119.466Z" fill="#6C63FF"/>
<path d="M253.023 85.4202C253.023 85.4202 261.295 83.5969 262.207 90.8615C263.119 98.1261 257.814 99.4974 257.814 99.4974L254.454 100.396L241.458 96.991L243.282 91.7696L253.023 85.4202Z" fill="#2F2E41"/>
<path d="M250.042 85.821C256.215 85.821 261.22 80.8383 261.22 74.6918C261.22 68.5452 256.215 63.5625 250.042 63.5625C243.869 63.5625 238.864 68.5452 238.864 74.6918C238.864 80.8383 243.869 85.821 250.042 85.821Z" fill="#2F2E41"/>
<path d="M210.764 97.802L213.035 98.2567L220.757 109.625L217.35 110.08L210.764 97.802Z" fill="#2F2E41"/>
<path d="M155.829 143.927C156.441 145.933 157.195 147.894 158.086 149.795C160.645 149.262 163.163 148.547 165.621 147.657C165.697 147.63 164.212 145.696 164.056 145.538C163.467 144.942 162.706 144.245 161.928 143.908C161.143 143.568 160.177 143.828 159.338 143.87C158.169 143.93 156.999 143.949 155.829 143.927Z" fill="#FBBEBE"/>
<path d="M161.941 146.964C160.661 146.565 159.883 145.283 159.362 144.046C158.842 142.809 158.422 141.46 157.434 140.552C157.056 140.571 156.751 140.877 156.564 141.206C156.376 141.536 156.265 141.908 156.049 142.219C155.637 142.812 154.913 143.098 154.395 143.6C153.852 144.127 153.555 144.873 152.993 145.379C152.287 146.015 151.29 146.173 150.364 146.383C148.931 146.709 147.548 147.22 146.248 147.902C145.77 148.189 145.258 148.418 144.724 148.582C144.136 148.695 143.535 148.715 142.941 148.642L138.846 148.351C138.482 148.304 138.112 148.321 137.754 148.399C136.912 148.634 136.389 149.569 136.451 150.442C136.513 151.315 137.058 152.097 137.747 152.636C138.46 153.143 139.246 153.54 140.079 153.812C143.645 155.152 147.317 156.197 151.057 156.934L151.059 157.741C153.659 159.014 156.518 159.677 159.416 159.678C159.63 159.694 159.845 159.657 160.042 159.57C160.329 159.415 160.462 159.081 160.568 158.772C161.551 155.912 162.126 152.929 162.276 149.909C162.349 149.144 162.289 148.372 162.1 147.627C161.877 146.893 162.645 147.201 161.934 146.914" fill="#2F2E41"/>
<path d="M240.47 131.596C228.331 132.319 216.332 128.782 204.177 128.403C202.666 128.356 201.139 128.36 199.663 128.69C198.102 129.039 196.647 129.742 195.196 130.415C188.677 133.434 181.933 135.936 175.197 138.434L167.459 141.303C165.913 141.877 164.31 142.459 162.665 142.359C161.927 142.314 161.021 142.203 160.606 142.815C159.347 144.672 159.942 147.4 160.774 149.484C161.044 150.16 161.5 150.89 162.224 150.967C162.733 151.021 163.207 150.727 163.702 150.595C165.11 150.22 166.514 151.163 167.964 151.317C169.755 151.506 171.417 150.491 173.108 149.869C175.911 148.837 178.976 148.87 181.923 148.381C186.863 147.562 191.443 145.278 195.723 142.675C197.353 141.684 199.002 140.623 200.875 140.26C203.028 139.844 205.239 140.396 207.35 140.99C212.384 142.408 217.339 144.088 222.195 146.024C224.752 147.042 227.291 148.135 229.952 148.84C235.707 150.348 241.795 149.995 247.335 147.831C249.278 147.066 251.39 145.714 251.501 143.627C251.565 142.437 250.638 141.389 250.018 140.371C249.621 139.718 249.223 139.065 248.791 138.436C246.698 135.389 244.157 131.376 240.47 131.596Z" fill="#2F2E41"/>
<path opacity="0.1" d="M240.47 131.596C228.331 132.319 216.332 128.782 204.177 128.403C202.666 128.356 201.139 128.36 199.663 128.69C198.102 129.039 196.647 129.742 195.196 130.415C188.677 133.434 181.933 135.936 175.197 138.434L167.459 141.303C165.913 141.877 164.31 142.459 162.665 142.359C161.927 142.314 161.021 142.203 160.606 142.815C159.347 144.672 159.942 147.4 160.774 149.484C161.044 150.16 161.5 150.89 162.224 150.967C162.733 151.021 163.207 150.727 163.702 150.595C165.11 150.22 166.514 151.163 167.964 151.317C169.755 151.506 171.417 150.491 173.108 149.869C175.911 148.837 178.976 148.87 181.923 148.381C186.863 147.562 191.443 145.278 195.723 142.675C197.353 141.684 199.002 140.623 200.875 140.26C203.028 139.844 205.239 140.396 207.35 140.99C212.384 142.408 217.339 144.088 222.195 146.024C224.752 147.042 227.291 148.135 229.952 148.84C235.707 150.348 241.795 149.995 247.335 147.831C249.278 147.066 251.39 145.714 251.501 143.627C251.565 142.437 250.638 141.389 250.018 140.371C249.621 139.718 249.223 139.065 248.791 138.436C246.698 135.389 244.157 131.376 240.47 131.596Z" fill="black"/>
<path d="M179.136 144.515C181.036 145.161 182.953 145.755 184.886 146.296C185.969 144.527 187.993 143.296 188.455 141.273C188.483 141.185 188.484 141.09 188.455 141.002C188.406 140.916 188.329 140.848 188.238 140.808C186.853 140.044 185.315 139.596 183.735 139.495C182.487 139.416 181.917 140.713 181.352 141.625C181.123 141.994 179.644 144.688 179.136 144.515Z" fill="#FBBEBE"/>
<path d="M181.799 143.224C180.677 142.99 179.579 142.389 179.006 141.395C178.737 140.929 178.452 140.302 177.916 140.337C177.419 140.369 177.19 140.96 177.078 141.447C176.659 143.268 176.247 145.104 175.511 146.821C174.775 148.539 173.686 150.152 172.151 151.215C171.447 151.703 170.662 152.067 169.974 152.577C169.355 153.035 168.816 153.609 168.133 153.963C167.676 154.172 167.204 154.347 166.721 154.488C166.011 154.734 165.332 155.063 164.7 155.467C164.143 155.789 163.671 156.238 163.323 156.777C163.152 157.049 163.052 157.359 163.032 157.679C163.012 157.999 163.073 158.319 163.21 158.61C163.356 158.849 163.552 159.054 163.784 159.213C164.017 159.371 164.28 159.479 164.557 159.528C165.11 159.623 165.675 159.637 166.232 159.57C168.445 159.408 170.656 159.212 172.867 159.015C173.802 158.955 174.731 158.827 175.647 158.63C176.132 158.514 176.606 158.36 177.089 158.236C177.915 158.024 178.763 157.901 179.616 157.87C179.864 157.849 180.114 157.871 180.354 157.937C180.866 158.103 181.229 158.611 181.758 158.714C182.097 158.746 182.439 158.7 182.758 158.581C184.35 158.147 186.024 158.159 187.672 158.07C188.398 158.031 189.248 157.894 189.582 157.246C189.997 156.439 189.308 155.537 189.034 154.671C188.897 154.118 188.82 153.552 188.806 152.983C188.679 151.576 188.264 150.209 187.587 148.968C187.023 147.938 186.254 146.799 186.65 145.694C186.784 145.318 187.052 144.969 187.025 144.572C186.908 142.825 182.817 143.436 181.799 143.224Z" fill="#2F2E41"/>
<path d="M222.265 112.205C220.114 111.262 218.391 109.557 217.428 107.422C217.226 106.963 217.059 106.484 216.864 106.02C216.227 104.481 215.237 103.112 213.973 102.023C213.657 101.756 213.286 101.502 212.9 101.572C212.529 101.639 212.238 102.004 212.111 102.413C212.002 102.835 211.975 103.273 212.031 103.704C212.139 104.722 212.314 105.731 212.557 106.725L213.145 109.394C213.218 109.805 213.341 110.205 213.511 110.586C213.765 111.035 214.1 111.434 214.499 111.762C215.036 112.255 215.582 112.734 216.137 113.201C216.908 113.937 217.913 114.382 218.978 114.459C221.389 114.904 223.84 115.545 225.875 117.111C225.852 117.094 225.866 115.321 225.831 115.118C225.738 114.581 225.665 114.049 225.314 113.686C224.525 112.87 223.226 112.63 222.265 112.205Z" fill="#FBBEBE"/>
<path opacity="0.1" d="M222.265 112.205C220.114 111.262 218.391 109.557 217.428 107.422C217.226 106.963 217.059 106.484 216.864 106.02C216.227 104.481 215.237 103.112 213.973 102.023C213.657 101.756 213.286 101.502 212.9 101.572C212.529 101.639 212.238 102.004 212.111 102.413C212.002 102.835 211.975 103.273 212.031 103.704C212.139 104.722 212.314 105.731 212.557 106.725L213.145 109.394C213.218 109.805 213.341 110.205 213.511 110.586C213.765 111.035 214.1 111.434 214.499 111.762C215.036 112.255 215.582 112.734 216.137 113.201C216.908 113.937 217.913 114.382 218.978 114.459C221.389 114.904 223.84 115.545 225.875 117.111C225.852 117.094 225.866 115.321 225.831 115.118C225.738 114.581 225.665 114.049 225.314 113.686C224.525 112.87 223.226 112.63 222.265 112.205Z" fill="black"/>
<path d="M246.988 91.7767C248.619 91.7767 249.94 90.4533 249.94 88.8208C249.94 87.1884 248.619 85.865 246.988 85.865C245.357 85.865 244.035 87.1884 244.035 88.8208C244.035 90.4533 245.357 91.7767 246.988 91.7767Z" fill="#2F2E41"/>
<path d="M245.161 87.0349C244.359 86.9464 243.469 86.8807 242.827 87.3689C242.486 87.6689 242.214 88.038 242.028 88.4515C241.411 89.6055 240.802 90.7813 240.492 92.0528C240.228 93.1316 240.184 94.2597 239.858 95.3212C239.252 97.2902 237.701 98.9522 237.524 101.005C237.445 101.923 237.599 102.999 236.926 103.628C236.76 103.767 236.582 103.892 236.395 104.003C235.929 104.314 235.533 104.719 235.233 105.192C234.981 105.591 234.787 106.049 234.408 106.329C233.808 106.772 232.811 106.727 232.515 107.412C232.211 108.116 232.983 108.9 232.804 109.646C232.658 110.254 231.978 110.533 231.509 110.946C230.909 111.475 230.634 112.273 230.384 113.033C229.396 113.219 228.38 113.19 227.405 112.948C226.429 112.706 225.518 112.256 224.734 111.63C225.558 113.651 225.576 115.882 225.612 118.065C225.624 118.773 225.601 119.568 225.094 120.061C227.444 120.111 229.737 120.745 232.031 121.261C233.033 121.487 234.121 121.683 235.056 121.256C235.581 120.976 236.05 120.604 236.442 120.158C237.69 118.898 238.999 117.524 239.304 115.776C239.475 114.797 239.31 113.792 239.355 112.799C239.411 111.568 239.789 110.379 240.112 109.191C240.774 106.758 241.218 104.272 241.438 101.761C241.574 100.212 242.918 98.9652 243.626 97.5806C244.961 94.9667 246.326 92.2444 246.427 89.31C246.461 88.3288 246.135 87.1425 245.161 87.0349Z" fill="#2F2E41"/>
<path opacity="0.1" d="M245.161 87.0349C244.359 86.9464 243.469 86.8807 242.827 87.3689C242.486 87.6689 242.214 88.038 242.028 88.4515C241.411 89.6055 240.802 90.7813 240.492 92.0528C240.228 93.1316 240.184 94.2597 239.858 95.3212C239.252 97.2902 237.701 98.9522 237.524 101.005C237.445 101.923 237.599 102.999 236.926 103.628C236.76 103.767 236.582 103.892 236.395 104.003C235.929 104.314 235.533 104.719 235.233 105.192C234.981 105.591 234.787 106.049 234.408 106.329C233.808 106.772 232.811 106.727 232.515 107.412C232.211 108.116 232.983 108.9 232.804 109.646C232.658 110.254 231.978 110.533 231.509 110.946C230.909 111.475 230.634 112.273 230.384 113.033C229.396 113.219 228.38 113.19 227.405 112.948C226.429 112.706 225.518 112.256 224.734 111.63C225.558 113.651 225.576 115.882 225.612 118.065C225.624 118.773 225.601 119.568 225.094 120.061C227.444 120.111 229.737 120.745 232.031 121.261C233.033 121.487 234.121 121.683 235.056 121.256C235.581 120.976 236.05 120.604 236.442 120.158C237.69 118.898 238.999 117.524 239.304 115.776C239.475 114.797 239.31 113.792 239.355 112.799C239.411 111.568 239.789 110.379 240.112 109.191C240.774 106.758 241.218 104.272 241.438 101.761C241.574 100.212 242.918 98.9652 243.626 97.5806C244.961 94.9667 246.326 92.2444 246.427 89.31C246.461 88.3288 246.135 87.1425 245.161 87.0349Z" fill="black"/>
<path d="M242.395 134.141C239.867 132.944 238.017 130.71 235.973 128.799C232.07 125.151 227.298 122.568 223.195 119.147C220.475 116.88 218.042 114.239 215.053 112.341C212.421 110.672 209.437 109.631 206.334 109.299C205.979 109.239 205.614 109.257 205.267 109.352C204.875 109.525 204.533 109.794 204.274 110.134C202.95 111.622 201.773 113.233 200.76 114.946C195.559 123.736 188.171 131.127 182.051 139.302C181.855 139.495 181.739 139.753 181.726 140.026C181.712 140.299 181.802 140.568 181.978 140.778L183.223 143.207C183.919 144.567 185.036 146.15 186.537 145.88C187.224 145.756 187.771 145.254 188.276 144.773L193.865 139.453L199.725 133.876C203.159 130.608 206.651 127.264 208.889 123.084C210.638 126.105 213.742 128.082 215.871 130.847C216.681 131.899 217.343 133.056 218.066 134.169C219.225 135.954 220.543 137.629 221.859 139.302L228.581 147.844C229.498 149.009 230.44 150.197 231.693 150.988C233.285 151.991 235.221 152.256 237.095 152.423C239.62 152.648 242.156 152.739 244.691 152.696C246.623 152.663 248.616 152.537 250.35 151.682C252.085 150.828 253.509 149.073 253.419 147.141C253.372 146.135 252.933 145.193 252.45 144.31C250.049 139.924 246.911 136.28 242.395 134.141Z" fill="#2F2E41"/>
<path d="M248.805 93.1409C250.059 93.1409 251.076 92.1229 251.076 90.8672C251.076 89.6115 250.059 88.5935 248.805 88.5935C247.551 88.5935 246.534 89.6115 246.534 90.8672C246.534 92.1229 247.551 93.1409 248.805 93.1409Z" fill="#2F2E41"/>
<path d="M248.303 89.1586C248.856 90.132 248.857 91.3435 248.552 92.4212C248.248 93.499 247.666 94.4739 247.09 95.4345C246.524 96.3798 245.951 97.3338 245.192 98.1318C248.697 98.2989 252.096 96.9298 255.189 95.2709C257.678 93.9363 260.162 92.2889 261.49 89.7947C260.713 90.027 259.857 89.7977 259.169 89.3676C258.502 88.9042 257.903 88.3491 257.391 87.7188L255.631 85.7476C255.218 85.3183 254.855 84.8437 254.549 84.333C254.168 83.6342 254.006 82.8377 254.084 82.0464C253.385 82.775 252.604 83.4207 251.755 83.9705C250.498 84.785 249.113 85.3759 247.853 86.1857C247.406 86.4729 246.413 86.9348 246.669 87.516C246.918 88.0828 247.949 88.5358 248.303 89.1586Z" fill="#FBBEBE"/>
<path opacity="0.1" d="M248.303 89.1586C248.856 90.132 248.857 91.3435 248.552 92.4212C248.248 93.499 247.666 94.4739 247.09 95.4345C246.524 96.3798 245.951 97.3338 245.192 98.1318C248.697 98.2989 252.096 96.9298 255.189 95.2709C257.678 93.9363 260.162 92.2889 261.49 89.7947C260.713 90.027 259.857 89.7977 259.169 89.3676C258.502 88.9042 257.903 88.3491 257.391 87.7188L255.631 85.7476C255.218 85.3183 254.855 84.8437 254.549 84.333C254.168 83.6342 254.006 82.8377 254.084 82.0464C253.385 82.775 252.604 83.4207 251.755 83.9705C250.498 84.785 249.113 85.3759 247.853 86.1857C247.406 86.4729 246.413 86.9348 246.669 87.516C246.918 88.0828 247.949 88.5358 248.303 89.1586Z" fill="black"/>
<path d="M248.351 89.5029C247.692 90.606 247.551 91.9084 248.351 92.9135C248.45 93.0385 248.82 93.8148 248.98 93.822C249.135 93.8093 249.278 93.737 249.38 93.6205C250.231 92.8456 250.855 91.8574 251.603 90.9821C252.351 90.1068 253.294 89.3091 254.431 89.1328C255.804 88.92 257.129 89.644 258.33 90.3425C258.829 90.6328 259.346 90.9403 259.66 91.425C259.913 91.88 260.062 92.3849 260.097 92.9039C260.512 96.0154 260.503 99.1661 260.493 102.305C260.486 104.574 260.477 106.859 260.046 109.087C259.824 110.238 259.489 111.369 259.331 112.531C259.214 113.556 259.167 114.589 259.19 115.62L259.186 119.94C259.157 120.734 259.214 121.528 259.354 122.309C259.561 123.256 260.01 124.13 260.311 125.051C260.621 126.109 260.833 127.194 260.945 128.291L261.539 132.764C261.726 134.173 261.864 135.714 261.008 136.848C260.622 137.361 260.113 137.772 259.721 138.28C258.252 140.185 258.724 142.902 258.111 145.229C257.627 146.932 256.634 148.449 255.262 149.576C254.213 150.464 252.857 151.163 251.506 150.913C249.681 150.576 248.586 148.682 248.088 146.892C247.591 145.103 247.41 143.155 246.332 141.644C245.452 140.409 244.089 139.633 242.856 138.752C241.623 137.87 240.419 136.735 240.15 135.242C240.033 134.59 240.106 133.919 240.036 133.26C239.938 132.426 239.617 131.633 239.106 130.964C238.594 130.296 237.912 129.776 237.13 129.46C236.196 129.099 235.043 128.97 234.517 128.117C235.875 127.355 236.776 125.947 237.251 124.463C237.726 122.979 237.823 121.404 237.916 119.849L238.228 114.65C238.367 112.327 238.431 110.025 239.458 107.937C239.917 107.004 240.489 106.13 240.967 105.207C241.6 103.911 242.14 102.572 242.584 101.2C243.329 99.0703 244.074 96.9397 244.738 94.7831C245.054 93.7554 245.358 92.7081 245.922 91.7929C246.486 90.8777 247.295 89.7005 248.351 89.5029Z" fill="#6C63FF"/>
<path d="M236.757 123.275L238.138 123.324L238.432 121.245C238.471 120.83 238.569 120.421 238.725 120.033C238.952 119.623 239.218 119.235 239.519 118.875C240.879 116.962 240.78 114.423 241.116 112.099C241.566 109.001 242.866 106.1 244.152 103.245L246.834 97.2937C247.368 96.2833 247.624 95.1497 247.575 94.0086C247.599 93.0885 247.873 89.7409 247.896 88.8208C247.905 88.4803 247.142 88.6695 246.988 88.366C246.652 87.7053 246.192 89.4972 245.563 89.8904C244.935 90.2835 244.589 90.9957 244.322 91.6876C243.744 93.1869 243.391 94.7635 242.852 96.2774C242.314 97.7913 241.56 99.2787 240.349 100.333C239.798 100.812 239.164 101.192 238.643 101.704C236.975 103.346 236.812 105.941 236.754 108.283C236.719 109.675 236.449 123.275 236.757 123.275Z" fill="#2F2E41"/>
<path d="M256.646 87.0209C255.304 87.5462 254.568 88.9951 254.191 90.3872C253.814 91.7794 253.661 93.2631 252.94 94.5121C251.255 97.4317 246.959 98.2825 245.771 101.437C245.382 102.47 245.398 103.602 245.294 104.701C245.078 106.961 244.332 109.145 244.111 111.405C243.94 113.156 244.088 114.921 244.235 116.674L245.737 134.503C245.953 137.078 245.948 139.844 245.287 142.343C246.807 142.638 248.387 142.243 249.798 141.603C251.208 140.963 252.495 140.084 253.853 139.338C256.187 138.056 258.761 137.148 260.805 135.44C261.175 135.153 261.492 134.804 261.741 134.409C262.151 133.704 262.185 132.851 262.379 132.059C262.556 131.428 262.781 130.81 263.052 130.213C263.801 128.416 264.452 126.581 265.005 124.716C265.385 123.478 265.685 122.217 265.904 120.941C266.067 119.925 266.156 118.898 266.244 117.872C266.353 116.267 266.674 114.682 267.197 113.16C268.503 109.529 269.243 105.72 269.39 101.867C269.434 101.31 269.396 100.75 269.277 100.204C269.099 99.5273 268.698 98.9357 268.369 98.3183C267.745 97.1482 267.37 95.8604 266.782 94.6722C265.451 91.9871 263.101 89.9514 260.64 88.2452C259.431 87.4073 258.015 86.4848 256.646 87.0209Z" fill="#2F2E41"/>
<path d="M225.257 116.107C224.218 115.504 223.179 114.856 222.397 113.943C222.023 113.506 221.713 113.016 221.332 112.584C220.406 111.535 219.093 110.884 217.736 110.543C216.378 110.203 214.967 110.152 213.568 110.14C212.632 110.132 211.672 110.145 210.796 110.475C209.92 110.804 209.13 111.514 208.96 112.436C208.756 113.545 209.484 114.626 210.358 115.337C211.171 115.998 212.127 116.46 213.151 116.687C213.987 116.833 214.83 116.931 215.677 116.982C220.648 117.5 225.083 120.194 229.44 122.647C233.266 124.802 237.167 126.816 241.142 128.69C241.3 127.505 241.365 126.31 241.338 125.114C241.318 124.221 241.274 122.861 240.427 122.336C239.44 121.726 237.815 121.586 236.702 121.222C234.141 120.386 231.639 119.379 229.214 118.206C227.869 117.556 226.55 116.856 225.257 116.107Z" fill="#FBBEBE"/>
<path d="M246.988 88.1387C251.88 88.1387 255.845 84.1686 255.845 79.2712C255.845 74.3739 251.88 70.4038 246.988 70.4038C242.096 70.4038 238.131 74.3739 238.131 79.2712C238.131 84.1686 242.096 88.1387 246.988 88.1387Z" fill="#FBBEBE"/>
<path d="M259.178 97.0743C258.387 97.9928 257.991 99.1757 257.46 100.266C256.366 102.508 254.651 104.433 253.791 106.775C252.885 109.247 252.916 112.186 251.139 114.128C250.83 114.465 250.457 114.791 250.368 115.24C250.315 115.506 250.37 115.791 250.278 116.047C250.023 116.752 248.864 116.788 248.647 117.506C248.584 117.716 248.62 117.948 248.541 118.153C248.363 118.618 247.748 118.688 247.336 118.967C246.476 119.547 246.65 120.897 246.036 121.734C245.551 122.397 244.636 122.618 243.823 122.506C243.01 122.394 242.266 122.006 241.525 121.652C241.271 121.51 240.99 121.422 240.699 121.394C240.356 121.405 240.024 121.518 239.745 121.718C238.109 122.754 237.341 124.805 237.352 126.743C237.364 128.681 238.032 130.549 238.717 132.361C238.811 132.667 238.964 132.952 239.169 133.198C239.711 133.769 240.656 133.677 241.376 133.359C242.097 133.042 242.751 132.542 243.526 132.402C244.897 132.155 246.236 133.093 247.627 133.015C248.645 132.959 249.547 132.369 250.393 131.799C251.744 130.888 253.12 129.955 254.113 128.663C254.721 127.871 255.167 126.969 255.697 126.124C256.379 125.086 257.126 124.093 257.934 123.149L263.041 116.925C264.269 115.595 265.114 113.96 265.488 112.193C265.973 110.534 266.462 108.856 266.546 107.129C266.615 105.708 266.408 104.289 266.175 102.885C265.946 101.504 265.685 100.107 265.075 98.8458C263.966 96.5513 261.264 94.6526 259.178 97.0743Z" fill="#2F2E41"/>
<path d="M262.152 71.1675C268.325 71.1675 273.33 66.1847 273.33 60.0382C273.33 53.8917 268.325 48.9089 262.152 48.9089C255.978 48.9089 250.974 53.8917 250.974 60.0382C250.974 66.1847 255.978 71.1675 262.152 71.1675Z" fill="#2F2E41"/>
<path d="M271.793 69.254C270.346 70.2951 268.67 70.9761 266.905 71.24C265.14 71.5039 263.337 71.3431 261.646 70.7709C259.956 70.1988 258.429 69.232 257.191 67.9514C255.953 66.6707 255.041 65.1136 254.532 63.4102C254.724 64.9367 255.233 66.4069 256.025 67.7278C256.817 69.0488 257.876 70.1918 259.134 71.0848C260.393 71.9778 261.823 72.6014 263.336 72.9161C264.849 73.2308 266.41 73.2299 267.922 72.9134C269.435 72.5969 270.865 71.9716 272.122 71.0771C273.379 70.1827 274.436 69.0383 275.227 67.7165C276.018 66.3946 276.525 64.9238 276.716 63.3971C276.907 61.8704 276.778 60.3208 276.337 58.8462C276.587 60.8273 276.297 62.839 275.498 64.6702C274.699 66.5015 273.419 68.0848 271.793 69.254V69.254Z" fill="#2F2E41"/>
<path d="M253.023 84.7079C257.55 84.7079 261.22 81.0539 261.22 76.5465C261.22 72.039 257.55 68.385 253.023 68.385C248.496 68.385 244.826 72.039 244.826 76.5465C244.826 81.0539 248.496 84.7079 253.023 84.7079Z" fill="#2F2E41"/>
<path d="M246.13 79.1433C250.142 79.1433 253.395 76.6105 253.395 73.486C253.395 70.3615 250.142 67.8286 246.13 67.8286C242.117 67.8286 238.864 70.3615 238.864 73.486C238.864 76.6105 242.117 79.1433 246.13 79.1433Z" fill="#2F2E41"/>
<path d="M248.921 83.6693C249.409 83.2738 249.322 82.3617 248.726 81.6321C248.131 80.9025 247.251 80.6317 246.763 81.0273C246.274 81.4228 246.362 82.3348 246.957 83.0644C247.553 83.794 248.432 84.0648 248.921 83.6693Z" fill="#FBBEBE"/>
<path d="M239.864 154.557C239.864 158.511 237.503 159.892 234.591 159.892C234.524 159.892 234.456 159.891 234.389 159.889C234.254 159.886 234.12 159.88 233.988 159.871C231.36 159.686 229.318 158.234 229.318 154.557C229.318 150.753 234.201 145.951 234.569 145.595L234.57 145.595C234.584 145.58 234.591 145.574 234.591 145.574C234.591 145.574 239.864 150.604 239.864 154.557Z" fill="#6C63FF"/>
<path d="M234.399 159.287L236.328 156.604L234.394 159.581L234.389 159.889C234.254 159.886 234.121 159.88 233.989 159.871L234.196 155.915L234.195 155.885L234.198 155.879L234.218 155.505L232.28 152.521L234.224 155.225L234.229 155.304L234.386 152.316L232.726 149.231L234.406 151.791L234.569 145.595L234.57 145.574V145.595L234.543 150.481L236.195 148.543L234.536 150.901L234.492 153.577L236.035 151.009L234.486 153.971L234.462 155.459L236.7 151.884L234.453 155.978L234.399 159.287Z" fill="#3F3D56"/>
</g>
<defs>
<linearGradient id="paint0_linear" x1="0" y1="15.5142" x2="196.865" y2="221.426" gradientUnits="userSpaceOnUse">
<stop stop-color="#624AF2"/>
<stop offset="1" stop-color="#50DDC3"/>
</linearGradient>
<linearGradient id="paint1_linear" x1="222.343" y1="130.552" x2="222.343" y2="118.846" gradientUnits="userSpaceOnUse">
<stop stop-color="#808080" stop-opacity="0.25"/>
<stop offset="0.53514" stop-color="#808080" stop-opacity="0.12"/>
<stop offset="1" stop-color="#808080" stop-opacity="0.1"/>
</linearGradient>
<clipPath id="clip0">
<rect width="271" height="163" fill="white" transform="translate(77 0.0537109)"/>
</clipPath>
</defs>
</svg>
