<svg width="337" height="218" viewBox="0 0 337 218" fill="none" xmlns="http://www.w3.org/2000/svg">
<rect opacity="0.75" x="144.521" y="0.982422" width="180.219" height="216.313" rx="38" transform="rotate(-0.295233 144.521 0.982422)" fill="url(#paint0_linear)"/>
<g clip-path="url(#clip0)">
<path d="M310.505 201.62C315.436 201.62 319.432 200.957 319.432 200.139C319.432 199.321 315.436 198.658 310.505 198.658C305.575 198.658 301.578 199.321 301.578 200.139C301.578 200.957 305.575 201.62 310.505 201.62Z" fill="#F2F2F2"/>
<path d="M320.92 58.6978H320.177V74.2489H320.92V58.6978Z" fill="#F2F2F2"/>
<path d="M312.737 48.7007H308.273V201.991H312.737V48.7007Z" fill="#F2F2F2"/>
<path d="M330.94 60.7342H290.071C289.623 60.7342 289.179 60.6394 288.771 60.4559C288.362 60.2724 287.997 60.0044 287.701 59.6699C287.404 59.3353 287.182 58.9418 287.05 58.5154C286.918 58.089 286.878 57.6395 286.934 57.1966L292.141 15.7269C292.238 14.9662 292.61 14.2665 293.187 13.7591C293.764 13.2516 294.508 12.9711 295.278 12.97H325.733C326.503 12.9711 327.247 13.2516 327.824 13.7591C328.402 14.2665 328.773 14.9662 328.87 15.7269L334.078 57.1966C334.133 57.6395 334.093 58.089 333.961 58.5154C333.829 58.9418 333.607 59.3353 333.311 59.6699C333.014 60.0044 332.649 60.2724 332.24 60.4559C331.832 60.6394 331.389 60.7342 330.94 60.7342V60.7342Z" fill="#F2F2F2"/>
<path d="M320.548 76.8407C321.986 76.8407 323.152 75.6803 323.152 74.2488C323.152 72.8174 321.986 71.657 320.548 71.657C319.11 71.657 317.945 72.8174 317.945 74.2488C317.945 75.6803 319.11 76.8407 320.548 76.8407Z" fill="#F2F2F2"/>
<path d="M46.7035 160.841C44.8243 167.33 39.3373 171.873 33.6137 175.732C32.8145 176.271 32.0151 176.797 31.2154 177.312C31.21 177.314 31.2044 177.319 31.1989 177.321C31.1605 177.346 31.1219 177.371 31.0861 177.395C30.921 177.501 30.7559 177.607 30.5922 177.712L30.6822 177.752C30.6822 177.752 30.7704 177.799 30.6738 177.76C30.6451 177.748 30.615 177.737 30.5863 177.725C27.2612 176.39 23.8771 174.957 21.3289 172.456C18.6856 169.859 17.1408 165.786 18.5722 162.374C18.7603 161.927 18.998 161.503 19.2807 161.108C19.3968 160.943 19.5218 160.785 19.652 160.629C20.4416 159.67 21.4735 158.938 22.6418 158.507C23.81 158.076 25.0724 157.963 26.2991 158.179C27.5258 158.395 28.6726 158.933 29.6215 159.736C30.5704 160.54 31.2872 161.58 31.6982 162.751C32.1187 158.854 28.8904 155.589 25.7835 153.18C22.6753 150.773 19.1436 148.151 18.5427 144.275C18.2071 142.119 18.9604 140.029 20.3326 138.351C20.3751 138.3 20.4175 138.249 20.4613 138.2C22.1317 136.246 24.4811 134.991 27.0402 134.686C31.8062 134.193 36.4357 136.705 39.8981 140.003C45.4708 145.311 48.8398 153.463 46.7035 160.841Z" fill="#F2F2F2"/>
<path d="M37.7451 152.353C38.6598 153.769 39.362 155.311 39.8297 156.929C40.2252 158.376 40.4012 159.873 40.352 161.371C40.2244 164.455 39.3549 167.462 37.8166 170.141C36.6578 172.173 35.2456 174.052 33.6136 175.732C32.8145 176.271 32.0151 176.797 31.2154 177.311C31.21 177.314 31.2044 177.319 31.1989 177.321C31.1604 177.346 31.1219 177.37 31.086 177.395C30.921 177.501 30.7559 177.607 30.5922 177.712C30.5922 177.712 30.7704 177.799 30.6738 177.759C30.6451 177.747 30.6149 177.737 30.5862 177.725C30.8843 175.293 30.5923 172.825 29.7349 170.528C28.8774 168.231 27.4795 166.173 25.6581 164.524C23.8324 162.901 21.6472 161.731 19.2806 161.108C19.3967 160.943 19.5218 160.784 19.652 160.629C20.566 160.884 21.4555 161.219 22.3102 161.63C25.3656 163.091 27.8673 165.492 29.4451 168.478C30.861 171.189 31.4704 174.247 31.2017 177.291C31.3384 177.168 31.4751 177.042 31.6078 176.917C34.1345 174.572 36.3787 171.88 37.8975 168.774C39.2152 166.143 39.8628 163.231 39.7833 160.292C39.6593 157.088 38.3769 154.12 36.5201 151.537C34.485 148.781 32.0809 146.314 29.3745 144.206C26.6471 142.032 23.6626 140.197 20.4876 138.745C20.416 138.711 20.3599 138.652 20.3311 138.579C20.3023 138.505 20.3028 138.424 20.3326 138.351C20.3538 138.286 20.4 138.231 20.4613 138.2C20.4928 138.186 20.5269 138.18 20.5612 138.181C20.5955 138.183 20.629 138.192 20.6593 138.208C21.0513 138.388 21.4406 138.57 21.8268 138.76C25.0432 140.342 28.0496 142.316 30.7771 144.637C33.4116 146.873 35.8918 149.427 37.7451 152.353Z" fill="white"/>
<path d="M19.5746 177.183H40.1677C40.3936 177.183 40.6169 177.231 40.8228 177.323C41.0287 177.416 41.2125 177.551 41.362 177.719C41.5115 177.888 41.6233 178.086 41.6899 178.301C41.7565 178.516 41.7765 178.742 41.7485 178.965L39.1246 199.861C39.0759 200.244 38.8885 200.597 38.5975 200.853C38.3066 201.108 37.9319 201.25 37.5438 201.25H22.1985C21.8104 201.25 21.4357 201.108 21.1448 200.853C20.8538 200.597 20.6664 200.244 20.6177 199.861L17.9938 178.965C17.9658 178.742 17.9858 178.516 18.0524 178.301C18.119 178.086 18.2308 177.888 18.3803 177.719C18.5298 177.551 18.7136 177.416 18.9195 177.323C19.1254 177.231 19.3487 177.183 19.5746 177.183V177.183Z" fill="#F2F2F2"/>
<path d="M86.7181 201.411C88.1415 201.411 89.2953 200.262 89.2953 198.845C89.2953 197.428 88.1415 196.28 86.7181 196.28C85.2948 196.28 84.1409 197.428 84.1409 198.845C84.1409 200.262 85.2948 201.411 86.7181 201.411Z" fill="#CCCCCC"/>
<path d="M249.512 201.411C250.935 201.411 252.089 200.262 252.089 198.845C252.089 197.428 250.935 196.28 249.512 196.28C248.089 196.28 246.935 197.428 246.935 198.845C246.935 200.262 248.089 201.411 249.512 201.411Z" fill="#CCCCCC"/>
<path d="M133.967 163.143H93.5907C91.7117 163.14 89.9102 162.396 88.5815 161.074C87.2529 159.751 86.5055 157.958 86.5034 156.087V128.723C86.5055 126.852 87.2529 125.059 88.5815 123.736C89.9102 122.414 91.7117 121.67 93.5907 121.667H133.967C135.846 121.67 137.648 122.414 138.976 123.736C140.305 125.059 141.052 126.852 141.054 128.723V156.087C141.052 157.958 140.305 159.751 138.976 161.074C137.648 162.396 135.846 163.14 133.967 163.143V163.143Z" fill="#E6E6E6"/>
<path d="M188.303 163.356H147.927C146.048 163.354 144.247 162.61 142.918 161.288C141.589 159.965 140.842 158.172 140.84 156.301V128.936C140.842 127.066 141.589 125.273 142.918 123.95C144.247 122.627 146.048 121.883 147.927 121.881H188.303C190.182 121.883 191.984 122.627 193.313 123.95C194.641 125.273 195.389 127.066 195.391 128.936V156.301C195.389 158.172 194.641 159.965 193.313 161.288C191.984 162.61 190.182 163.354 188.303 163.356V163.356Z" fill="#E6E6E6"/>
<path d="M242.64 163.57H202.263C200.384 163.568 198.583 162.824 197.254 161.501C195.926 160.179 195.178 158.385 195.176 156.515V129.15C195.178 127.28 195.926 125.486 197.254 124.164C198.583 122.841 200.384 122.097 202.263 122.095H242.64C244.519 122.097 246.32 122.841 247.649 124.164C248.978 125.486 249.725 127.28 249.727 129.15V156.515C249.725 158.385 248.978 160.179 247.649 161.501C246.32 162.824 244.519 163.568 242.64 163.57V163.57Z" fill="#E6E6E6"/>
<path d="M258.103 161.646H80.2751V198.631H258.103V161.646Z" fill="#E6E6E6"/>
<path d="M86.7182 198.845H78.9865C75.0785 198.845 71.8992 195.252 71.8992 190.835V152.239H86.7182V198.845Z" fill="#E6E6E6"/>
<path d="M257.244 198.845H249.512V146.253H264.331V189.806C264.331 194.79 261.152 198.845 257.244 198.845Z" fill="#E6E6E6"/>
<path d="M141.269 169.342H86.7181V157.798C104.902 147.415 123.086 147.415 141.269 157.798V169.342Z" fill="#CCCCCC"/>
<path d="M195.605 169.556H141.055V158.011C159.238 147.628 177.422 147.628 195.605 158.011V169.556Z" fill="#CCCCCC"/>
<path d="M249.942 169.77H195.391V158.225C213.574 147.842 231.758 147.842 249.942 158.225V169.77Z" fill="#CCCCCC"/>
<path d="M76.1946 162.074C83.1928 162.074 88.8659 156.426 88.8659 149.46C88.8659 142.494 83.1928 136.846 76.1946 136.846C69.1964 136.846 63.5233 142.494 63.5233 149.46C63.5233 156.426 69.1964 162.074 76.1946 162.074Z" fill="#CCCCCC"/>
<path d="M261.754 161.646C268.752 161.646 274.425 155.999 274.425 149.033C274.425 142.066 268.752 136.419 261.754 136.419C254.756 136.419 249.083 142.066 249.083 149.033C249.083 155.999 254.756 161.646 261.754 161.646Z" fill="#CCCCCC"/>
<path d="M224.428 124.322C224.457 124.524 224.471 124.729 224.468 124.934L239.656 135.355L243.707 133.446L247.4 139.154L240.559 143.227C240.006 143.556 239.361 143.698 238.721 143.631C238.081 143.564 237.479 143.292 237.007 142.856L221.625 128.644C220.862 128.858 220.051 128.836 219.301 128.58C218.551 128.324 217.897 127.847 217.426 127.212C216.955 126.577 216.69 125.814 216.665 125.025C216.64 124.236 216.857 123.459 217.287 122.795C217.717 122.132 218.339 121.615 219.072 121.313C219.804 121.01 220.612 120.937 221.387 121.103C222.162 121.269 222.868 121.665 223.412 122.24C223.955 122.815 224.309 123.541 224.428 124.322V124.322Z" fill="#FFB8B8"/>
<path d="M239.949 134.458C240.016 134.228 240.132 134.015 240.289 133.833C240.446 133.652 240.64 133.507 240.859 133.407L248.496 129.923C249.528 129.255 250.783 129.021 251.988 129.273C253.192 129.524 254.247 130.241 254.921 131.266C255.596 132.291 255.834 133.54 255.585 134.739C255.335 135.939 254.618 136.991 253.591 137.665L247.277 143.223C247.097 143.381 246.884 143.499 246.654 143.569C246.424 143.638 246.181 143.658 245.943 143.625C245.705 143.593 245.476 143.51 245.273 143.382C245.07 143.254 244.896 143.084 244.765 142.883L240.154 135.83C240.022 135.63 239.936 135.403 239.901 135.166C239.865 134.929 239.882 134.688 239.949 134.458Z" fill="#6C63FF"/>
<path d="M224.236 125.001L224.16 125.006L223.952 122.138C223.885 121.222 223.289 120.518 222.621 120.566L218.193 120.885C217.524 120.933 216.295 121.768 216.361 122.685L216.415 123.424L217.505 138.418C217.572 139.335 218.909 139.985 219.577 139.937L224.006 139.618C224.674 139.57 225.162 138.788 225.095 137.871L224.309 127.048L224.385 127.042L224.236 125.001Z" fill="#3F3D56"/>
<path d="M223.695 122.168L224.837 137.878C224.887 138.563 224.522 139.147 224.023 139.183L219.574 139.503C219.075 139.539 218.63 139.013 218.58 138.329L217.438 122.619C217.388 121.935 217.752 121.35 218.251 121.314L218.791 121.276C218.754 121.415 218.762 121.563 218.814 121.698C218.867 121.833 218.961 121.948 219.083 122.026C219.134 122.051 219.191 122.062 219.248 122.058L221.785 121.875C222.022 121.858 222.195 121.58 222.171 121.255C222.166 121.18 222.15 121.106 222.123 121.036L222.701 120.994C223.2 120.958 223.645 121.484 223.695 122.168Z" fill="white"/>
<path d="M161.268 158.444L159.8 154.146L175.755 146.465L177.921 152.808L161.268 158.444Z" fill="#FFB8B8"/>
<path d="M157.457 160.956L152.724 147.098L152.901 147.039C153.612 146.798 154.364 146.699 155.114 146.747C155.864 146.796 156.597 146.991 157.272 147.322C157.946 147.652 158.548 148.112 159.044 148.674C159.54 149.236 159.919 149.89 160.161 150.599L160.161 150.599L163.052 159.063L157.457 160.956Z" fill="#2F2E41"/>
<path d="M224.591 161.511C221.169 161.702 217.757 160.991 214.7 159.45L195.939 146.745L174.032 154.82C173.45 155.017 172.815 154.986 172.255 154.736C171.695 154.485 171.252 154.031 171.014 153.467L169.94 150.897C169.696 150.318 169.689 149.668 169.921 149.084C170.153 148.501 170.606 148.032 171.183 147.777L192.112 138.421C194.624 137.302 197.443 137.06 200.112 137.733L229.166 145.103L236.846 154.182L236.761 154.299C232.991 159.477 228.519 161.228 224.591 161.511Z" fill="#2F2E41"/>
<path d="M248.32 123.573C253.366 123.573 257.456 119.502 257.456 114.479C257.456 109.457 253.366 105.385 248.32 105.385C243.274 105.385 239.184 109.457 239.184 114.479C239.184 119.502 243.274 123.573 248.32 123.573Z" fill="#FFB8B8"/>
<path d="M238.942 158.229L224.239 147.337L234.266 140.243C233.979 139.324 232.707 134.071 239.666 130.49C241.868 129.357 243.455 128.381 244.382 127.59C245.698 126.461 247.383 125.849 249.12 125.87C250.216 125.887 251.292 126.158 252.263 126.661C253.235 127.164 254.076 127.885 254.72 128.767C255.363 129.649 255.791 130.668 255.971 131.744C256.15 132.82 256.075 133.922 255.753 134.964C254.302 139.659 251.991 145.88 249.219 148.856C246.085 152.217 242.685 155.324 239.053 158.146L238.942 158.229Z" fill="#6C63FF"/>
<path d="M163.599 162.252L162.132 157.954L178.086 150.274L180.253 156.617L163.599 162.252Z" fill="#FFB8B8"/>
<path d="M159.788 164.764L155.056 150.907L155.232 150.847C155.944 150.606 156.696 150.507 157.446 150.556C158.196 150.604 158.929 150.799 159.603 151.13C160.277 151.461 160.879 151.92 161.375 152.482C161.871 153.045 162.251 153.699 162.493 154.407L162.493 154.407L165.383 162.871L159.788 164.764Z" fill="#2F2E41"/>
<path d="M226.923 165.319C223.501 165.511 220.089 164.8 217.031 163.258L198.27 150.553L176.363 158.628C175.782 158.825 175.147 158.795 174.587 158.544C174.027 158.293 173.583 157.84 173.346 157.276L172.272 154.705C172.027 154.127 172.02 153.476 172.252 152.893C172.485 152.309 172.938 151.84 173.514 151.586L194.443 142.23C196.956 141.111 199.774 140.868 202.443 141.541L231.498 148.911L239.178 157.99L239.092 158.107C235.322 163.285 230.85 165.037 226.923 165.319Z" fill="#2F2E41"/>
<path d="M222.706 135.23C222.819 135.401 222.919 135.581 223.005 135.767L241.213 138.711L244.053 135.26L249.845 138.845L245.415 145.441C245.057 145.973 244.535 146.376 243.928 146.589C243.32 146.801 242.66 146.812 242.046 146.619L222.032 140.332C221.434 140.85 220.692 141.175 219.904 141.264C219.116 141.352 218.32 141.2 217.621 140.826C216.922 140.453 216.354 139.877 215.993 139.175C215.631 138.473 215.492 137.677 215.596 136.895C215.699 136.112 216.039 135.38 216.571 134.794C217.103 134.209 217.801 133.799 218.573 133.618C219.345 133.437 220.154 133.495 220.892 133.783C221.63 134.071 222.263 134.576 222.706 135.23V135.23Z" fill="#FFB8B8"/>
<path d="M241.092 137.776C241.053 137.54 241.066 137.298 241.13 137.067C241.194 136.836 241.307 136.622 241.462 136.438L246.866 130.035C247.51 128.992 248.544 128.245 249.741 127.959C250.938 127.673 252.199 127.872 253.249 128.51C254.3 129.149 255.052 130.176 255.343 131.366C255.633 132.557 255.438 133.813 254.799 134.86L251.484 142.574C251.389 142.794 251.248 142.991 251.07 143.152C250.892 143.313 250.681 143.434 250.452 143.506C250.222 143.579 249.98 143.601 249.741 143.572C249.503 143.543 249.273 143.463 249.068 143.337L241.867 138.929C241.662 138.804 241.487 138.636 241.353 138.437C241.219 138.238 241.13 138.012 241.092 137.776V137.776Z" fill="#6C63FF"/>
<path d="M245.878 124.494C248.532 121.095 250.004 116.928 250.072 112.622C248.822 113.547 247.408 114.227 245.904 114.626C244.307 115.05 242.552 115.135 241.049 114.453C238.933 113.494 237.682 111.047 237.922 108.744C238.162 106.442 239.76 104.386 241.841 103.353C243.971 102.362 246.401 102.215 248.636 102.944C249.818 101.942 251.266 101.3 252.805 101.095C254.344 100.891 255.91 101.132 257.315 101.791C260.549 103.371 262.337 107.03 262.648 110.602C262.958 114.174 262.036 117.727 261.122 121.195L261.018 121.587C260.734 122.667 259.907 124.738 259.907 124.738C259.907 124.738 255.102 123.795 253.194 123.19C250.427 124.185 245.878 124.494 245.878 124.494Z" fill="#2F2E41"/>
<path d="M222.977 125.366L219.062 125.648C218.964 125.655 218.867 125.623 218.792 125.559C218.718 125.495 218.672 125.404 218.664 125.306C218.657 125.208 218.69 125.111 218.754 125.037C218.819 124.962 218.91 124.917 219.009 124.91L222.923 124.628C222.972 124.624 223.021 124.63 223.067 124.645C223.114 124.661 223.157 124.685 223.194 124.717C223.231 124.748 223.261 124.787 223.283 124.831C223.305 124.874 223.318 124.922 223.322 124.97C223.325 125.019 223.319 125.068 223.304 125.114C223.288 125.16 223.264 125.203 223.232 125.24C223.2 125.276 223.161 125.306 223.117 125.328C223.073 125.35 223.026 125.363 222.977 125.366Z" fill="#3F3D56"/>
<path d="M223.111 127.213L219.197 127.495C219.148 127.498 219.099 127.492 219.052 127.477C219.006 127.462 218.963 127.438 218.926 127.406C218.889 127.374 218.859 127.335 218.837 127.292C218.815 127.248 218.802 127.201 218.798 127.152C218.794 127.104 218.801 127.055 218.816 127.009C218.831 126.962 218.856 126.92 218.888 126.883C218.92 126.846 218.959 126.816 219.003 126.794C219.047 126.772 219.094 126.759 219.143 126.756L223.057 126.474C223.156 126.467 223.253 126.499 223.328 126.563C223.402 126.628 223.448 126.719 223.455 126.817C223.462 126.915 223.43 127.011 223.366 127.086C223.301 127.16 223.209 127.206 223.111 127.213V127.213Z" fill="#3F3D56"/>
<path d="M223.245 129.059L219.331 129.341C219.232 129.348 219.135 129.316 219.061 129.251C218.987 129.187 218.941 129.096 218.934 128.998C218.927 128.901 218.959 128.804 219.023 128.73C219.087 128.656 219.179 128.61 219.277 128.602L223.191 128.321C223.29 128.313 223.387 128.346 223.462 128.41C223.536 128.474 223.582 128.565 223.589 128.663C223.596 128.761 223.564 128.858 223.5 128.932C223.435 129.006 223.344 129.052 223.245 129.059V129.059Z" fill="#3F3D56"/>
<path d="M336.625 201.991H0.371961C0.273311 201.991 0.178701 201.952 0.108945 201.882C0.0391884 201.813 0 201.718 0 201.62C0 201.522 0.0391884 201.428 0.108945 201.358C0.178701 201.289 0.273311 201.25 0.371961 201.25H336.625C336.723 201.25 336.818 201.289 336.888 201.358C336.957 201.428 336.997 201.522 336.997 201.62C336.997 201.718 336.957 201.813 336.888 201.882C336.818 201.952 336.723 201.991 336.625 201.991Z" fill="#3F3D56"/>
<path d="M178.831 78.6921H141.263C140.376 78.6911 139.525 78.3397 138.897 77.7149C138.27 77.0902 137.917 76.2432 137.916 75.3597V43.1466C137.917 42.2631 138.27 41.4161 138.897 40.7914C139.525 40.1666 140.376 39.8152 141.263 39.8142H178.831C179.719 39.8152 180.57 40.1666 181.197 40.7914C181.825 41.4161 182.178 42.2631 182.179 43.1466V75.3597C182.178 76.2432 181.825 77.0902 181.197 77.7149C180.57 78.3396 179.719 78.6911 178.831 78.6921V78.6921ZM141.263 40.5547C140.573 40.5555 139.911 40.8288 139.423 41.3147C138.935 41.8006 138.66 42.4594 138.659 43.1466V75.3597C138.66 76.0469 138.935 76.7057 139.423 77.1916C139.911 77.6775 140.573 77.9508 141.263 77.9515H178.831C179.522 77.9508 180.183 77.6775 180.672 77.1916C181.16 76.7057 181.434 76.0469 181.435 75.3597V43.1466C181.434 42.4594 181.16 41.8006 180.672 41.3147C180.183 40.8288 179.522 40.5555 178.831 40.5547H141.263Z" fill="#F2F2F2"/>
<path d="M173.338 73.6935H146.756C145.918 73.6925 145.114 73.3606 144.521 72.7706C143.929 72.1806 143.595 71.3806 143.594 70.5462V47.96C143.595 47.1256 143.929 46.3256 144.521 45.7356C145.114 45.1456 145.918 44.8137 146.756 44.8127H173.338C174.177 44.8137 174.98 45.1456 175.573 45.7356C176.166 46.3256 176.499 47.1256 176.5 47.96V70.5462C176.499 71.3806 176.166 72.1806 175.573 72.7706C174.98 73.3606 174.177 73.6925 173.338 73.6935V73.6935Z" fill="#E6E6E6"/>
<path d="M160.233 35.0007C161.26 35.0007 162.093 34.1719 162.093 33.1494C162.093 32.127 161.26 31.2981 160.233 31.2981C159.206 31.2981 158.373 32.127 158.373 33.1494C158.373 34.1719 159.206 35.0007 160.233 35.0007Z" fill="#F2F2F2"/>
<path d="M164.143 40.3748L160.234 33.8718L156.347 40.3736L155.708 39.9952L160.232 32.427L164.782 39.9941L164.143 40.3748Z" fill="#F2F2F2"/>
<path d="M164.511 56.6613C164.51 56.1009 164.448 55.5423 164.326 54.9951H158.745C158.351 54.9951 157.972 55.1512 157.693 55.4289C157.414 55.7067 157.257 56.0834 157.257 56.4762V64.4088C159.227 64.2697 161.069 63.3932 162.415 61.9556C163.761 60.5181 164.51 58.6263 164.511 56.6613V56.6613Z" fill="#6C63FF"/>
<path d="M156.699 64.8071C155.156 64.8076 153.644 64.3737 152.338 63.5553C151.031 62.7369 149.984 61.5674 149.317 60.182C148.65 58.7965 148.39 57.2515 148.568 55.7252C148.745 54.199 149.352 52.7539 150.32 51.5565C151.287 50.3592 152.574 49.4586 154.034 48.9587C155.493 48.4588 157.065 48.3799 158.567 48.7311C160.07 49.0824 161.442 49.8495 162.525 50.9439C163.609 52.0383 164.359 53.4153 164.69 54.916L164.788 55.3653H158.745C158.449 55.3656 158.166 55.4828 157.957 55.691C157.747 55.8993 157.63 56.1816 157.629 56.4761V64.7537L157.219 64.7827C157.047 64.7951 156.875 64.8071 156.699 64.8071ZM156.699 49.2559C154.726 49.2559 152.834 50.0361 151.439 51.4249C150.044 52.8137 149.26 54.6972 149.26 56.6612C149.26 58.6252 150.044 60.5088 151.439 61.8976C152.834 63.2863 154.726 64.0665 156.699 64.0665C156.762 64.0665 156.824 64.0647 156.885 64.0618V56.4761C156.886 55.9853 157.082 55.5147 157.431 55.1676C157.779 54.8206 158.252 54.6253 158.745 54.6248H163.849C163.399 53.0819 162.459 51.7255 161.17 50.7579C159.882 49.7903 158.314 49.2634 156.699 49.2559Z" fill="white"/>
<path d="M167.672 67.214H158.745C158.252 67.2135 157.78 67.0182 157.431 66.6712C157.082 66.3241 156.886 65.8535 156.885 65.3627V64.0641L157.231 64.0397C158.296 63.9665 159.333 63.6654 160.27 63.157C161.207 62.6486 162.023 61.9448 162.662 61.0937C163.301 60.2426 163.748 59.2642 163.973 58.2254C164.197 57.1866 164.194 56.1118 163.963 55.0745L163.864 54.625H167.672C168.165 54.6256 168.638 54.8208 168.987 55.1679C169.336 55.5149 169.532 55.9855 169.532 56.4763V65.3627C169.532 65.8535 169.336 66.3241 168.987 66.6712C168.638 67.0182 168.165 67.2135 167.672 67.214V67.214ZM157.629 64.7466V65.3627C157.63 65.6572 157.747 65.9395 157.957 66.1478C158.166 66.356 158.449 66.4732 158.745 66.4735H167.672C167.968 66.4732 168.252 66.356 168.461 66.1478C168.67 65.9395 168.788 65.6572 168.788 65.3627V56.4763C168.788 56.1818 168.67 55.8995 168.461 55.6912C168.252 55.483 167.968 55.3659 167.672 55.3655H164.776C164.846 55.7939 164.882 56.2273 164.883 56.6615C164.876 58.6588 164.134 60.5845 162.797 62.0743C161.461 63.5641 159.622 64.5148 157.629 64.7466Z" fill="white"/>
</g>
<defs>
<linearGradient id="paint0_linear" x1="144.521" y1="0.982422" x2="373.777" y2="87.7905" gradientUnits="userSpaceOnUse">
<stop stop-color="#624AF2"/>
<stop offset="1" stop-color="#50DDC3"/>
</linearGradient>
<clipPath id="clip0">
<rect width="336.997" height="189.021" fill="white" transform="translate(0 12.97)"/>
</clipPath>
</defs>
</svg>
