<svg width="345" height="212" viewBox="0 0 345 212" fill="none" xmlns="http://www.w3.org/2000/svg">
<rect opacity="0.75" x="0.367661" y="73.1185" width="343.189" height="138.682" rx="38" transform="rotate(-0.295233 0.367661 73.1185)" fill="url(#paint0_linear)"/>
<g clip-path="url(#clip0)">
<path d="M257.875 141.892C243.69 141.965 232.07 118.557 231.92 89.6093C231.771 60.6611 243.15 37.1347 257.335 37.0616C271.52 36.9885 283.141 60.3964 283.29 89.3446C283.439 118.293 272.06 141.819 257.875 141.892Z" fill="#6C63FF"/>
<path d="M257.844 90.0193C256.445 67.2099 253.784 51.8117 253.757 51.6589L254.317 51.5611C254.344 51.7141 257.009 67.137 258.41 89.9758C259.703 111.055 260.153 142.945 254.954 175.168L254.393 175.078C259.584 142.91 259.134 111.067 257.844 90.0193Z" fill="#3F3D56"/>
<path d="M234.594 78.9654L257.881 91.2773L257.616 91.7797L234.329 79.4678L234.594 78.9654Z" fill="#3F3D56"/>
<path d="M282.097 84.9515L282.368 85.4512L259.205 97.9962L258.935 97.4965L282.097 84.9515Z" fill="#3F3D56"/>
<path d="M79.7467 137.361C61.3438 137.456 46.2683 107.088 46.0748 69.5327C45.8813 31.9774 60.643 1.45586 79.046 1.36103C97.4489 1.2662 112.524 31.634 112.718 69.1893C112.911 106.745 98.1497 137.266 79.7467 137.361Z" fill="#6C63FF"/>
<path d="M79.8047 70.0555C77.9897 40.4594 74.537 20.4798 74.5023 20.2814L75.0329 20.1887C75.0675 20.3872 78.5247 40.3902 80.3418 70.0142C82.019 97.3556 82.6027 138.721 75.8591 180.515L75.3274 180.43C82.0626 138.687 81.4796 97.3676 79.8047 70.0555Z" fill="#3F3D56"/>
<path d="M49.4971 55.8119L79.7082 71.7845L79.4564 72.2608L49.2454 56.2881L49.4971 55.8119Z" fill="#3F3D56"/>
<path d="M111.218 63.5772L111.474 64.051L81.425 80.326L81.1685 79.8523L111.218 63.5772Z" fill="#3F3D56"/>
<path d="M119.989 155.571C113.113 155.607 107.48 144.261 107.408 130.229C107.336 116.197 112.851 104.794 119.727 104.758C126.603 104.723 132.235 116.069 132.307 130.101C132.38 144.132 126.864 155.536 119.989 155.571Z" fill="#E6E6E6"/>
<path d="M119.874 131.259L119.801 131.398L108.514 125.43L108.765 124.953L119.848 130.813C119.179 119.557 117.889 112.005 117.863 111.856L118.393 111.764C118.422 111.926 119.954 120.894 120.549 133.879L131.666 127.854L131.922 128.328L120.697 134.412L120.561 134.161C121.038 144.878 120.871 158.283 118.703 171.722L118.171 171.636C120.535 156.984 120.513 142.371 119.874 131.259Z" fill="#3F3D56"/>
<path d="M57.0624 186.191C123.267 164.854 183.403 165.663 222.193 170.099C264.217 174.904 290.919 184.879 291.184 184.979L291.374 184.476C291.109 184.375 264.344 174.376 222.254 169.563C197.496 166.736 172.528 166.226 147.675 168.04C116.822 170.288 86.3476 176.209 56.8972 185.678L57.0624 186.191Z" fill="#3F3D56"/>
<path d="M206.107 179.489C206.107 179.489 205.901 175.593 202.091 176.066Z" fill="#3F3D56"/>
<path d="M207.165 175.775C206.111 175.78 205.252 174.93 205.247 173.876C205.242 172.822 206.091 171.964 207.145 171.958C208.199 171.953 209.058 172.803 209.063 173.857C209.069 174.911 208.219 175.77 207.165 175.775Z" fill="#6C63FF"/>
<path d="M206.944 177.081L207.482 177.079L207.502 180.85L206.963 180.852L206.944 177.081Z" fill="#3F3D56"/>
<path d="M136.629 180.655C136.629 180.655 136.423 176.759 132.613 177.232Z" fill="#3F3D56"/>
<path d="M137.687 176.941C136.633 176.946 135.775 176.096 135.769 175.042C135.764 173.988 136.614 173.13 137.668 173.124C138.721 173.119 139.58 173.969 139.586 175.023C139.591 176.077 138.741 176.936 137.687 176.941Z" fill="#6C63FF"/>
<path d="M137.466 178.247L138.004 178.245L138.024 182.016L137.485 182.018L137.466 178.247Z" fill="#3F3D56"/>
<path d="M251.051 173.332C251.051 173.332 250.845 169.435 247.035 169.908Z" fill="#3F3D56"/>
<path d="M252.109 169.617C251.055 169.623 250.197 168.773 250.191 167.719C250.186 166.665 251.036 165.806 252.089 165.801C253.143 165.795 254.002 166.645 254.007 167.699C254.013 168.753 253.163 169.612 252.109 169.617Z" fill="#6C63FF"/>
<path d="M251.888 170.924L252.426 170.921L252.446 174.692L251.907 174.695L251.888 170.924Z" fill="#3F3D56"/>
<path d="M221.67 168.365C221.67 168.365 221.464 164.469 217.654 164.942Z" fill="#3F3D56"/>
<path d="M222.728 164.651C221.674 164.657 220.815 163.806 220.81 162.752C220.805 161.698 221.655 160.84 222.708 160.834C223.762 160.829 224.621 161.679 224.626 162.733C224.632 163.787 223.782 164.646 222.728 164.651Z" fill="#6C63FF"/>
<path d="M222.507 165.958L223.045 165.955L223.065 169.726L222.526 169.728L222.507 165.958Z" fill="#3F3D56"/>
<path d="M148.186 176.017C148.186 176.017 147.98 172.12 144.17 172.593Z" fill="#3F3D56"/>
<path d="M149.244 172.302C148.19 172.308 147.331 171.458 147.326 170.404C147.321 169.35 148.17 168.491 149.224 168.486C150.278 168.48 151.137 169.33 151.142 170.384C151.148 171.438 150.298 172.297 149.244 172.302Z" fill="#6C63FF"/>
<path d="M149.023 173.609L149.561 173.606L149.581 177.377L149.042 177.38L149.023 173.609Z" fill="#3F3D56"/>
<path d="M65.3324 168.63L54.3328 185.125L64.7059 195.394L66.0298 192.711L63.709 187.371C63.709 187.371 64.0656 182.399 65.3964 181.054C66.7273 179.71 72.6103 171.651 72.6103 171.651L65.3324 168.63Z" fill="#FFB8B8"/>
<path d="M79.2007 115.421C79.2007 115.421 77.116 118.759 81.5854 133.072C81.5854 133.072 61.2612 167.786 64.5219 170.063C67.7825 172.34 76.6004 177.37 78.8858 175.829C81.1712 174.289 97.5836 122.399 97.5836 122.399L79.2007 115.421Z" fill="#2F2E41"/>
<path d="M56.3242 182.152L52.997 185.515C51.2859 187.244 50.152 189.734 53.4117 191.82C56.6714 193.906 67.9872 201.685 71.7966 199.18C75.606 196.676 67.1854 194.425 67.1854 194.425C67.1854 194.425 65.7684 189.276 65.0362 190.425C64.304 191.573 64.3158 193.867 64.3158 193.867L56.3242 182.152Z" fill="#2F2E41"/>
<path d="M96.7206 177.452C96.7206 177.452 102.894 188.698 102.901 190.036C102.908 191.374 102.545 195.199 102.545 195.199L114.218 198.006L118.221 196.074L116.866 192.64C116.866 192.64 109.591 190.193 108.037 185.422C106.484 180.652 104.738 175.691 104.738 175.691L96.7206 177.452Z" fill="#FFB8B8"/>
<path d="M89.0714 65.2906C84.6384 65.3134 81.0263 61.7378 81.0034 57.3041C80.9806 52.8705 84.5557 49.2578 88.9887 49.235C93.4216 49.2121 97.0337 52.7878 97.0566 57.2214C97.0794 61.6551 93.5043 65.2678 89.0714 65.2906Z" fill="#FFB8B8"/>
<path d="M91.1677 64.133L87.3923 75.1652L78.9742 71.4593C78.9742 71.4593 84.6621 62.6373 84.6562 61.4905L91.1677 64.133Z" fill="#FFB8B8"/>
<path d="M92.5162 103.31L82.3875 103.363C82.3875 103.363 75.1825 114.486 79.4469 126.124C80.1 127.906 80.752 130.404 81.4052 133.357C82.9073 140.15 84.4154 149.354 85.956 157.811C88.1198 169.69 90.3475 180.095 92.712 180.271C97.4917 180.629 106.782 180.517 106.772 178.606C106.762 176.695 100.254 121.429 100.254 121.429L98.9046 119.142L98.6003 109.153C98.5522 107.576 97.8882 106.082 96.7508 104.989C95.6133 103.897 94.093 103.294 92.5162 103.31V103.31Z" fill="#2F2E41"/>
<path d="M102.996 189.94C102.996 189.94 100.818 193.679 101.405 196.352C101.992 199.025 102.945 198.637 107.152 198.998C111.358 199.359 125.691 199.285 125.678 196.609C125.664 193.933 114.465 190.515 114.423 191.584C114.381 192.653 114.01 194.757 115.159 195.134C116.307 195.51 115.255 195.229 115.255 195.229L102.996 189.94Z" fill="#2F2E41"/>
<path d="M91.4909 127.173C91.4909 127.173 92.3923 140.747 97.9162 136.676C103.44 132.606 95.697 125.344 95.697 125.344L91.4909 127.173Z" fill="white"/>
<path d="M80.3322 109.348C80.0663 109.47 79.7724 109.517 79.4819 109.484C79.1914 109.451 78.9154 109.34 78.6834 109.162C78.3466 108.9 78.1213 108.521 78.0527 108.1C77.2273 103.482 76.1852 90.6729 75.5896 84.1962C74.8423 76.0692 78.3335 69.7536 78.3628 69.7152L80.4246 66.8488C80.6387 66.5494 80.9479 66.3312 81.3018 66.2299C81.6557 66.1286 82.0335 66.1501 82.3737 66.2909C82.3737 66.2909 88.891 72.9844 88.9162 73.244C89.0237 74.3587 89.8079 76.8263 93.8502 80.8277C98.273 85.2059 98.3173 89.0467 98.2254 90.1197C98.2193 90.1902 98.2164 90.2607 98.2166 90.3311C98.2275 90.8122 98.1646 91.2921 98.0302 91.7541C96.2171 97.575 97.6963 104.525 100.051 111.776C100.141 112.103 100.126 112.451 100.01 112.77C99.8932 113.089 99.6802 113.364 99.4005 113.557C98.7259 114.021 99.5342 113.333 99.2942 113.63C97.7069 115.596 95.3942 112.879 92.7494 109.916C91.8281 108.884 90.7838 107.713 89.554 106.496C87.863 104.822 84.6684 108.678 83.1739 108.686C82.1904 108.703 81.2218 108.929 80.3322 109.348V109.348Z" fill="#575A89"/>
<path d="M79.2519 72.6756C79.2519 72.6756 75.072 76.2382 77.4807 80.8183C79.8894 85.3983 79.5898 88.787 79.5898 88.787C79.5898 88.787 80.3873 120.331 87.8319 118.76L91.2701 128.103L97.381 125.862L93.7983 117.624C93.7983 117.624 96.6329 117.433 95.7944 115.505C95.2054 114.15 91.9943 99.4385 90.1349 90.8008C89.347 87.1405 88.8018 84.5709 88.8018 84.5709C88.8018 84.5709 86.3232 71.6837 79.2519 72.6756Z" fill="#575A89"/>
<path opacity="0.2" d="M78.454 88.7119L80.8943 104.19L79.5354 87.6332L78.454 88.7119Z" fill="black"/>
<path d="M97.7689 53.6607C97.7689 53.6607 99.0642 43.1503 88.0716 46.6514C88.0716 46.6514 80.2005 45.2488 77.6724 55.0999L75.1143 65.4257L76.3833 64.7264L76.9833 66.0204L79.0481 66.5321L79.9216 64.7758L80.3594 66.9009L97.2584 68.4979C97.2584 68.4979 89.6705 64.0624 89.5092 56.0437L90.958 57.5593L97.7689 53.6607Z" fill="#2F2E41"/>
<path opacity="0.2" d="M85.7478 158.416L81.8521 133.336L85.0549 160.416L85.7478 158.416Z" fill="black"/>
<path d="M79.0392 51.0486C76.6936 51.0607 74.7823 49.1687 74.7702 46.8227C74.7581 44.4768 76.6498 42.5652 78.9954 42.5531C81.341 42.541 83.2522 44.433 83.2643 46.779C83.2764 49.1249 81.3847 51.0365 79.0392 51.0486Z" fill="#2F2E41"/>
<path d="M83.3882 45.7384C83.3128 44.661 82.8297 43.6529 82.0372 42.9194C81.2447 42.1858 80.2024 41.782 79.1227 41.7902C79.2103 41.7786 79.2972 41.7646 79.3865 41.7584C79.9431 41.7194 80.5019 41.7905 81.031 41.9676C81.56 42.1447 82.0491 42.4243 82.4701 42.7905C82.8911 43.1567 83.2358 43.6022 83.4846 44.1017C83.7334 44.6012 83.8813 45.1447 83.92 45.7014C83.9586 46.2581 83.8873 46.8169 83.7099 47.346C83.5326 47.8751 83.2528 48.364 82.8864 48.7849C82.5201 49.2058 82.0744 49.5503 81.5749 49.7989C81.0754 50.0474 80.5318 50.1951 79.9752 50.2335C79.8858 50.2397 79.7979 50.2379 79.7095 50.2385C80.78 50.0973 81.7564 49.5532 82.4399 48.7171C83.1234 47.881 83.4625 46.8158 83.3882 45.7384V45.7384Z" fill="#2F2E41"/>
<path opacity="0.2" d="M91.3782 93.4726L95.2181 113.484L90.2608 91.3849L91.3782 93.4726Z" fill="black"/>
<path d="M90.9884 63.038L93.1747 64.669C95.4118 63.5286 97.0806 60.9079 97.6792 58.4118L95.2998 57.2264C95.1263 59.7701 93.3304 61.4698 90.9884 63.038Z" fill="white"/>
<path d="M90.056 57.6152L95.4825 57.5873C95.5305 57.587 95.5764 57.5677 95.6101 57.5336C95.6439 57.4995 95.6627 57.4534 95.6625 57.4054C95.6622 57.3574 95.6429 57.3115 95.6088 57.2778C95.5747 57.244 95.5286 57.2252 95.4806 57.2254L90.0541 57.2534C90.0061 57.2536 89.9602 57.2729 89.9265 57.307C89.8927 57.3411 89.8739 57.3873 89.8742 57.4352C89.8744 57.4832 89.8937 57.5291 89.9278 57.5629C89.9619 57.5967 90.008 57.6155 90.056 57.6152V57.6152Z" fill="white"/>
<path d="M91.1693 63.037C91.1988 63.0368 91.2279 63.0295 91.2539 63.0155C91.2799 63.0015 91.3022 62.9813 91.3186 62.9567C91.335 62.9322 91.3452 62.904 91.3482 62.8745C91.3512 62.8451 91.3469 62.8154 91.3358 62.7881L89.8701 59.1773C89.8612 59.1552 89.8481 59.1351 89.8314 59.1181C89.8147 59.1011 89.7949 59.0876 89.773 59.0783C89.7511 59.069 89.7276 59.0641 89.7038 59.0639C89.68 59.0637 89.6564 59.0683 89.6344 59.0772C89.6123 59.0862 89.5923 59.0994 89.5754 59.1161C89.5584 59.1328 89.545 59.1527 89.5358 59.1746C89.5266 59.1966 89.5217 59.2201 89.5216 59.2439C89.5215 59.2677 89.5261 59.2913 89.5351 59.3133L91.0009 62.9241C91.0144 62.9576 91.0377 62.9863 91.0677 63.0064C91.0977 63.0265 91.1331 63.0372 91.1693 63.037V63.037Z" fill="white"/>
<path d="M89.702 59.7548C88.969 59.7586 88.3705 58.9296 88.3652 57.9032C88.3599 56.8769 88.9498 56.0418 89.6828 56.038C90.4158 56.0343 91.0143 56.8632 91.0196 57.8896C91.0249 58.9159 90.4349 59.751 89.702 59.7548Z" fill="#FFB8B8"/>
<path d="M183.24 63.0125L169.121 66.3205L163.091 55.0857L175.153 50.3038L183.24 63.0125Z" fill="#2F2E41"/>
<path d="M176.042 123.696C176.042 123.696 180.64 134.087 180.655 137.116C180.655 137.116 178.899 145.362 179.479 147.631L181.489 151.882L185.645 150.156L186.722 138.789L186.439 120.613L176.042 123.696Z" fill="#FFB9B9"/>
<path d="M173.165 61.4133C173.165 61.4133 172.819 67.6638 173.586 69.5533C174.353 71.4429 170.775 75.0591 170.775 75.0591L165.057 67.7038C165.057 67.7038 168.824 63.8973 167.856 59.7365L173.165 61.4133Z" fill="#FFB9B9"/>
<path d="M185.221 104.619C185.221 104.619 190.764 114.815 185.459 114.085C180.154 113.355 181.906 104.352 181.906 104.352" fill="#E6E6E6"/>
<path d="M181.906 104.352L180.016 86.4674L180.054 75.5795L184.223 76.3152L184.275 86.3507L185.221 104.619" fill="#FFB9B9"/>
<path d="M186.679 148.825L178.522 145.648L177.658 161.748C177.658 161.748 175.98 166.68 176.557 168.57C176.557 168.57 176.195 171.791 177.143 171.975C178.091 172.16 180.743 172.525 180.931 172.335C181.12 172.144 181.117 171.576 181.117 171.576C181.117 171.576 183.017 172.892 183.214 174.406C183.214 174.406 191.178 176.826 191.356 174.553C191.533 172.28 187.358 170.408 187.358 170.408L184.115 165.502L186.679 148.825Z" fill="#2F2E41"/>
<path d="M159.098 123.783C159.098 123.783 163.695 134.174 163.711 137.203C163.711 137.203 161.955 145.449 162.535 147.719L164.544 151.969L168.701 150.243L169.778 138.876L169.495 120.7L159.098 123.783Z" fill="#FFB9B9"/>
<path d="M169.451 148.914L161.294 145.737L160.43 161.837C160.43 161.837 158.752 166.768 159.329 168.659C159.329 168.659 158.967 171.88 159.915 172.064C160.862 172.249 163.515 172.614 163.703 172.423C163.892 172.233 163.889 171.665 163.889 171.665C163.889 171.665 165.789 172.981 165.986 174.495C165.986 174.495 173.95 176.915 174.128 174.642C174.305 172.369 170.13 170.497 170.13 170.497L166.887 165.59L169.451 148.914Z" fill="#2F2E41"/>
<path d="M165.19 57.1001C165.199 58.5913 165.756 60.027 166.757 61.1326C167.757 62.2381 169.13 62.9359 170.613 63.0924C172.096 63.2489 173.584 62.8531 174.793 61.9807C176.002 61.1084 176.848 59.8207 177.167 58.3642C177.264 57.9288 177.312 57.4838 177.308 57.0377C177.299 55.4312 176.652 53.8941 175.51 52.7644C174.368 51.6347 172.824 51.0047 171.218 51.013C169.612 51.0212 168.075 51.6671 166.944 52.8085C165.814 53.95 165.183 55.4936 165.19 57.1001V57.1001Z" fill="#FFB9B9"/>
<path d="M170.555 69.1902L165.841 66.7727L163.736 68.4679C163.736 68.4679 158.623 68.3049 156.741 70.5869C154.86 72.8688 153.848 78.6493 153.848 78.6493C153.848 78.6493 160.089 77.2917 159.359 82.5974L160.48 79.5619L161.534 82.1128L174.241 86.4025L179.871 76.7164C179.871 76.7164 183.651 75.5608 184.99 78.2048C184.99 78.2048 184.657 68.6442 180.964 68.3792C178.48 68.201 176.608 68.2123 176.608 68.2123L174.524 67.8443L173.188 67.3778L170.555 69.1902Z" fill="#575A89"/>
<path d="M162.616 89.9654C162.616 89.9654 152.83 119.839 155.691 123.99C155.691 123.99 166.321 129.237 187.487 121.933L178.701 88.5571C173.404 87.5021 168.042 87.9715 162.616 89.9654Z" fill="#2F2E41"/>
<path d="M162.616 89.9654L159.769 80.3655C163.106 76.6984 160.168 68.62 160.168 68.62L164.212 67.7314C164.212 67.7314 168.332 78.6694 172.49 77.3225C176.648 75.9756 174.333 67.4666 174.333 67.4666L178.121 67.8258L179.859 74.4442L178.701 88.5571C173.567 88.1432 168.187 88.6833 162.616 89.9654Z" fill="#575A89"/>
<path d="M157.768 104.476L156.35 86.4946L155.916 75.7039L160.085 76.4396L160.136 86.4751L161.083 104.743" fill="#FFB9B9"/>
<path d="M161.083 104.743C161.083 104.743 166.626 114.94 161.321 114.209C156.016 113.479 157.768 104.476 157.768 104.476" fill="white"/>
<path d="M153.848 78.6494C153.848 78.6494 154.471 68.9217 160.099 68.9264L160.157 80.1719C160.157 80.1719 155.926 77.6919 153.848 78.6494Z" fill="#575A89"/>
<path d="M169.32 58.6425C169.352 58.6424 169.383 58.6323 169.409 58.6136C169.435 58.595 169.455 58.5687 169.465 58.5384C169.476 58.5081 169.477 58.4754 169.468 58.4446C169.459 58.4139 169.44 58.3867 169.415 58.3668L166.313 55.9105C166.297 55.8978 166.279 55.8883 166.259 55.8826C166.239 55.877 166.219 55.8752 166.199 55.8775C166.178 55.8798 166.159 55.8861 166.141 55.896C166.123 55.9059 166.107 55.9192 166.095 55.9352C166.082 55.9512 166.073 55.9695 166.067 55.9891C166.062 56.0087 166.06 56.0292 166.063 56.0495C166.065 56.0697 166.071 56.0893 166.081 56.1071C166.091 56.1248 166.105 56.1404 166.121 56.153L169.223 58.6092C169.251 58.631 169.285 58.6427 169.32 58.6425Z" fill="white"/>
<path d="M169.105 62.3521C169.174 62.4351 169.242 62.5182 169.314 62.5951C170.135 62.9626 171.029 63.1424 171.929 63.1214C172.828 63.1004 173.712 62.8792 174.516 62.4737C175.32 62.0683 176.023 61.4888 176.575 60.7775C177.126 60.0661 177.513 59.2408 177.706 58.3614L174.775 57.8378L169.085 58.4058C170.397 59.9875 170.242 60.5383 169.105 62.3521Z" fill="white"/>
<path d="M174.627 48.5695C174.627 48.5695 177.761 49.1425 178.505 53.0446C178.622 53.7027 178.646 54.3738 178.577 55.0386C178.508 55.7908 178.621 57.3782 180.263 59.2396C181.335 60.4469 182.333 61.7164 183.255 63.0417V63.0417L179.987 63.9297L178.498 58.5155C177.775 55.8906 176.671 53.3863 175.219 51.0833L175.189 51.0352C175.189 51.0352 174.117 53.9449 171.206 54.358L172.098 53.1708C172.098 53.1708 168.704 55.1569 166.778 55.7682C166.558 55.838 166.361 55.9665 166.209 56.1398C166.057 56.313 165.955 56.5246 165.914 56.7516C165.873 56.9785 165.895 57.2124 165.977 57.4279C166.059 57.6434 166.198 57.8325 166.38 57.9746C166.394 57.9853 166.408 57.996 166.422 58.0067C167.846 59.0773 170.754 61.6342 169.623 64.128C168.493 66.6218 169.829 67.0686 169.829 67.0686L167.365 66.1456L166.237 65.6693L166.355 66.501L160.861 66.6445C160.861 66.6445 159.376 66.6431 161.993 62.6657C161.993 62.6657 162.622 61.1761 162.093 60.0433C161.67 59.1855 161.456 58.2393 161.47 57.2827C161.616 53.2855 163.257 45.1467 174.627 48.5695Z" fill="#2F2E41"/>
<path d="M252.29 162.006C252.29 162.006 252.422 187.719 258.357 194.433C258.357 194.433 259.639 197.798 260.067 199.061C260.306 199.779 260.591 200.482 260.921 201.164L260.929 202.85C260.929 202.85 272.302 201.527 273.551 198.57L271.431 196.052C271.431 196.052 271.007 195.632 271.422 194.365C271.837 193.099 270.573 193.105 270.573 193.105L267.588 186.376L267.866 158.554L265.561 120.206L247.434 119.456L252.29 162.006Z" fill="#2F2E41"/>
<path d="M261.759 200.317C261.759 200.317 258.855 209.184 261.807 209.59C264.759 209.996 290.47 210.286 290.032 206.916C289.593 203.546 281.166 204.01 281.166 204.01L272.287 198.576L261.759 200.317Z" fill="#2F2E41"/>
<path d="M235.216 120.362C235.216 120.362 234.402 125.846 237.804 131.73C241.206 137.614 239.201 157.437 239.201 157.437L209.412 183.725C209.412 183.725 215.364 193.811 217.469 193.379C219.575 192.947 252.731 165.798 252.731 165.798L265.57 121.892L235.216 120.362Z" fill="#2F2E41"/>
<path d="M209.817 182.606C209.817 182.606 200.774 184.9 202.011 187.611C203.249 190.323 216.769 212.197 219.38 210.022C221.991 207.847 217.087 200.978 217.087 200.978L216.923 190.568L209.817 182.606Z" fill="#2F2E41"/>
<path d="M241.556 41.9254C241.564 44.1461 242.338 46.2959 243.748 48.0115C244.863 49.3789 246.33 50.4152 247.992 51.0082C249.653 51.6012 251.445 51.7283 253.174 51.3759C254.039 51.2039 254.876 50.911 255.66 50.5058C256.905 49.8701 257.998 48.9725 258.863 47.8745C259.728 46.7766 260.346 45.5043 260.673 44.1451C260.858 43.3858 260.948 42.6068 260.943 41.8255C260.93 39.2541 259.896 36.7934 258.069 34.9845C256.241 33.1757 253.77 32.167 251.199 32.1802C248.628 32.1934 246.168 33.2276 244.36 35.0552C242.551 36.8828 241.542 39.354 241.556 41.9254V41.9254Z" fill="#A0616A"/>
<path d="M243.64 45.3348L244.133 57.8082L252.306 60.9894C252.306 60.9894 253.04 48.211 254.165 47.497C255.291 46.783 243.64 45.3348 243.64 45.3348Z" fill="#A0616A"/>
<path d="M254.306 62.5141C254.306 62.5141 242.868 51.1916 239.92 51.6284C236.972 52.0651 236.978 53.3297 236.983 54.1727C236.987 55.0157 237.832 55.4329 236.991 55.8588C236.151 56.2846 235.305 55.8675 235.312 57.132C235.319 58.3966 227.797 71.0813 230.398 84.9785C232.998 98.8756 235.983 105.605 234.758 113.199C233.533 120.793 234.384 122.474 234.384 122.474C234.384 122.474 266.006 124.841 266.413 121.888C266.819 118.935 265.142 120.63 267.238 118.511C269.335 116.393 268.492 116.397 268.485 115.133C268.479 113.868 258.942 62.4902 254.306 62.5141Z" fill="#575A89"/>
<path d="M248.701 119.871C248.701 119.871 253.821 132.069 257.599 129.099C261.377 126.129 255.846 116.041 255.846 116.041L248.701 119.871Z" fill="white"/>
<path d="M236.187 63.4505C236.187 63.4505 226.291 64.6354 230.072 82.8072C233.852 100.979 248.29 121.981 248.29 121.981L257.96 117.294L245.188 92.4899L248.058 76.8784C248.058 76.8784 249.668 62.1165 236.187 63.4505Z" fill="#575A89"/>
<path opacity="0.2" d="M244.978 92.7017L259.006 115.814L257.748 117.085L244.978 92.7017Z" fill="black"/>
<path opacity="0.2" d="M237.672 103.543L248.921 121.767L245.128 121.787L237.672 103.543Z" fill="black"/>
<path opacity="0.2" d="M263.041 136.636L263.602 136.846L252.662 165.987L252.1 165.776L263.041 136.636Z" fill="black"/>
<path d="M254.258 64.8288C253.927 64.8305 253.657 64.5634 253.655 64.2323C253.654 63.9011 253.921 63.6313 254.252 63.6296C254.583 63.6278 254.853 63.8949 254.854 64.2261C254.856 64.5573 254.589 64.8271 254.258 64.8288Z" fill="#D0CDE1"/>
<path d="M259.438 80.9929C259.373 80.9932 259.311 80.973 259.259 80.9352C259.208 80.8975 259.169 80.8441 259.15 80.783L253.969 64.3192C253.957 64.2816 253.953 64.2421 253.956 64.2028C253.959 64.1636 253.971 64.1253 253.989 64.0904C254.007 64.0554 254.032 64.0244 254.062 63.999C254.092 63.9737 254.127 63.9545 254.165 63.9427C254.202 63.9309 254.242 63.9266 254.281 63.93C254.32 63.9335 254.358 63.9447 254.393 63.9629C254.428 63.9812 254.459 64.0061 254.485 64.0363C254.51 64.0666 254.529 64.1015 254.541 64.1391L259.722 80.6032C259.736 80.648 259.739 80.6954 259.732 80.7417C259.724 80.788 259.706 80.8318 259.678 80.8697C259.65 80.9076 259.614 80.9385 259.572 80.9599C259.531 80.9813 259.484 80.9926 259.438 80.9929L259.438 80.9929Z" fill="#D0CDE1"/>
<path d="M253.231 49.2908L255.666 51.5833C258.154 50.3147 260.546 46.9188 261.212 44.1424L258.027 42.8266C257.834 45.6559 255.836 47.5465 253.231 49.2908Z" fill="white"/>
<path d="M252.6 44.0619C252.61 44.0619 252.619 44.0612 252.629 44.0598L258.258 43.2259C258.284 43.222 258.31 43.2131 258.332 43.1995C258.355 43.1859 258.375 43.168 258.391 43.1468C258.406 43.1256 258.418 43.1015 258.424 43.0759C258.431 43.0502 258.432 43.0236 258.428 42.9974C258.424 42.9713 258.415 42.9462 258.402 42.9235C258.388 42.9008 258.37 42.881 258.349 42.8652C258.328 42.8495 258.304 42.838 258.278 42.8316C258.253 42.8251 258.226 42.8238 258.2 42.8276L252.57 43.6616C252.52 43.669 252.474 43.6952 252.442 43.7349C252.411 43.7747 252.395 43.825 252.399 43.8757C252.403 43.9265 252.426 43.9739 252.463 44.0085C252.5 44.043 252.549 44.0621 252.6 44.0619V44.0619Z" fill="white"/>
<path d="M253.432 49.2898C253.468 49.2897 253.502 49.2803 253.532 49.2627C253.563 49.2451 253.588 49.2198 253.606 49.1893C253.623 49.1589 253.633 49.1244 253.633 49.0892C253.633 49.0541 253.624 49.0195 253.606 48.989L251.722 45.6752C251.709 45.6522 251.692 45.6319 251.671 45.6157C251.65 45.5994 251.626 45.5874 251.601 45.5803C251.575 45.5733 251.549 45.5714 251.522 45.5746C251.496 45.5779 251.471 45.5864 251.448 45.5995C251.425 45.6126 251.405 45.6301 251.388 45.651C251.372 45.6719 251.36 45.6958 251.353 45.7213C251.346 45.7469 251.345 45.7735 251.348 45.7998C251.351 45.826 251.36 45.8514 251.373 45.8743L253.257 49.1881C253.274 49.2192 253.3 49.245 253.331 49.2629C253.362 49.2807 253.397 49.29 253.432 49.2898V49.2898Z" fill="white"/>
<path d="M246.892 47.7231C247.674 47.3041 248.586 47.2138 249.434 46.9515C252.468 46.013 254.486 42.5667 253.82 39.4609C253.698 39.0627 253.642 38.6472 253.654 38.2309C253.763 37.3095 254.702 36.7105 255.604 36.4948C256.506 36.2792 257.468 36.3049 258.329 35.9611C259.66 35.4304 260.538 34.0556 260.723 32.635C260.908 31.2143 260.479 29.7686 259.787 28.514L259.466 29.4548C258.966 29.0361 258.594 28.4854 258.392 27.8654C258.021 27.9297 257.673 28.088 257.381 28.3252C257.09 28.5624 256.864 28.8705 256.725 29.2201C256.203 29.5318 256.121 28.2636 255.541 28.0794C255.299 28.0023 255.05 28.1524 254.82 28.2613C253.657 28.8111 252.3 28.3531 251.048 28.0581C248.88 27.5497 246.622 27.5587 244.458 28.0843C243.021 28.4351 241.599 29.0404 240.574 30.1084C239.733 30.9856 239.212 32.1168 238.769 33.2488C237.678 36.0353 236.964 39.048 237.344 42.0161C237.66 44.4449 238.689 46.7256 240.299 48.5705C241.139 49.5275 243.877 52.8669 245.367 52.2875C247.238 51.5594 244.689 48.9027 246.892 47.7231Z" fill="#2F2E41"/>
</g>
<defs>
<linearGradient id="paint0_linear" x1="0.367661" y1="73.1185" x2="220.755" y2="320.987" gradientUnits="userSpaceOnUse">
<stop stop-color="#624AF2"/>
<stop offset="1" stop-color="#50DDC3"/>
</linearGradient>
<clipPath id="clip0">
<rect width="244.704" height="209.531" fill="white" transform="matrix(-0.999987 0.00515277 0.00515277 0.999987 290.425 0.271851)"/>
</clipPath>
</defs>
</svg>
