<svg width="305" height="228" viewBox="0 0 305 228" fill="none" xmlns="http://www.w3.org/2000/svg">
<rect opacity="0.75" y="0.820435" width="159.229" height="217.296" rx="38" transform="rotate(-0.295233 0 0.820435)" fill="url(#paint0_linear)"/>
<path opacity="0.75" d="M165.197 67.1782C165.157 59.4463 171.393 53.146 179.125 53.1062L283.839 52.5666C294.884 52.5097 303.884 61.4178 303.941 72.4633L304.117 106.622C304.157 114.354 297.922 120.654 290.19 120.694L179.476 121.265C171.744 121.304 165.444 115.069 165.404 107.337L165.197 67.1782Z" fill="url(#paint1_linear)"/>
<g clip-path="url(#clip0)">
<path d="M190.799 158.675C190.924 158.55 193.896 155.548 196.415 148.424C198.726 141.887 201.058 130.489 199.043 113.307C195.225 80.7551 214.802 60.0099 215 59.8041L214.421 59.2489C214.371 59.3011 209.337 64.58 204.859 73.8475C198.931 86.1364 196.637 99.8565 198.245 113.4C202.056 145.896 190.351 157.988 190.232 158.107L190.799 158.675Z" fill="#F2F2F2"/>
<path d="M221.012 59.2587C218.128 59.2587 215.791 56.9267 215.791 54.05C215.791 51.1734 218.128 48.8414 221.012 48.8414C223.895 48.8414 226.232 51.1734 226.232 54.05C226.232 56.9267 223.895 59.2587 221.012 59.2587Z" fill="#F2F2F2"/>
<path d="M200.444 74.0452C197.56 74.0452 195.223 71.7132 195.223 68.8365C195.223 65.9599 197.56 63.6279 200.444 63.6279C203.327 63.6279 205.664 65.9599 205.664 68.8365C205.664 71.7132 203.327 74.0452 200.444 74.0452Z" fill="#F2F2F2"/>
<path d="M208.319 89.1615C205.436 89.1615 203.099 86.8295 203.099 83.9529C203.099 81.0762 205.436 78.7443 208.319 78.7443C211.203 78.7443 213.54 81.0762 213.54 83.9529C213.54 86.8295 211.203 89.1615 208.319 89.1615Z" fill="#F2F2F2"/>
<path d="M192.483 96.4394C189.6 96.4394 187.262 94.1075 187.262 91.2308C187.262 88.3542 189.6 86.0222 192.483 86.0222C195.366 86.0222 197.704 88.3542 197.704 91.2308C197.704 94.1075 195.366 96.4394 192.483 96.4394Z" fill="#F2F2F2"/>
<path d="M205.648 116.968C202.765 116.968 200.427 114.637 200.427 111.76C200.427 108.883 202.765 106.551 205.648 106.551C208.531 106.551 210.869 108.883 210.869 111.76C210.869 114.637 208.531 116.968 205.648 116.968Z" fill="#F2F2F2"/>
<path d="M187.689 158.114C187.689 158.114 195.809 146.895 182.88 133.847L187.689 158.114Z" fill="#F2F2F2"/>
<path d="M193.982 159.408C193.982 159.408 199.532 146.725 217.369 151.19L193.982 159.408Z" fill="#F2F2F2"/>
<path d="M92.4108 199.299C92.4327 199.036 92.8988 192.739 88.8408 182.183C85.1176 172.499 76.6905 157.255 57.6851 139.629C21.6803 106.237 23.8114 63.6511 23.8374 63.2245L22.6373 63.1528C22.6307 63.261 22.0294 74.1477 25.9392 89.0413C31.1357 108.781 41.8639 126.633 56.8666 140.507C92.8098 173.843 91.2328 198.95 91.2129 199.2L92.4108 199.299Z" fill="#F2F2F2"/>
<path d="M25.0909 58.6446C20.7761 58.6446 17.2783 55.1548 17.2783 50.8501C17.2783 46.5453 20.7761 43.0555 25.0909 43.0555C29.4057 43.0555 32.9036 46.5453 32.9036 50.8501C32.9036 55.1548 29.4057 58.6446 25.0909 58.6446Z" fill="#F2F2F2"/>
<path d="M16.0361 95.4002C11.7213 95.4002 8.22345 91.9105 8.22345 87.6057C8.22345 83.3009 11.7213 79.8112 16.0361 79.8112C20.3509 79.8112 23.8488 83.3009 23.8488 87.6057C23.8488 91.9105 20.3509 95.4002 16.0361 95.4002Z" fill="#F2F2F2"/>
<path d="M39.7091 105C35.3943 105 31.8965 101.51 31.8965 97.2053C31.8965 92.9005 35.3943 89.4108 39.7091 89.4108C44.0239 89.4108 47.5218 92.9005 47.5218 97.2053C47.5218 101.51 44.0239 105 39.7091 105Z" fill="#F2F2F2"/>
<path d="M28.7435 128.621C24.4287 128.621 20.9308 125.131 20.9308 120.826C20.9308 116.522 24.4287 113.032 28.7435 113.032C33.0583 113.032 36.5562 116.522 36.5562 120.826C36.5562 125.131 33.0583 128.621 28.7435 128.621Z" fill="#F2F2F2"/>
<path d="M63.7069 139.268C59.3921 139.268 55.8942 135.778 55.8942 131.473C55.8942 127.168 59.3921 123.679 63.7069 123.679C68.0217 123.679 71.5195 127.168 71.5195 131.473C71.5195 135.778 68.0217 139.268 63.7069 139.268Z" fill="#F2F2F2"/>
<path d="M88.3234 201.67C88.3234 201.67 86.6641 181.027 59.2448 178.676L88.3234 201.67Z" fill="#F2F2F2"/>
<path d="M96.7511 197.053C96.7511 197.053 90.7406 177.231 115.406 165.053L96.7511 197.053Z" fill="#F2F2F2"/>
<path d="M267.275 179.56C269.879 189.165 278.799 195.113 278.799 195.113C278.799 195.113 283.497 185.489 280.893 175.884C278.289 166.28 269.368 160.331 269.368 160.331C269.368 160.331 264.67 169.955 267.275 179.56Z" fill="#6C63FF"/>
<path d="M290.967 179.56C288.363 189.165 279.442 195.113 279.442 195.113C279.442 195.113 274.744 185.489 277.349 175.884C279.953 166.28 288.873 160.331 288.873 160.331C288.873 160.331 293.571 169.955 290.967 179.56Z" fill="#6C63FF"/>
<path d="M287.14 177.496C279.994 184.436 279.121 195.105 279.121 195.105C279.121 195.105 289.835 194.522 296.981 187.581C304.127 180.641 305 169.972 305 169.972C305 169.972 294.286 170.555 287.14 177.496Z" fill="#3F3D56"/>
<path d="M271.102 177.496C278.248 184.436 279.121 195.105 279.121 195.105C279.121 195.105 268.407 194.522 261.261 187.581C254.115 180.641 253.242 169.972 253.242 169.972C253.242 169.972 263.955 170.555 271.102 177.496Z" fill="#3F3D56"/>
<path d="M2.99988 215.751H302.36V216.445H2.99988V215.751Z" fill="#2F2E41"/>
<path d="M144.353 109.079C144.353 109.079 147.46 105.979 154.606 106.599C154.606 106.599 223.581 99.4695 225.135 112.179C226.688 124.888 226.999 132.327 222.96 135.117C222.96 135.117 209.755 147.051 216.591 157.59L220.319 163.79L73.9804 162.55C73.9804 162.55 72.4269 139.921 67.7664 135.582C63.1059 131.242 61.5524 108.304 67.7664 107.684C73.9804 107.064 146.062 103.654 144.353 109.079Z" fill="#3F3D56"/>
<path d="M221.562 134.342C221.562 134.342 265.37 144.571 247.971 163.79L245.175 166.579L246.418 209.356H44.4643L42.2894 167.509L39.8038 162.55C39.8038 162.55 24.3252 144.029 69.0375 137.325L77.0875 157.59L213.173 156.66C213.173 156.66 214.105 133.722 221.562 134.342Z" fill="#3F3D56"/>
<path d="M229.951 206.566H242.689V216.176H229.951V206.566Z" fill="#3F3D56"/>
<path d="M46.6391 206.566H59.3777V216.176H46.6391V206.566Z" fill="#3F3D56"/>
<path d="M146.717 157.745C146.717 157.745 177.132 136.202 215.037 157.9L226.222 174.019L224.048 187.348C224.048 187.348 145.441 188.588 144.509 180.218C143.577 171.849 146.717 157.745 146.717 157.745Z" fill="#3F3D56"/>
<path d="M75.5338 157.9C75.5338 157.9 128.897 140.851 144.936 157.9L142.955 182.388C142.955 182.388 64.9701 188.278 63.7273 184.248C62.4845 180.218 61.8631 173.089 61.8631 173.089L75.5338 157.9Z" fill="#3F3D56"/>
<path opacity="0.1" d="M75.534 157.9C75.534 157.9 128.897 140.851 144.937 157.9L144.892 158.446C144.945 158.193 144.975 158.055 144.975 158.055C144.975 158.055 177.132 136.202 215.037 157.9L226.222 174.019L224.048 187.348C224.048 187.348 147.932 188.963 143.041 181.327L142.955 182.388C142.955 182.388 64.9703 188.278 63.7275 184.248C62.4847 180.218 61.8633 173.089 61.8633 173.089L75.534 157.9Z" fill="black"/>
<path d="M220.319 115.123C205.218 114.803 190.903 112.891 177.754 108.614C177.434 123.704 175.259 137.816 170.297 150.461C184.997 147.795 199.917 150.433 215.037 157.9C212.322 144.259 214.669 129.919 220.319 115.123Z" fill="#6C63FF"/>
<path d="M65.9023 117.603C81.0032 117.283 95.3189 115.371 108.468 111.094C108.788 126.183 110.962 140.296 115.925 152.94C101.224 150.275 86.3041 152.913 71.1842 160.38C73.8998 146.739 71.552 132.399 65.9023 117.603Z" fill="#6C63FF"/>
<path d="M162.88 113.643C162 113.018 161.029 112.533 160.002 112.203C153.485 109.784 146.657 108.301 139.723 107.799C133.693 107.372 127.158 107.879 122.448 111.66C121.716 112.196 121.116 112.893 120.696 113.697C120.103 114.972 120.283 116.455 120.475 117.848C120.518 118.388 120.654 118.917 120.878 119.411C121.512 120.615 123.072 121.036 124.428 120.892C125.783 120.748 127.055 120.175 128.391 119.91C129.219 119.766 130.055 119.681 130.895 119.656L139.279 119.203C144.492 118.921 149.775 118.644 154.889 119.694C156.463 119.977 157.984 120.5 159.399 121.245C160.567 121.899 161.353 122.838 162.437 121.629C164.341 119.506 165.395 115.604 162.88 113.643Z" fill="#2F2E41"/>
<path d="M149.888 117.342C149.888 117.342 138.611 112.299 134.334 118.118C130.056 123.937 136.667 121.61 136.667 121.61L144.055 123.937L152.221 122.385L149.888 117.342Z" fill="#F2F2F2"/>
<path d="M149.305 113.656C149.305 113.656 147.749 121.028 148.916 122.967C150.082 124.907 142.305 127.623 142.305 127.623L134.917 124.519C134.917 124.519 136.861 112.493 134.917 110.165L149.305 113.656Z" fill="#FFB9B9"/>
<path opacity="0.1" d="M149.305 113.656C149.305 113.656 147.749 121.028 148.916 122.967C150.082 124.907 142.305 127.623 142.305 127.623L134.917 124.519C134.917 124.519 136.861 112.493 134.917 110.165L149.305 113.656Z" fill="black"/>
<path d="M156.591 202.289C155.479 204.417 154.758 206.723 154.021 209.008C154.011 209.084 153.984 209.157 153.942 209.222C153.901 209.287 153.847 209.343 153.783 209.386C153.718 209.428 153.646 209.457 153.57 209.47C153.494 209.482 153.416 209.479 153.341 209.46L146.424 209.452C145.571 209.451 144.425 209.177 144.434 208.326C144.44 207.727 145.053 207.354 145.51 206.966C146.776 205.888 147.106 204.111 147.63 202.535C148.649 199.499 150.613 196.867 153.237 195.022C153.591 194.745 153.999 194.544 154.435 194.431C154.874 194.368 155.32 194.392 155.749 194.502C156.963 194.747 161.497 195.583 160.641 197.345C160.272 198.103 158.905 198.893 158.332 199.602C157.665 200.438 157.081 201.339 156.591 202.289V202.289Z" fill="#575A89"/>
<path d="M132.539 194.286C132.783 194.797 133.054 195.295 133.352 195.777C134.354 197.426 135.537 198.964 136.47 200.653C137.052 201.706 137.542 202.845 137.606 204.046C137.67 205.247 137.246 206.525 136.286 207.252C135.282 208.012 133.905 208.047 132.658 207.87C131.41 207.693 130.169 207.336 128.912 207.43C129.336 205.038 127.313 202.932 126.808 200.556C126.666 199.888 126.644 199.196 126.454 198.541C126.249 197.941 125.987 197.363 125.671 196.814C124.664 194.857 123.952 192.762 123.559 190.598C123.511 190.336 129.707 190.293 130.288 190.418C132.102 190.809 131.837 192.785 132.539 194.286Z" fill="#575A89"/>
<path d="M180.295 156.699C182.064 159.461 181.656 163.121 180.414 166.155C179.172 169.188 177.194 171.87 175.841 174.857C174.978 176.76 174.373 178.779 173.402 180.63C172.199 182.922 170.442 184.942 169.635 187.401C169.121 188.968 169.002 190.686 168.169 192.11C167.665 192.871 167.09 193.583 166.451 194.236C164.656 196.288 163.308 198.69 162.493 201.29C161.731 199.026 159.45 197.541 157.107 197.051C154.763 196.562 152.336 196.894 149.965 197.228C151.287 195.185 152.623 193.115 153.411 190.813C154.173 188.587 154.398 186.218 154.912 183.922C155.965 179.213 158.214 174.87 160.441 170.588L148.994 169.682C147.126 169.495 145.248 169.425 143.371 169.474C140.416 169.613 137.522 170.335 134.583 170.669C131.644 171.003 128.535 170.916 125.916 169.545C130.924 176.713 133.532 185.278 133.368 194.015C132.248 193.15 130.949 192.545 129.566 192.246C128.182 191.946 126.748 191.959 125.37 192.283C123.992 192.608 122.704 193.236 121.601 194.121C120.497 195.006 119.606 196.126 118.993 197.4C114.507 191.284 115.04 182.77 111.485 176.072C110.755 174.695 109.859 173.412 109.07 172.067C107.51 169.407 106.378 166.523 105.253 163.652C104.259 161.115 103.257 158.292 104.211 155.739C104.607 154.77 105.183 153.886 105.91 153.132C107.961 150.876 110.816 149.207 113.868 149.138C118.553 149.031 122.423 152.496 126.533 154.742C131.373 157.389 137.021 158.44 142.527 158.052C148.172 157.653 153.563 155.809 158.941 154.186C161.632 153.336 164.367 152.632 167.133 152.077C169.44 151.646 171.636 152.124 173.909 152.712C176.384 153.353 178.871 154.476 180.295 156.699Z" fill="#2F2E41"/>
<path d="M131.417 106.285C131.42 109.371 132.65 112.33 134.837 114.512C137.024 116.694 139.99 117.921 143.083 117.924C143.778 117.925 144.472 117.863 145.156 117.738C147.339 117.344 149.364 116.338 150.994 114.837C152.625 113.336 153.792 111.402 154.36 109.262C154.927 107.122 154.871 104.865 154.199 102.756C153.526 100.647 152.264 98.773 150.562 97.3538C148.86 95.9347 146.787 95.0292 144.587 94.7438C142.387 94.4584 140.151 94.8047 138.141 95.7423C136.132 96.6798 134.432 98.1696 133.241 100.037C132.05 101.904 131.417 104.072 131.417 106.285V106.285Z" fill="#FFB9B9"/>
<path d="M149.888 117.342C149.888 117.342 147.749 118.312 146.972 119.088C146.194 119.864 143.861 124.131 139.972 121.416C136.084 118.7 135.695 117.148 134.528 117.148C133.362 117.148 131.806 119.476 131.806 119.476L121.113 151.482C123.995 154.728 127.335 157.538 131.028 159.823C137.25 163.703 144.639 165.642 148.138 164.091C151.638 162.539 158.249 161.375 159.415 158.271C160.582 155.168 162.526 145.857 162.526 145.857L157.082 122.191L149.888 117.342Z" fill="#F2F2F2"/>
<path d="M151.389 149.712C150.542 147.885 150.418 145.817 150.347 143.805C150.232 141.813 150.285 139.814 150.505 137.83C150.85 135.235 151.697 132.735 152.232 130.172C152.701 127.924 152.928 125.633 152.912 123.337C152.904 122.29 152.828 121.187 152.256 120.308C151.856 119.696 151.232 119.221 150.983 118.534C150.494 117.186 151.702 115.776 153.026 115.221C154.602 114.561 156.402 114.605 158.06 115.019C159.718 115.433 161.264 116.195 162.795 116.952C163.901 117.498 165.031 118.061 165.889 118.947C167.096 120.193 167.627 121.929 168.055 123.608C168.398 124.952 168.703 126.354 168.442 127.716C168.018 129.929 166.21 131.592 165.247 133.629C164.128 135.995 164.203 138.751 164.648 141.328C165.093 143.906 165.883 146.426 166.127 149.03C166.371 151.635 165.997 154.434 164.361 156.478C163.695 157.311 161.887 159.285 160.667 159.062C159.709 158.887 158.319 156.782 157.547 156.114C155.317 154.187 152.67 152.472 151.389 149.712Z" fill="#2F2E41"/>
<path d="M131.016 116.077C130.982 118.24 131.938 120.297 133.062 122.148C134.186 123.998 135.507 125.749 136.336 127.749C137.365 130.252 137.575 133.016 136.936 135.646C136.699 136.542 136.412 137.424 136.078 138.289L133.948 144.119C133.661 145.036 133.245 145.907 132.712 146.707C132.231 147.32 131.665 147.862 131.033 148.318C129.415 149.622 127.553 150.592 125.555 151.17C123.55 151.698 121.357 151.665 119.463 150.823C119.258 142.919 117.985 135.079 115.679 127.514C115.253 126.118 114.787 124.648 115.116 123.225C115.484 121.632 116.767 120.436 117.986 119.343C121.715 116.002 125.816 112.493 130.807 112.043C133.696 111.782 131.041 114.512 131.016 116.077Z" fill="#2F2E41"/>
<path d="M156.535 161.182C156.239 161.76 156.055 162.389 155.762 162.968C155.331 163.745 154.797 164.461 154.176 165.097C151.576 167.973 148.398 170.838 144.519 171.012C144.134 171.048 143.745 170.999 143.381 170.869C142.703 170.587 142.302 169.862 142.17 169.141C141.895 167.639 142.56 166.139 143.225 164.764C144.668 161.783 146.291 158.727 148.992 156.804C151.654 154.909 155.221 154.449 158.326 155.403C159.733 155.836 162.066 156.591 160.203 157.871C158.79 158.843 157.354 159.582 156.535 161.182Z" fill="#FFB9B9"/>
<path d="M154.202 208.129C155.361 209.701 155.129 211.948 156.155 213.609C157.046 215.049 158.723 215.803 159.837 217.079C160.192 217.503 160.509 217.957 160.783 218.437C161.816 220.163 162.655 222.375 161.638 224.111C160.82 225.507 159.1 226.052 157.522 226.424C155.529 226.894 153.457 227.27 151.44 226.911C149.423 226.552 147.452 225.32 146.733 223.406C146.592 222.925 146.424 222.452 146.23 221.989C145.137 219.842 141.708 219.819 140.589 217.685C139.807 216.192 140.526 214.387 141.246 212.862L143.443 208.205C144.172 206.659 147.128 207.548 148.669 207.178C150.678 206.695 152.756 206.163 154.202 208.129Z" fill="#2F2E41"/>
<path d="M137.207 204.129C138.139 204.781 138.742 205.804 139.195 206.846C140.282 209.349 140.656 212.093 141.018 214.796C141.164 215.88 141.308 216.988 141.081 218.057C140.613 220.265 138.607 221.891 136.448 222.567C134.29 223.242 131.974 223.138 129.715 223.027C128.989 222.992 128.235 222.948 127.598 222.598C126.463 221.974 126.019 220.505 126.214 219.226C126.408 217.947 127.109 216.809 127.794 215.711C128.48 214.613 129.181 213.475 129.377 212.196C129.708 210.045 128.776 206.887 130.1 204.941C131.428 202.991 135.435 202.89 137.207 204.129Z" fill="#2F2E41"/>
<path d="M131.711 100.22C131.918 99.5238 132.375 98.9285 132.995 98.5474C132.963 97.8018 133.054 97.0561 133.266 96.3403C133.972 94.2566 135.646 94.376 137.225 93.4548C137.91 93.0551 137.868 92.7018 138.225 92.0453C138.692 91.1847 139.392 90.4722 140.245 89.9887C141.258 89.3447 142.327 88.6815 143.526 88.6C146.045 88.4288 147.976 90.7922 150.383 91.5507C151.444 91.885 152.584 91.8988 153.651 92.2149C154.717 92.531 155.782 93.2857 155.941 94.3844C156.014 94.8916 155.884 95.412 155.959 95.9191C156.107 96.927 156.993 97.6329 157.586 98.4619C158.899 100.295 158.748 102.885 157.699 104.88C157.478 105.292 157.225 105.687 156.943 106.061C156.855 107.004 156.584 107.92 156.144 108.759C155.095 110.754 153.289 112.244 151.403 113.483C151.557 112.821 151.651 112.147 151.683 111.468C151.709 111.242 151.68 111.013 151.597 110.801C151.387 110.363 150.832 110.246 150.409 110.007C149.532 109.51 149.188 108.41 149.163 107.404C149.138 106.399 149.351 105.392 149.246 104.392C149.242 104.161 149.189 103.935 149.092 103.726C148.995 103.518 148.855 103.332 148.681 103.181C148.357 102.996 147.988 102.909 147.616 102.927C145.82 102.854 143.944 102.821 142.36 101.974C141.819 101.685 141.317 101.303 140.723 101.148C139.377 100.798 138.001 101.739 137.226 102.891C136.45 104.044 136.063 105.415 135.347 106.605C134.631 107.795 133.395 108.856 132.011 108.715C131.933 108.716 131.856 108.699 131.784 108.668C131.713 108.636 131.649 108.59 131.597 108.532C131.538 108.425 131.511 108.303 131.521 108.181L131.444 102.903C131.38 102 131.47 101.092 131.711 100.22V100.22Z" fill="#2F2E41"/>
<path d="M168.629 127.829C169.742 129.467 171.026 131.042 171.637 132.925C171.997 134.031 172.109 135.201 172.369 136.335C173.236 140.112 175.741 143.466 175.993 147.333C176.081 148.192 175.955 149.059 175.625 149.858C174.906 151.418 173.187 152.239 171.546 152.756C169.905 153.273 168.144 153.646 166.834 154.759C166.175 155.39 165.577 156.081 165.049 156.824C162.912 159.475 160.038 161.437 156.787 162.464C157.044 160.698 157.165 158.571 155.75 157.479C154.985 156.889 153.962 156.784 152.997 156.7L148.441 156.308C151.479 153.368 154.828 150.765 158.429 148.545C159.689 147.769 161.06 146.95 161.635 145.588C161.995 144.737 161.99 143.784 161.998 142.86C162.03 139.48 162.317 136.106 162.857 132.769C163.232 130.451 163.728 128.154 164.296 125.876C164.456 125.237 165.398 122.368 166.559 123.039C166.832 123.197 167.087 125.017 167.247 125.395C167.627 126.249 168.09 127.065 168.629 127.829V127.829Z" fill="#2F2E41"/>
<path opacity="0.1" d="M162.324 132.802C162.273 135.543 162.856 138.258 164.029 140.736C164.334 141.284 164.559 141.873 164.697 142.484C164.901 143.789 164.157 145.051 163.307 146.063C161.629 148.052 159.453 149.562 157.001 150.44" fill="black"/>
<path d="M133.295 118.9L133.021 118.943C133.261 118.905 133.476 118.774 133.619 118.578C133.762 118.381 133.821 118.137 133.783 117.897L130.945 100.013C130.907 99.7731 130.775 99.5584 130.579 99.4158C130.382 99.2732 130.137 99.2144 129.896 99.2523L130.171 99.209C129.98 99.2391 129.797 99.3065 129.632 99.4073C129.467 99.5081 129.324 99.6403 129.21 99.7963C129.096 99.9524 129.015 100.129 128.969 100.317C128.924 100.504 128.917 100.699 128.947 100.889L131.611 117.679C131.641 117.869 131.708 118.052 131.809 118.217C131.91 118.381 132.043 118.524 132.199 118.637C132.356 118.751 132.533 118.832 132.721 118.877C132.909 118.922 133.104 118.93 133.295 118.9V118.9Z" fill="#2F2E41"/>
<path d="M130.268 99.1941L129.852 99.2598L132.976 118.951L133.392 118.885C133.462 118.874 133.53 118.849 133.59 118.812C133.651 118.775 133.704 118.726 133.746 118.669C133.787 118.611 133.818 118.546 133.834 118.477C133.851 118.408 133.854 118.337 133.842 118.267L130.888 99.6435C130.877 99.5734 130.852 99.5061 130.815 99.4456C130.777 99.3851 130.729 99.3325 130.671 99.2907C130.614 99.249 130.548 99.219 130.479 99.2024C130.41 99.1858 130.338 99.183 130.268 99.1941V99.1941Z" fill="#6C63FF"/>
<path d="M130.213 101.802L130.293 101.79C130.322 101.785 130.348 101.805 130.353 101.833L130.591 103.336C130.596 103.365 130.576 103.391 130.548 103.396L130.468 103.408C130.44 103.413 130.413 103.394 130.408 103.365L130.17 101.862C130.165 101.834 130.185 101.807 130.213 101.802Z" fill="#464353"/>
<path d="M123.157 115.46C122.728 114.382 122.292 113.267 122.322 112.108C122.395 111.057 122.715 110.038 123.254 109.132C123.909 107.917 124.728 106.796 125.686 105.801C126.828 104.616 128.476 103.559 130.032 104.096C131.268 104.523 131.972 105.807 132.43 107.029C132.702 107.626 132.809 108.285 132.741 108.937C132.59 109.778 131.938 110.425 131.466 111.138C130.726 112.257 130.409 113.594 130.105 114.9L129.342 118.176L128.033 123.802C128.067 123.653 125.6 121.322 125.307 120.826C124.364 119.227 123.844 117.186 123.157 115.46Z" fill="#FFB9B9"/>
<path d="M116.153 121.638L114.292 125.498C113.396 127.086 112.988 128.901 113.119 130.719L113.009 142.299C112.994 143.847 112.982 145.418 113.39 146.911C113.506 147.409 113.725 147.878 114.032 148.288C114.348 148.641 114.719 148.94 115.132 149.172C118.654 151.367 123.22 152.615 126.94 150.775C127.793 150.322 128.603 149.795 129.361 149.199C130.844 148.103 132.349 146.986 133.458 145.515C134.619 143.976 129.281 138.119 130.062 136.357C131.461 133.2 130.686 125.714 132.858 123.028C133.174 122.637 130.302 122.989 130.313 122.487C130.336 121.472 127.896 120.004 126.955 119.618C125.347 118.958 123.495 117.612 123.226 115.898C119.807 120.372 129.408 133.889 124.013 135.524C123.928 135.577 123.83 135.608 123.73 135.611C123.63 135.614 123.53 135.59 123.442 135.541C123.355 135.492 123.282 135.421 123.231 135.334C123.181 135.248 123.155 135.149 123.156 135.049C122.85 133.77 122.742 132.454 122.518 131.158C122.107 128.799 121.315 126.523 120.174 124.416C119.535 123.235 117.466 118.913 116.153 121.638Z" fill="#2F2E41"/>
<path opacity="0.1" d="M121.921 130.492C122.195 131.228 121.946 132.041 121.735 132.797C121.123 134.99 120.837 137.26 120.886 139.535C120.878 139.575 120.879 139.617 120.89 139.656C120.901 139.695 120.922 139.731 120.95 139.76C120.979 139.789 121.014 139.811 121.053 139.823C121.092 139.835 121.134 139.837 121.174 139.829C122.072 139.884 123.099 139.89 123.708 139.23" fill="black"/>
<path d="M266.147 215.711H291.935L296.421 200.454C296.694 199.524 296.747 198.543 296.574 197.59C296.401 196.636 296.009 195.736 295.426 194.961C294.844 194.185 294.089 193.555 293.221 193.122C292.352 192.688 291.394 192.462 290.423 192.462H267.864C266.899 192.462 265.947 192.685 265.083 193.113C264.219 193.541 263.466 194.163 262.884 194.93C262.301 195.697 261.903 196.588 261.723 197.533C261.543 198.479 261.585 199.453 261.845 200.38L266.147 215.711Z" fill="#3F3D56"/>
<path d="M253.098 101.082C253.897 101.082 254.678 100.845 255.342 100.403C256.006 99.9598 256.524 99.3305 256.829 98.5941C257.135 97.8578 257.215 97.0476 257.059 96.2659C256.903 95.4842 256.519 94.7662 255.954 94.2026C255.389 93.6391 254.669 93.2553 253.886 93.0998C253.102 92.9443 252.29 93.0241 251.552 93.3291C250.814 93.6341 250.183 94.1506 249.739 94.8133C249.296 95.4759 249.059 96.255 249.059 97.052C249.06 98.1204 249.486 99.1447 250.243 99.9001C251 100.656 252.027 101.081 253.098 101.082V101.082ZM253.098 93.6423C253.774 93.6423 254.435 93.8423 254.997 94.2169C255.559 94.5916 255.997 95.1241 256.255 95.7472C256.514 96.3702 256.582 97.0558 256.45 97.7172C256.318 98.3787 255.992 98.9862 255.514 99.4631C255.037 99.9399 254.428 100.265 253.765 100.396C253.102 100.528 252.414 100.46 251.79 100.202C251.165 99.9442 250.632 99.5071 250.256 98.9464C249.881 98.3857 249.68 97.7264 249.68 97.052C249.681 96.148 250.042 95.2813 250.682 94.6421C251.323 94.0029 252.192 93.6433 253.098 93.6423Z" fill="#3F3D56"/>
<path d="M105.827 82.7931C106.626 82.7931 107.407 82.5568 108.071 82.114C108.735 81.6712 109.253 81.0419 109.559 80.3055C109.864 79.5692 109.944 78.759 109.789 77.9773C109.633 77.1956 109.248 76.4776 108.683 75.914C108.118 75.3505 107.399 74.9667 106.615 74.8112C105.832 74.6557 105.019 74.7355 104.281 75.0405C103.543 75.3455 102.913 75.862 102.469 76.5247C102.025 77.1874 101.788 77.9665 101.788 78.7635C101.789 79.8318 102.215 80.8561 102.972 81.6116C103.73 82.367 104.756 82.792 105.827 82.7931ZM105.827 75.3537C106.503 75.3537 107.164 75.5537 107.726 75.9284C108.288 76.303 108.726 76.8356 108.985 77.4586C109.243 78.0817 109.311 78.7672 109.179 79.4287C109.047 80.0901 108.722 80.6976 108.244 81.1745C107.766 81.6514 107.157 81.9761 106.494 82.1077C105.831 82.2392 105.144 82.1717 104.519 81.9136C103.895 81.6556 103.361 81.2185 102.985 80.6578C102.61 80.0971 102.409 79.4378 102.409 78.7635C102.41 77.8594 102.771 76.9928 103.412 76.3535C104.052 75.7143 104.921 75.3547 105.827 75.3537V75.3537Z" fill="#3F3D56"/>
<path d="M172.006 53.5931H180.084V45.5337H172.006V53.5931ZM179.462 52.9731H172.627V46.1536H179.462V52.9731Z" fill="#3F3D56"/>
</g>
<defs>
<linearGradient id="paint0_linear" x1="0" y1="0.820435" x2="208.474" y2="70.2496" gradientUnits="userSpaceOnUse">
<stop stop-color="#624AF2"/>
<stop offset="1" stop-color="#50DDC3"/>
</linearGradient>
<linearGradient id="paint1_linear" x1="165.125" y1="53.1783" x2="274.375" y2="153.19" gradientUnits="userSpaceOnUse">
<stop stop-color="#624AF2"/>
<stop offset="1" stop-color="#50DDC3"/>
</linearGradient>
<clipPath id="clip0">
<rect width="302" height="184" fill="white" transform="matrix(-1 0 0 1 305 43.0538)"/>
</clipPath>
</defs>
</svg>
