<svg width="361" height="199" viewBox="0 0 361 199" fill="none" xmlns="http://www.w3.org/2000/svg">
<rect opacity="0.75" y="2.81824" width="347" height="134.5" rx="20" transform="rotate(-0.295233 0 2.81824)" fill="url(#paint0_linear)"/>
<g clip-path="url(#clip0)">
<path d="M86.4387 196.594L85.6529 196.594C85.6529 186.789 81.7617 177.386 74.8353 170.453C67.9089 163.521 58.5147 159.626 48.7194 159.626C38.924 159.626 29.5298 163.521 22.6034 170.453C15.677 177.386 11.7858 186.789 11.7858 196.594L11 196.594C11 186.581 14.974 176.978 22.0477 169.897C29.1215 162.817 38.7156 158.839 48.7194 158.839C58.7232 158.839 68.3172 162.817 75.391 169.897C82.4647 176.978 86.4387 186.581 86.4387 196.594V196.594Z" fill="#3F3D56"/>
<path d="M359.904 196.594L359.118 196.594C359.118 186.789 355.227 177.386 348.301 170.453C341.374 163.52 331.98 159.626 322.185 159.626C312.389 159.626 302.995 163.52 296.069 170.453C289.142 177.386 285.251 186.789 285.251 196.594L284.465 196.594C284.465 186.581 288.439 176.977 295.513 169.897C302.587 162.817 312.181 158.839 322.185 158.839C332.189 158.839 341.783 162.817 348.856 169.897C355.93 176.977 359.904 186.581 359.904 196.594V196.594Z" fill="#3F3D56"/>
<path d="M267.57 106.533L266.784 106.533C266.784 69.2339 236.468 38.8891 199.204 38.8891C161.94 38.8891 131.623 69.2339 131.623 106.533L130.838 106.533C130.838 68.8003 161.507 38.1025 199.204 38.1025C236.901 38.1025 267.57 68.8003 267.57 106.533Z" fill="#3F3D56"/>
<path d="M68.1684 40.069C76.7398 40.069 83.6883 33.114 83.6883 24.5345C83.6883 15.955 76.7398 9 68.1684 9C59.597 9 52.6484 15.955 52.6484 24.5345C52.6484 33.114 59.597 40.069 68.1684 40.069Z" fill="#FF6584"/>
<path d="M71.4653 131.461L98.1286 99.677L150.55 99.677L182.586 130.91L181.939 131.326L182.17 131.326L182.17 196.29L71.5019 196.29L71.5019 131.326L71.4653 131.461Z" fill="#3F3D56"/>
<path d="M87.5071 117.643L93.5513 117.643L93.5513 96.7011L87.5071 96.7011L87.5071 117.643Z" fill="#3F3D56"/>
<path d="M97.7129 99.2605L130.58 137.83L130.58 196.29L71.5018 196.29L71.5018 130.493L97.7129 99.2605Z" fill="#6C63FF"/>
<path d="M122.985 145.485L110.919 145.485L110.919 157.833L122.985 157.833L122.985 145.485Z" fill="#3F3D56"/>
<path d="M122.985 162.287L110.919 162.287L110.919 174.635L122.985 174.635L122.985 162.287Z" fill="#3F3D56"/>
<path d="M122.985 145.485L110.919 145.485L110.919 157.833L122.985 157.833L122.985 145.485Z" fill="white"/>
<path d="M122.985 162.287L110.919 162.287L110.919 174.635L122.985 174.635L122.985 162.287Z" fill="white"/>
<path d="M106.298 145.485L94.2332 145.485L94.2332 157.833L106.298 157.833L106.298 145.485Z" fill="#3F3D56"/>
<path d="M106.298 162.287L94.2332 162.287L94.2332 174.635L106.298 174.635L106.298 162.287Z" fill="#3F3D56"/>
<path d="M106.298 145.485L94.2332 145.485L94.2332 157.833L106.298 157.833L106.298 145.485Z" fill="white"/>
<path d="M106.298 162.287L94.2332 162.287L94.2332 174.635L106.298 174.635L106.298 162.287Z" fill="white"/>
<path d="M89.6122 145.485L77.5469 145.485L77.5469 157.833L89.6122 157.833L89.6122 145.485Z" fill="#3F3D56"/>
<path d="M89.6122 162.287L77.5469 162.287L77.5469 174.635L89.6122 174.635L89.6122 162.287Z" fill="#3F3D56"/>
<path d="M89.6122 145.485L77.5469 145.485L77.5469 157.833L89.6122 157.833L89.6122 145.485Z" fill="white"/>
<path d="M89.6122 162.287L77.5469 162.287L77.5469 174.635L89.6122 174.635L89.6122 162.287Z" fill="white"/>
<path d="M207.062 24.7311L201.561 24.7311L201.561 38.4958L207.062 38.4958L207.062 24.7311Z" fill="#6C63FF"/>
<path d="M206.669 37.316L159.913 37.316L159.913 196.594L206.669 196.594L206.669 37.316Z" fill="#6C63FF"/>
<path d="M225.529 37.316L206.669 37.316L206.669 196.594L225.529 196.594L225.529 37.316Z" fill="#3F3D56"/>
<path d="M175.433 51.0808L168.36 51.0808L168.36 58.1598L175.433 58.1598L175.433 51.0808Z" fill="white"/>
<path d="M186.827 51.0808L179.755 51.0808L179.755 58.1598L186.827 58.1598L186.827 51.0808Z" fill="white"/>
<path d="M198.222 51.0808L191.149 51.0808L191.149 58.1598L198.222 58.1598L198.222 51.0808Z" fill="white"/>
<path d="M175.629 67.2052L168.557 67.2052L168.557 74.2842L175.629 74.2842L175.629 67.2052Z" fill="white"/>
<path d="M187.024 67.2052L179.951 67.2052L179.951 74.2842L187.024 74.2842L187.024 67.2052Z" fill="white"/>
<path d="M198.418 67.2052L191.346 67.2052L191.346 74.2842L198.418 74.2842L198.418 67.2052Z" fill="white"/>
<path d="M175.826 83.3296L168.753 83.3296L168.753 90.4086L175.826 90.4086L175.826 83.3296Z" fill="white"/>
<path d="M187.22 83.3296L180.148 83.3296L180.148 90.4086L187.22 90.4086L187.22 83.3296Z" fill="white"/>
<path d="M198.614 83.3296L191.542 83.3296L191.542 90.4086L198.614 90.4086L198.614 83.3296Z" fill="white"/>
<path d="M176.022 99.454L168.95 99.454L168.95 106.533L176.022 106.533L176.022 99.454Z" fill="white"/>
<path d="M187.417 99.454L180.344 99.454L180.344 106.533L187.417 106.533L187.417 99.454Z" fill="white"/>
<path d="M198.811 99.454L191.739 99.454L191.739 106.533L198.811 106.533L198.811 99.454Z" fill="white"/>
<path d="M176.219 115.578L169.146 115.578L169.146 122.658L176.219 122.658L176.219 115.578Z" fill="white"/>
<path d="M187.613 115.578L180.541 115.578L180.541 122.658L187.613 122.658L187.613 115.578Z" fill="white"/>
<path d="M199.007 115.578L191.935 115.578L191.935 122.658L199.007 122.658L199.007 115.578Z" fill="white"/>
<path d="M176.415 131.703L169.343 131.703L169.343 138.782L176.415 138.782L176.415 131.703Z" fill="white"/>
<path d="M187.81 131.703L180.737 131.703L180.737 138.782L187.81 138.782L187.81 131.703Z" fill="white"/>
<path d="M199.204 131.703L192.131 131.703L192.131 138.782L199.204 138.782L199.204 131.703Z" fill="white"/>
<path d="M176.612 147.827L169.539 147.827L169.539 154.906L176.612 154.906L176.612 147.827Z" fill="white"/>
<path d="M188.006 147.827L180.934 147.827L180.934 154.906L188.006 154.906L188.006 147.827Z" fill="white"/>
<path d="M199.4 147.827L192.328 147.827L192.328 154.906L199.4 154.906L199.4 147.827Z" fill="white"/>
<path d="M176.808 163.952L169.736 163.952L169.736 171.031L176.808 171.031L176.808 163.952Z" fill="white"/>
<path d="M188.202 163.952L181.13 163.952L181.13 171.031L188.202 171.031L188.202 163.952Z" fill="white"/>
<path d="M188.202 182.829L181.13 182.829L181.13 196.2L188.202 196.2L188.202 182.829Z" fill="white"/>
<path d="M199.597 163.952L192.524 163.952L192.524 171.031L199.597 171.031L199.597 163.952Z" fill="white"/>
<path d="M209.812 24.7311L206.669 24.7311L206.669 38.1025L209.812 38.1025L209.812 24.7311Z" fill="#3F3D56"/>
<path d="M265.999 94.7347L260.498 94.7347L260.498 102.893L265.999 102.893L265.999 94.7347Z" fill="#6C63FF"/>
<path d="M265.606 102.193L218.849 102.193L218.849 196.594L265.606 196.594L265.606 102.193Z" fill="#6C63FF"/>
<path d="M284.465 102.193L265.606 102.193L265.606 196.594L284.465 196.594L284.465 102.193Z" fill="#3F3D56"/>
<path d="M235.155 115.578L228.083 115.578L228.083 122.658L235.155 122.658L235.155 115.578Z" fill="white"/>
<path d="M246.55 115.578L239.477 115.578L239.477 122.658L246.55 122.658L246.55 115.578Z" fill="white"/>
<path d="M257.944 115.578L250.872 115.578L250.872 122.658L257.944 122.658L257.944 115.578Z" fill="white"/>
<path d="M235.352 131.703L228.279 131.703L228.279 138.782L235.352 138.782L235.352 131.703Z" fill="white"/>
<path d="M246.746 131.703L239.674 131.703L239.674 138.782L246.746 138.782L246.746 131.703Z" fill="white"/>
<path d="M258.14 131.703L251.068 131.703L251.068 138.782L258.14 138.782L258.14 131.703Z" fill="white"/>
<path d="M235.548 147.827L228.476 147.827L228.476 154.906L235.548 154.906L235.548 147.827Z" fill="white"/>
<path d="M246.942 147.827L239.87 147.827L239.87 154.906L246.942 154.906L246.942 147.827Z" fill="white"/>
<path d="M258.337 147.827L251.265 147.827L251.265 154.906L258.337 154.906L258.337 147.827Z" fill="white"/>
<path d="M235.744 163.952L228.672 163.952L228.672 171.031L235.744 171.031L235.744 163.952Z" fill="white"/>
<path d="M247.139 163.952L240.067 163.952L240.067 171.031L247.139 171.031L247.139 163.952Z" fill="white"/>
<path d="M247.139 182.829L240.067 182.829L240.067 196.2L247.139 196.2L247.139 182.829Z" fill="white"/>
<path d="M258.533 163.952L251.461 163.952L251.461 171.031L258.533 171.031L258.533 163.952Z" fill="white"/>
<path d="M268.749 94.7347L265.606 94.7347L265.606 102.66L268.749 102.66L268.749 94.7347Z" fill="#3F3D56"/>
<path d="M360 196.119L11.0959 196.119L11.0959 197L360 197L360 196.119Z" fill="#3F3D56"/>
<path d="M298.869 178.142C304.52 178.142 309.101 173.556 309.101 167.9C309.101 162.244 304.52 157.659 298.869 157.659C293.219 157.659 288.638 162.244 288.638 167.9C288.638 173.556 293.219 178.142 298.869 178.142Z" fill="#6C63FF"/>
<path opacity="0.2" d="M306.48 161.06C307.435 163.295 307.564 165.796 306.845 168.117C306.127 170.439 304.607 172.429 302.558 173.732C300.508 175.034 298.063 175.566 295.658 175.23C293.253 174.894 291.046 173.714 289.431 171.899C290.014 173.264 290.887 174.486 291.989 175.48C293.09 176.475 294.395 177.217 295.812 177.657C297.229 178.096 298.724 178.222 300.194 178.026C301.664 177.829 303.074 177.315 304.327 176.519C305.579 175.723 306.643 174.664 307.445 173.415C308.248 172.167 308.77 170.759 308.975 169.288C309.18 167.818 309.063 166.32 308.632 164.899C308.201 163.479 307.467 162.169 306.48 161.06V161.06Z" fill="black"/>
<path d="M298.897 167.901L298.926 167.901L299.431 196.936L298.363 196.936L298.897 167.901Z" fill="#3F3D56"/>
<path d="M300.76 183.716L300.525 183.268L298.833 184.159L299.069 184.607L300.76 183.716Z" fill="#3F3D56"/>
<path d="M328.95 168.356C337.543 168.356 344.509 161.383 344.509 152.782C344.509 144.181 337.543 137.209 328.95 137.209C320.357 137.209 313.391 144.181 313.391 152.782C313.391 161.383 320.357 168.356 328.95 168.356Z" fill="#6C63FF"/>
<path opacity="0.2" d="M340.524 142.38C341.975 145.778 342.172 149.582 341.079 153.112C339.987 156.642 337.675 159.668 334.559 161.65C331.442 163.631 327.724 164.439 324.067 163.928C320.41 163.418 317.054 161.622 314.598 158.863C315.485 160.939 316.811 162.797 318.487 164.309C320.162 165.821 322.146 166.95 324.3 167.618C326.455 168.287 328.729 168.478 330.965 168.179C333.201 167.881 335.345 167.099 337.249 165.888C339.153 164.678 340.771 163.068 341.992 161.169C343.212 159.27 344.006 157.129 344.317 154.892C344.629 152.656 344.451 150.379 343.796 148.219C343.141 146.058 342.024 144.066 340.524 142.38V142.38Z" fill="black"/>
<path d="M328.993 152.782L329.036 152.782L329.805 196.936L328.181 196.936L328.993 152.782Z" fill="#3F3D56"/>
<path d="M331.826 176.832L331.467 176.151L328.895 177.506L329.254 178.188L331.826 176.832Z" fill="#3F3D56"/>
<path d="M21.4749 177.748C27.1256 177.748 31.7065 173.163 31.7065 167.507C31.7065 161.851 27.1256 157.266 21.4749 157.266C15.8241 157.266 11.2433 161.851 11.2433 167.507C11.2433 173.163 15.8241 177.748 21.4749 177.748Z" fill="#6C63FF"/>
<path opacity="0.2" d="M29.0857 160.667C30.0401 162.901 30.1695 165.403 29.451 167.724C28.7324 170.045 27.2126 172.035 25.1631 173.338C23.1137 174.641 20.6682 175.172 18.2636 174.837C15.8589 174.501 13.6519 173.32 12.0369 171.506C12.6199 172.871 13.4924 174.093 14.5941 175.087C15.6958 176.081 17.0003 176.824 18.4171 177.263C19.834 177.703 21.3293 177.829 22.7996 177.632C24.2699 177.436 25.6799 176.922 26.932 176.126C28.1841 175.33 29.2484 174.271 30.051 173.022C30.8536 171.774 31.3754 170.365 31.5803 168.895C31.7851 167.424 31.6681 165.927 31.2374 164.506C30.8067 163.085 30.0725 161.775 29.0857 160.667L29.0857 160.667Z" fill="black"/>
<path d="M21.5028 167.507L21.5311 167.507L22.0368 196.543L20.9689 196.543L21.5028 167.507Z" fill="#3F3D56"/>
<path d="M23.366 183.323L23.1302 182.875L21.4389 183.766L21.6746 184.214L23.366 183.323Z" fill="#3F3D56"/>
<path d="M249.266 23.6834L252.883 20.7877C250.073 20.4774 248.919 22.0113 248.446 23.2254C246.251 22.313 243.861 23.5088 243.861 23.5088L251.098 26.1385C250.733 25.1624 250.097 24.3108 249.266 23.6834V23.6834Z" fill="#3F3D56"/>
<path d="M67.7415 38.2346L71.3585 35.339C68.5486 35.0287 67.3941 36.5626 66.9216 37.7767C64.7264 36.8643 62.3367 38.06 62.3367 38.06L69.5736 40.6898C69.2085 39.7137 68.573 38.862 67.7415 38.2346V38.2346Z" fill="#3F3D56"/>
<path d="M304.273 53.1792L307.89 50.2836C305.08 49.9733 303.926 51.5072 303.453 52.7213C301.258 51.8089 298.869 53.0046 298.869 53.0046L306.105 55.6344C305.74 54.6583 305.105 53.8066 304.273 53.1792V53.1792Z" fill="#3F3D56"/>
<path d="M97.6026 30.369L101.22 27.4734C98.4097 27.1631 97.2552 28.697 96.7827 29.9111C94.5875 28.9987 92.1978 30.1944 92.1978 30.1944L99.4347 32.8242C99.0696 31.8481 98.4341 30.9964 97.6026 30.369V30.369Z" fill="#3F3D56"/>
<path d="M104.282 61.8313L107.899 58.9357C105.089 58.6254 103.935 60.1593 103.462 61.3734C101.267 60.461 98.8772 61.6567 98.8772 61.6567L106.114 64.2865C105.749 63.3104 105.114 62.4587 104.282 61.8313V61.8313Z" fill="#3F3D56"/>
<path d="M244.944 78.349L248.561 75.4534C245.751 75.1431 244.597 76.677 244.124 77.8911C241.929 76.9787 239.539 78.1744 239.539 78.1744L246.776 80.8041C246.411 79.8281 245.775 78.9764 244.944 78.349Z" fill="#3F3D56"/>
<path d="M52.6485 188.335L28.2881 188.335L28.2881 189.122L32.0871 189.122L32.0871 196.594L32.873 196.594L32.873 189.122L47.6707 189.122L47.6707 196.594L48.4565 196.594L48.4565 189.122L52.6485 189.122L52.6485 188.335Z" fill="#3F3D56"/>
<path d="M77.4019 191.481C76.4403 191.481 75.4958 191.735 74.6635 192.216C73.8181 191.451 72.7691 190.948 71.6437 190.768C70.5183 190.588 69.3649 190.739 68.3235 191.203C67.2821 191.666 66.3976 192.422 65.7772 193.379C65.1568 194.336 64.8274 195.453 64.8287 196.594L82.8828 196.594C82.7844 195.206 82.1642 193.907 81.1473 192.958C80.1303 192.009 78.792 191.482 77.4019 191.481V191.481Z" fill="#3F3D56"/>
<path d="M170.521 191.481C169.56 191.481 168.615 191.735 167.783 192.216C166.938 191.451 165.889 190.948 164.763 190.768C163.638 190.588 162.484 190.739 161.443 191.203C160.402 191.666 159.517 192.422 158.897 193.379C158.276 194.336 157.947 195.453 157.948 196.594L176.002 196.594C175.904 195.206 175.284 193.907 174.267 192.958C173.25 192.009 171.912 191.482 170.521 191.481V191.481Z" fill="#3F3D56"/>
<path d="M231.423 191.481C230.461 191.481 229.517 191.735 228.684 192.216C227.839 191.451 226.79 190.948 225.664 190.768C224.539 190.588 223.386 190.739 222.344 191.203C221.303 191.666 220.418 192.422 219.798 193.379C219.178 194.336 218.848 195.453 218.849 196.594L236.904 196.594C236.805 195.206 236.185 193.907 235.168 192.958C234.151 192.009 232.813 191.482 231.423 191.481V191.481Z" fill="#3F3D56"/>
<path d="M311.576 191.481C310.615 191.481 309.67 191.735 308.838 192.216C307.993 191.451 306.944 190.948 305.818 190.768C304.693 190.588 303.539 190.739 302.498 191.203C301.457 191.666 300.572 192.422 299.952 193.379C299.331 194.336 299.002 195.453 299.003 196.594L317.057 196.594C316.959 195.206 316.339 193.907 315.322 192.958C314.305 192.009 312.966 191.482 311.576 191.481V191.481Z" fill="#3F3D56"/>
<path d="M350.081 191.481C349.12 191.481 348.175 191.735 347.343 192.216C346.498 191.451 345.449 190.948 344.323 190.768C343.198 190.588 342.044 190.739 341.003 191.203C339.962 191.666 339.077 192.422 338.457 193.379C337.836 194.336 337.507 195.453 337.508 196.594L355.562 196.594C355.464 195.206 354.844 193.907 353.827 192.958C352.81 192.009 351.472 191.482 350.081 191.481V191.481Z" fill="#3F3D56"/>
<path d="M61.6854 169.064L55.3988 169.064L55.3988 175.357L58.313 175.357L58.313 196.559L59.0988 196.559L59.0988 175.357L61.6854 175.357L61.6854 169.064Z" fill="#3F3D56"/>
<path d="M52.6964 185.982L28.3359 185.982L28.3359 186.768L52.6964 186.768L52.6964 185.982Z" fill="#3F3D56"/>
<path d="M52.6964 184.015L28.3359 184.015L28.3359 184.802L52.6964 184.802L52.6964 184.015Z" fill="#3F3D56"/>
<path d="M52.6964 182.049L28.3359 182.049L28.3359 182.836L52.6964 182.836L52.6964 182.049Z" fill="#3F3D56"/>
</g>
<defs>
<linearGradient id="paint0_linear" x1="0" y1="2.81824" x2="212.52" y2="252.008" gradientUnits="userSpaceOnUse">
<stop stop-color="#EB0055"/>
<stop offset="1" stop-color="#FFFA80"/>
</linearGradient>
<clipPath id="clip0">
<rect width="349" height="188" fill="white" transform="translate(11 9)"/>
</clipPath>
</defs>
</svg>
