<svg width="348" height="163" viewBox="0 0 348 163" fill="none" xmlns="http://www.w3.org/2000/svg">
<rect opacity="0.75" y="15.4604" width="283.425" height="123.154" rx="20" transform="rotate(-0.295233 0 15.4604)" fill="url(#paint0_linear)"/>
<g clip-path="url(#clip0)">
<path d="M118.954 51.0793V59.252C122.401 59.252 125.707 60.6154 128.144 63.0421C130.582 65.4689 131.951 68.7602 131.951 72.1922C131.951 75.6241 130.582 78.9155 128.144 81.3422C125.707 83.7689 122.401 85.1323 118.954 85.1323V93.305H161.365V51.0793H118.954Z" fill="#F2F2F2"/>
<path d="M118.954 82.4081C124.621 82.4081 129.215 77.8343 129.215 72.1922C129.215 66.5501 124.621 61.9763 118.954 61.9763C113.288 61.9763 108.694 66.5501 108.694 72.1922C108.694 77.8343 113.288 82.4081 118.954 82.4081Z" fill="#F2F2F2"/>
<path d="M274.459 82.4198L257.814 72.2048V151.195H274.459V82.4198Z" fill="#F2F2F2"/>
<path d="M232.276 151.195H248.921V66.7474L232.276 56.5325V151.195Z" fill="#F2F2F2"/>
<path d="M223.384 51.0748L140.159 0V46.085H166.837V99.2075H140.159V151.195H223.384V51.0748Z" fill="#F2F2F2"/>
<path d="M283.351 87.877V151.195H292.016L315.501 107.607L283.351 87.877Z" fill="#F2F2F2"/>
<path d="M315.687 120.977C301.874 131.257 297.979 149.318 297.979 149.318C297.979 149.318 316.479 150.711 330.292 140.431C344.105 130.151 348 112.09 348 112.09C348 112.09 329.5 110.697 315.687 120.977Z" fill="#3F3D56"/>
<path d="M297.99 149.144C297.99 149.144 297.787 149.031 297.42 148.807C297.127 148.628 296.726 148.378 296.24 148.058C291.9 145.211 280.655 136.835 276.043 123.912C270.273 107.731 277.087 90.5493 277.087 90.5493C277.087 90.5493 291.95 98.8686 298.264 113.812C298.539 114.455 298.793 115.112 299.033 115.781C304.054 129.86 299.547 144.696 298.293 148.313C298.104 148.854 297.99 149.144 297.99 149.144Z" fill="#6C63FF"/>
<path d="M298.057 149.655L297.845 149.502C297.694 149.393 282.703 138.427 278.851 121.806C274.999 105.184 283.648 88.7873 283.736 88.6237L283.859 88.394L284.071 88.5468C284.222 88.6554 299.213 99.6213 303.065 116.243C306.918 132.864 298.268 149.261 298.18 149.425L298.057 149.655ZM284.017 89.0742C282.977 91.1393 275.733 106.334 279.295 121.704C282.857 137.074 296.056 147.571 297.899 148.974C298.939 146.909 306.183 131.714 302.621 116.345C299.059 100.975 285.86 90.4771 284.017 89.0742Z" fill="#3F3D56"/>
<path opacity="0.1" d="M298.293 148.313C297.956 148.508 297.662 148.672 297.42 148.807C296.887 149.096 296.592 149.242 296.592 149.242C296.592 149.242 296.452 148.824 296.24 148.058C295.071 143.871 291.723 129.277 297.326 115.873C297.621 115.171 297.933 114.484 298.264 113.812C298.539 114.455 298.793 115.112 299.033 115.781C304.054 129.86 299.547 144.696 298.293 148.313Z" fill="black"/>
<path d="M321.453 125.787C314.828 141.64 298.196 149.827 298.196 149.827C298.196 149.827 292.305 132.311 298.929 116.458C305.553 100.604 322.185 92.4177 322.185 92.4177C322.185 92.4177 328.077 109.934 321.453 125.787Z" fill="#6C63FF"/>
<path d="M321.848 93.0294L298.148 149.281L298.568 149.456L322.269 93.2049L321.848 93.0294Z" fill="#3F3D56"/>
<path d="M345.485 154.485C345.485 156.611 333.202 158.555 312.894 160.048C309.202 160.318 305.244 160.574 301.048 160.815C297.421 161.022 293.62 161.217 289.646 161.4C285.794 161.574 281.795 161.736 277.65 161.885C264.553 162.359 250.078 162.7 234.699 162.87C230.967 162.911 227.185 162.943 223.352 162.967C219.362 162.989 215.325 163 211.242 163C137.102 163 77 159.189 77 154.485C77 149.781 137.102 145.97 211.242 145.97C243.16 145.97 272.474 146.677 295.512 147.855C296.36 147.899 297.2 147.943 298.031 147.985C298.036 147.988 298.041 147.989 298.047 147.988C327.067 149.551 345.485 151.881 345.485 154.485Z" fill="#3F3D56"/>
<path opacity="0.15" d="M345.485 154.485C345.485 156.611 333.202 158.555 312.894 160.048C309.202 160.318 305.244 160.574 301.048 160.815C297.421 161.022 293.62 161.217 289.646 161.4C285.794 161.574 281.795 161.736 277.65 161.885C264.553 162.359 250.078 162.7 234.699 162.87C230.967 162.911 227.185 162.943 223.352 162.967C219.362 162.989 215.325 163 211.242 163C137.102 163 77 159.189 77 154.485C77 149.781 137.102 145.97 211.242 145.97C243.16 145.97 272.474 146.677 295.512 147.855C296.36 147.899 297.2 147.943 298.031 147.985C298.036 147.988 298.041 147.989 298.047 147.988C327.067 149.551 345.485 151.881 345.485 154.485Z" fill="black"/>
<path d="M335.167 152.986C335.167 154.764 323.716 156.389 304.784 157.638C301.344 157.863 297.652 158.076 293.742 158.278C290.36 158.451 286.817 158.613 283.112 158.766C279.521 158.914 275.793 159.049 271.928 159.173C259.718 159.57 246.222 159.854 231.884 159.997C228.407 160.031 224.881 160.057 221.307 160.076C217.586 160.096 213.823 160.106 210.018 160.106C140.898 160.106 84.8665 156.918 84.8665 152.986C84.8665 149.054 140.898 145.867 210.018 145.867C225.302 145.867 239.945 146.024 253.484 146.31H253.518C266.323 146.58 278.141 146.966 288.58 147.445C289.371 147.481 290.154 147.517 290.928 147.551C290.933 147.555 290.938 147.557 290.944 147.556C295.726 147.788 300.199 148.037 304.322 148.305C304.367 148.307 304.413 148.312 304.458 148.314C323.586 149.565 335.167 151.197 335.167 152.986Z" fill="#3F3D56"/>
<path opacity="0.1" d="M304.321 148.305C302.627 159.272 291.945 155.597 279.019 155.597C265.363 155.597 254.213 159.699 253.518 146.31C266.323 146.58 278.141 146.966 288.579 147.445C289.371 147.481 290.154 147.517 290.928 147.551C290.932 147.555 290.938 147.557 290.944 147.556C295.725 147.787 300.199 148.037 304.321 148.305Z" fill="black"/>
<path d="M149.343 144.969C149.343 148.923 146.982 150.303 144.07 150.303C144.003 150.303 143.935 150.302 143.868 150.301C143.733 150.298 143.599 150.291 143.467 150.282C140.839 150.097 138.797 148.646 138.797 144.969C138.797 141.164 143.68 136.362 144.048 136.006L144.049 136.006C144.063 135.992 144.07 135.985 144.07 135.985C144.07 135.985 149.343 141.015 149.343 144.969Z" fill="#6C63FF"/>
<path d="M143.878 149.698L145.807 147.015L143.873 149.993L143.868 150.301C143.733 150.298 143.6 150.291 143.468 150.282L143.675 146.327L143.674 146.296L143.677 146.291L143.697 145.917L141.759 142.932L143.703 145.636L143.708 145.716L143.865 142.727L142.205 139.643L143.885 142.203L144.048 136.006L144.049 135.985V136.006L144.022 140.892L145.674 138.955L144.015 141.313L143.971 143.989L145.514 141.421L143.965 144.382L143.941 145.87L146.179 142.296L143.932 146.389L143.878 149.698Z" fill="#3F3D56"/>
<path d="M253.482 142.204C253.482 127.158 264.915 114.961 279.019 114.961C293.123 114.961 304.556 127.158 304.556 142.204C304.556 157.249 293.123 152.873 279.019 152.873C264.915 152.873 253.482 157.249 253.482 142.204Z" fill="#3F3D56"/>
<path d="M111.973 124.255H111.517V154.944H111.973V124.255Z" fill="#3F3D56"/>
<path d="M111.745 128.595C114.153 128.595 116.104 126.652 116.104 124.255C116.104 121.858 114.153 119.915 111.745 119.915C109.338 119.915 107.387 121.858 107.387 124.255C107.387 126.652 109.338 128.595 111.745 128.595Z" fill="#3F3D56"/>
<path d="M111.745 143.169C111.745 143.169 111.123 129.835 98.3578 131.385Z" fill="#3F3D56"/>
<path d="M238.664 129.305C238.778 129.705 238.905 130.103 239.04 130.498C238.432 129.902 237.834 129.29 237.226 128.698C237.47 128.774 237.713 128.85 237.943 128.939C238.194 129.039 238.436 129.161 238.664 129.305V129.305ZM235.715 127.315C232.127 124.209 227.97 121.804 224.294 118.793C226.301 119.776 228.254 120.922 230.192 122.021C232.49 123.325 234.815 124.577 237.167 125.779C236.784 126.377 236.292 126.898 235.715 127.315V127.315ZM237.25 119.494C237.307 119.435 237.364 119.377 237.422 119.318C237.423 119.759 237.427 120.172 237.432 120.547C237.111 120.44 236.79 120.332 236.47 120.22C236.745 119.994 237.006 119.752 237.25 119.494V119.494ZM205.646 127.902C207.125 126.24 208.409 124.416 209.475 122.465C210.899 124.942 213.213 126.729 215.182 128.804C212.01 128.387 208.833 128.043 205.646 127.902Z" fill="url(#paint1_linear)"/>
<path d="M103.741 150.871C103.741 154.825 101.38 156.206 98.4677 156.206C98.4002 156.206 98.3328 156.205 98.2658 156.203C98.1309 156.2 97.9969 156.194 97.8649 156.185C95.2365 156 93.1948 154.548 93.1948 150.871C93.1948 147.067 98.078 142.265 98.4458 141.909L98.4463 141.908C98.4604 141.894 98.4677 141.888 98.4677 141.888C98.4677 141.888 103.741 146.918 103.741 150.871Z" fill="#6C63FF"/>
<path d="M98.2757 155.601L100.204 152.918L98.2708 155.895L98.266 156.203C98.1311 156.2 97.9971 156.194 97.8651 156.185L98.0728 152.229L98.0714 152.199L98.0748 152.193L98.0947 151.819L96.1564 148.835L98.1005 151.539L98.1054 151.618L98.2621 148.63L96.6028 145.545L98.2825 148.105L98.446 141.909L98.4465 141.888V141.908L98.4193 146.795L100.071 144.857L98.4126 147.215L98.3689 149.891L99.9117 147.323L98.3626 150.285L98.3383 151.773L100.577 148.198L98.3296 152.292L98.2757 155.601Z" fill="#3F3D56"/>
<path d="M106.414 119.412C107.673 119.412 108.694 118.396 108.694 117.142C108.694 115.888 107.673 114.872 106.414 114.872C105.154 114.872 104.134 115.888 104.134 117.142C104.134 118.396 105.154 119.412 106.414 119.412Z" fill="#6C63FF"/>
<path d="M253.023 85.3665C253.023 85.3665 261.295 83.5432 262.207 90.8078C263.119 98.0724 257.814 99.4437 257.814 99.4437L254.454 100.343L241.458 96.9373L243.282 91.7159L253.023 85.3665Z" fill="#2F2E41"/>
<path d="M250.042 85.7673C256.215 85.7673 261.22 80.7846 261.22 74.638C261.22 68.4915 256.215 63.5088 250.042 63.5088C243.869 63.5088 238.864 68.4915 238.864 74.638C238.864 80.7846 243.869 85.7673 250.042 85.7673Z" fill="#2F2E41"/>
<path d="M210.764 97.7483L213.035 98.203L220.757 109.571L217.35 110.026L210.764 97.7483Z" fill="#2F2E41"/>
<path d="M155.829 143.873C156.441 145.88 157.195 147.841 158.086 149.741C160.645 149.208 163.163 148.493 165.621 147.603C165.697 147.576 164.212 145.642 164.056 145.484C163.467 144.888 162.706 144.191 161.928 143.854C161.143 143.515 160.177 143.774 159.338 143.817C158.169 143.876 156.999 143.895 155.829 143.873Z" fill="#FBBEBE"/>
<path d="M161.941 146.91C160.661 146.511 159.883 145.229 159.362 143.992C158.842 142.755 158.422 141.406 157.434 140.499C157.056 140.517 156.751 140.823 156.564 141.153C156.376 141.482 156.265 141.854 156.049 142.165C155.637 142.758 154.913 143.044 154.395 143.547C153.852 144.074 153.555 144.819 152.993 145.325C152.287 145.961 151.29 146.119 150.364 146.329C148.931 146.655 147.548 147.166 146.248 147.848C145.77 148.136 145.258 148.364 144.724 148.529C144.136 148.641 143.535 148.661 142.941 148.588L138.847 148.297C138.482 148.251 138.112 148.267 137.754 148.345C136.912 148.58 136.389 149.516 136.451 150.388C136.513 151.261 137.058 152.043 137.747 152.582C138.46 153.09 139.246 153.486 140.079 153.758C143.645 155.099 147.317 156.143 151.057 156.88L151.059 157.687C153.659 158.96 156.518 159.623 159.416 159.625C159.63 159.641 159.845 159.604 160.042 159.517C160.329 159.361 160.462 159.027 160.568 158.718C161.551 155.858 162.126 152.875 162.276 149.856C162.349 149.09 162.289 148.318 162.1 147.573C161.877 146.839 162.645 147.147 161.934 146.86" fill="#2F2E41"/>
<path d="M240.47 131.542C228.331 132.266 216.332 128.728 204.177 128.35C202.666 128.303 201.139 128.306 199.663 128.636C198.102 128.985 196.647 129.688 195.196 130.361C188.677 133.381 181.933 135.882 175.197 138.38L167.459 141.249C165.913 141.823 164.31 142.405 162.665 142.305C161.927 142.26 161.021 142.149 160.606 142.761C159.347 144.618 159.942 147.346 160.774 149.43C161.044 150.106 161.5 150.836 162.224 150.913C162.733 150.967 163.207 150.674 163.702 150.542C165.11 150.166 166.514 151.109 167.964 151.263C169.755 151.453 171.417 150.437 173.108 149.815C175.911 148.783 178.976 148.816 181.923 148.327C186.863 147.508 191.443 145.224 195.723 142.622C197.353 141.631 199.002 140.569 200.875 140.207C203.028 139.79 205.239 140.342 207.35 140.937C212.384 142.355 217.339 144.035 222.195 145.97C224.752 146.989 227.291 148.081 229.952 148.786C235.707 150.295 241.795 149.941 247.335 147.777C249.278 147.012 251.39 145.661 251.501 143.574C251.565 142.383 250.638 141.335 250.018 140.317C249.621 139.665 249.223 139.012 248.791 138.382C246.698 135.335 244.157 131.322 240.47 131.542Z" fill="#2F2E41"/>
<path opacity="0.1" d="M240.47 131.542C228.331 132.266 216.332 128.728 204.177 128.35C202.666 128.303 201.139 128.306 199.663 128.636C198.102 128.985 196.647 129.688 195.196 130.361C188.677 133.381 181.933 135.882 175.197 138.38L167.459 141.249C165.913 141.823 164.31 142.405 162.665 142.305C161.927 142.26 161.021 142.149 160.606 142.761C159.347 144.618 159.942 147.346 160.774 149.43C161.044 150.106 161.5 150.836 162.224 150.913C162.733 150.967 163.207 150.674 163.702 150.542C165.11 150.166 166.514 151.109 167.964 151.263C169.755 151.453 171.417 150.437 173.108 149.815C175.911 148.783 178.976 148.816 181.923 148.327C186.863 147.508 191.443 145.224 195.723 142.622C197.353 141.631 199.002 140.569 200.875 140.207C203.028 139.79 205.239 140.342 207.35 140.937C212.384 142.355 217.339 144.035 222.195 145.97C224.752 146.989 227.291 148.081 229.952 148.786C235.707 150.295 241.795 149.941 247.335 147.777C249.278 147.012 251.39 145.661 251.501 143.574C251.565 142.383 250.638 141.335 250.018 140.317C249.621 139.665 249.223 139.012 248.791 138.382C246.698 135.335 244.157 131.322 240.47 131.542Z" fill="black"/>
<path d="M179.136 144.462C181.036 145.107 182.953 145.701 184.886 146.242C185.969 144.473 187.993 143.242 188.455 141.219C188.483 141.131 188.484 141.037 188.455 140.949C188.406 140.862 188.329 140.794 188.238 140.755C186.853 139.991 185.315 139.542 183.735 139.441C182.487 139.362 181.917 140.66 181.352 141.571C181.123 141.94 179.644 144.634 179.136 144.462Z" fill="#FBBEBE"/>
<path d="M181.799 143.17C180.677 142.936 179.579 142.335 179.006 141.341C178.737 140.876 178.452 140.248 177.916 140.283C177.419 140.316 177.19 140.907 177.078 141.393C176.659 143.214 176.247 145.05 175.511 146.768C174.775 148.485 173.686 150.098 172.151 151.161C171.447 151.649 170.662 152.013 169.974 152.523C169.355 152.981 168.816 153.555 168.133 153.91C167.676 154.118 167.204 154.294 166.721 154.434C166.011 154.68 165.332 155.009 164.7 155.414C164.143 155.736 163.671 156.184 163.323 156.723C163.152 156.995 163.052 157.305 163.032 157.625C163.012 157.945 163.073 158.265 163.21 158.556C163.356 158.795 163.552 159.001 163.784 159.159C164.017 159.317 164.28 159.425 164.557 159.475C165.11 159.57 165.675 159.584 166.232 159.516C168.445 159.354 170.656 159.158 172.867 158.962C173.802 158.902 174.731 158.773 175.647 158.577C176.132 158.46 176.606 158.306 177.089 158.182C177.915 157.97 178.763 157.847 179.616 157.816C179.864 157.795 180.114 157.818 180.354 157.883C180.866 158.05 181.229 158.557 181.758 158.66C182.097 158.692 182.439 158.647 182.758 158.527C184.35 158.093 186.024 158.105 187.672 158.016C188.398 157.977 189.248 157.84 189.582 157.193C189.997 156.386 189.308 155.483 189.034 154.618C188.897 154.065 188.82 153.499 188.806 152.929C188.679 151.522 188.264 150.156 187.587 148.914C187.023 147.884 186.254 146.745 186.65 145.64C186.784 145.265 187.052 144.915 187.025 144.518C186.908 142.772 182.817 143.383 181.799 143.17Z" fill="#2F2E41"/>
<path d="M222.265 112.152C220.114 111.208 218.391 109.503 217.428 107.368C217.226 106.909 217.059 106.43 216.864 105.967C216.227 104.428 215.237 103.059 213.973 101.97C213.657 101.703 213.286 101.448 212.9 101.518C212.529 101.585 212.238 101.95 212.111 102.359C212.002 102.781 211.975 103.219 212.031 103.651C212.139 104.668 212.314 105.677 212.557 106.672L213.145 109.341C213.218 109.751 213.341 110.151 213.511 110.532C213.765 110.981 214.1 111.38 214.499 111.708C215.036 112.201 215.582 112.681 216.137 113.147C216.908 113.884 217.913 114.328 218.978 114.405C221.389 114.85 223.84 115.491 225.875 117.057C225.852 117.04 225.866 115.267 225.831 115.064C225.738 114.527 225.665 113.995 225.314 113.632C224.525 112.816 223.226 112.577 222.265 112.152Z" fill="#FBBEBE"/>
<path opacity="0.1" d="M222.265 112.152C220.114 111.208 218.391 109.503 217.428 107.368C217.226 106.909 217.059 106.43 216.864 105.967C216.227 104.428 215.237 103.059 213.973 101.97C213.657 101.703 213.286 101.448 212.9 101.518C212.529 101.585 212.238 101.95 212.111 102.359C212.002 102.781 211.975 103.219 212.031 103.651C212.139 104.668 212.314 105.677 212.557 106.672L213.145 109.341C213.218 109.751 213.341 110.151 213.511 110.532C213.765 110.981 214.1 111.38 214.499 111.708C215.036 112.201 215.582 112.681 216.137 113.147C216.908 113.884 217.913 114.328 218.978 114.405C221.389 114.85 223.84 115.491 225.875 117.057C225.852 117.04 225.866 115.267 225.831 115.064C225.738 114.527 225.665 113.995 225.314 113.632C224.525 112.816 223.226 112.577 222.265 112.152Z" fill="black"/>
<path d="M246.988 91.723C248.618 91.723 249.94 90.3996 249.94 88.7671C249.94 87.1347 248.618 85.8113 246.988 85.8113C245.357 85.8113 244.035 87.1347 244.035 88.7671C244.035 90.3996 245.357 91.723 246.988 91.723Z" fill="#2F2E41"/>
<path d="M245.16 86.9811C244.359 86.8927 243.469 86.827 242.827 87.3152C242.486 87.6152 242.214 87.9843 242.028 88.3978C241.411 89.5518 240.802 90.7276 240.491 91.9991C240.228 93.0779 240.184 94.206 239.858 95.2675C239.252 97.2365 237.701 98.8985 237.524 100.951C237.445 101.87 237.599 102.945 236.926 103.574C236.76 103.713 236.582 103.839 236.395 103.949C235.929 104.26 235.533 104.665 235.233 105.139C234.981 105.537 234.787 105.995 234.408 106.275C233.808 106.718 232.811 106.673 232.515 107.358C232.211 108.063 232.983 108.847 232.804 109.593C232.658 110.2 231.978 110.479 231.509 110.892C230.909 111.421 230.634 112.219 230.384 112.979C229.396 113.166 228.38 113.137 227.405 112.894C226.429 112.652 225.518 112.203 224.734 111.577C225.558 113.598 225.576 115.828 225.612 118.011C225.624 118.719 225.601 119.514 225.094 120.007C227.444 120.057 229.737 120.691 232.031 121.207C233.033 121.433 234.121 121.629 235.056 121.202C235.581 120.922 236.05 120.55 236.442 120.104C237.69 118.845 238.999 117.47 239.304 115.722C239.475 114.743 239.31 113.738 239.355 112.745C239.411 111.515 239.789 110.325 240.112 109.137C240.774 106.705 241.218 104.218 241.438 101.708C241.574 100.158 242.918 98.9115 243.626 97.5269C244.961 94.913 246.326 92.1906 246.427 89.2563C246.461 88.275 246.135 87.0888 245.16 86.9811Z" fill="#2F2E41"/>
<path opacity="0.1" d="M245.16 86.9811C244.359 86.8927 243.469 86.827 242.827 87.3152C242.486 87.6152 242.214 87.9843 242.028 88.3978C241.411 89.5518 240.802 90.7276 240.491 91.9991C240.228 93.0779 240.184 94.206 239.858 95.2675C239.252 97.2365 237.701 98.8985 237.524 100.951C237.445 101.87 237.599 102.945 236.926 103.574C236.76 103.713 236.582 103.839 236.395 103.949C235.929 104.26 235.533 104.665 235.233 105.139C234.981 105.537 234.787 105.995 234.408 106.275C233.808 106.718 232.811 106.673 232.515 107.358C232.211 108.063 232.983 108.847 232.804 109.593C232.658 110.2 231.978 110.479 231.509 110.892C230.909 111.421 230.634 112.219 230.384 112.979C229.396 113.166 228.38 113.137 227.405 112.894C226.429 112.652 225.518 112.203 224.734 111.577C225.558 113.598 225.576 115.828 225.612 118.011C225.624 118.719 225.601 119.514 225.094 120.007C227.444 120.057 229.737 120.691 232.031 121.207C233.033 121.433 234.121 121.629 235.056 121.202C235.581 120.922 236.05 120.55 236.442 120.104C237.69 118.845 238.999 117.47 239.304 115.722C239.475 114.743 239.31 113.738 239.355 112.745C239.411 111.515 239.789 110.325 240.112 109.137C240.774 106.705 241.218 104.218 241.438 101.708C241.574 100.158 242.918 98.9115 243.626 97.5269C244.961 94.913 246.326 92.1906 246.427 89.2563C246.461 88.275 246.135 87.0888 245.16 86.9811Z" fill="black"/>
<path d="M242.395 134.087C239.867 132.89 238.017 130.657 235.973 128.745C232.07 125.097 227.298 122.514 223.195 119.093C220.475 116.826 218.042 114.186 215.053 112.287C212.421 110.618 209.437 109.577 206.334 109.245C205.979 109.185 205.614 109.203 205.267 109.299C204.875 109.471 204.533 109.74 204.274 110.08C202.95 111.568 201.773 113.179 200.76 114.892C195.559 123.682 188.171 131.073 182.051 139.249C181.855 139.441 181.739 139.699 181.726 139.973C181.712 140.246 181.802 140.514 181.978 140.725L183.223 143.154C183.919 144.513 185.036 146.096 186.537 145.826C187.224 145.703 187.771 145.2 188.276 144.719L193.865 139.399L199.725 133.822C203.159 130.554 206.651 127.211 208.889 123.031C210.638 126.051 213.742 128.028 215.871 130.794C216.681 131.846 217.343 133.002 218.066 134.116C219.225 135.901 220.543 137.576 221.859 139.248L228.581 147.79C229.498 148.955 230.44 150.144 231.693 150.934C233.285 151.937 235.221 152.202 237.095 152.369C239.62 152.594 242.156 152.685 244.691 152.642C246.623 152.609 248.616 152.483 250.35 151.629C252.085 150.774 253.509 149.02 253.419 147.087C253.372 146.082 252.933 145.139 252.45 144.256C250.049 139.87 246.911 136.227 242.395 134.087Z" fill="#2F2E41"/>
<path d="M248.805 93.0872C250.059 93.0872 251.076 92.0692 251.076 90.8135C251.076 89.5578 250.059 88.5398 248.805 88.5398C247.551 88.5398 246.534 89.5578 246.534 90.8135C246.534 92.0692 247.551 93.0872 248.805 93.0872Z" fill="#2F2E41"/>
<path d="M248.303 89.1049C248.856 90.0783 248.857 91.2898 248.552 92.3675C248.248 93.4453 247.666 94.4202 247.09 95.3807C246.524 96.3261 245.951 97.2801 245.192 98.0781C248.697 98.2451 252.095 96.8761 255.189 95.2172C257.678 93.8826 260.161 92.2351 261.49 89.741C260.713 89.9733 259.857 89.744 259.169 89.3139C258.502 88.8505 257.903 88.2954 257.391 87.6651L255.631 85.6939C255.218 85.2646 254.855 84.79 254.549 84.2793C254.168 83.5805 254.006 82.784 254.084 81.9927C253.385 82.7213 252.604 83.3669 251.755 83.9168C250.498 84.7313 249.113 85.3222 247.853 86.132C247.406 86.4192 246.413 86.8811 246.669 87.4623C246.918 88.0291 247.949 88.4821 248.303 89.1049Z" fill="#FBBEBE"/>
<path opacity="0.1" d="M248.303 89.1049C248.856 90.0783 248.857 91.2898 248.552 92.3675C248.248 93.4453 247.666 94.4202 247.09 95.3807C246.524 96.3261 245.951 97.2801 245.192 98.0781C248.697 98.2451 252.095 96.8761 255.189 95.2172C257.678 93.8826 260.161 92.2351 261.49 89.741C260.713 89.9733 259.857 89.744 259.169 89.3139C258.502 88.8505 257.903 88.2954 257.391 87.6651L255.631 85.6939C255.218 85.2646 254.855 84.79 254.549 84.2793C254.168 83.5805 254.006 82.784 254.084 81.9927C253.385 82.7213 252.604 83.3669 251.755 83.9168C250.498 84.7313 249.113 85.3222 247.853 86.132C247.406 86.4192 246.413 86.8811 246.669 87.4623C246.918 88.0291 247.949 88.4821 248.303 89.1049Z" fill="black"/>
<path d="M248.351 89.4492C247.692 90.5523 247.551 91.8547 248.351 92.8598C248.45 92.9848 248.82 93.7611 248.98 93.7683C249.135 93.7556 249.278 93.6833 249.38 93.5668C250.231 92.7919 250.855 91.8037 251.603 90.9284C252.351 90.0531 253.294 89.2554 254.431 89.0791C255.804 88.8663 257.129 89.5903 258.33 90.2888C258.829 90.5791 259.346 90.8866 259.66 91.3712C259.913 91.8263 260.062 92.3312 260.097 92.8502C260.512 95.9617 260.503 99.1123 260.493 102.251C260.486 104.521 260.477 106.806 260.046 109.033C259.824 110.185 259.489 111.315 259.331 112.477C259.214 113.503 259.167 114.535 259.19 115.567L259.186 119.887C259.157 120.68 259.214 121.474 259.354 122.256C259.561 123.202 260.01 124.076 260.311 124.997C260.621 126.056 260.833 127.14 260.945 128.237L261.539 132.711C261.726 134.119 261.864 135.661 261.008 136.795C260.622 137.307 260.113 137.718 259.721 138.226C258.252 140.131 258.724 142.848 258.111 145.175C257.627 146.879 256.634 148.395 255.262 149.523C254.213 150.41 252.857 151.109 251.506 150.859C249.681 150.522 248.586 148.628 248.088 146.839C247.591 145.049 247.41 143.102 246.332 141.59C245.452 140.356 244.089 139.579 242.856 138.698C241.623 137.817 240.419 136.681 240.15 135.188C240.033 134.537 240.106 133.865 240.036 133.207C239.938 132.372 239.617 131.579 239.106 130.911C238.594 130.242 237.912 129.723 237.13 129.407C236.196 129.045 235.043 128.916 234.517 128.063C235.875 127.301 236.776 125.893 237.251 124.409C237.726 122.925 237.823 121.35 237.916 119.795L238.228 114.597C238.367 112.274 238.431 109.971 239.458 107.884C239.917 106.95 240.489 106.077 240.967 105.153C241.6 103.857 242.14 102.518 242.584 101.147C243.329 99.0166 244.074 96.886 244.738 94.7294C245.054 93.7017 245.358 92.6544 245.922 91.7392C246.486 90.824 247.295 89.6468 248.351 89.4492Z" fill="#6C63FF"/>
<path d="M236.757 123.221L238.138 123.27L238.432 121.192C238.471 120.776 238.569 120.368 238.725 119.98C238.952 119.57 239.218 119.182 239.519 118.821C240.879 116.908 240.78 114.369 241.116 112.046C241.566 108.947 242.866 106.046 244.152 103.192L246.834 97.24C247.369 96.2296 247.624 95.096 247.575 93.9549C247.599 93.0348 247.873 89.6871 247.897 88.7671C247.905 88.4266 247.143 88.6158 246.988 88.3123C246.652 87.6516 246.192 89.4435 245.563 89.8367C244.935 90.2298 244.589 90.942 244.322 91.6339C243.744 93.1331 243.391 94.7098 242.852 96.2237C242.314 97.7376 241.56 99.225 240.349 100.279C239.798 100.758 239.164 101.138 238.644 101.65C236.975 103.293 236.813 105.887 236.754 108.229C236.719 109.621 236.449 123.221 236.757 123.221Z" fill="#2F2E41"/>
<path d="M256.646 86.9672C255.304 87.4925 254.569 88.9414 254.191 90.3335C253.814 91.7257 253.661 93.2094 252.94 94.4584C251.255 97.378 246.959 98.2288 245.771 101.384C245.382 102.416 245.399 103.549 245.294 104.647C245.078 106.907 244.332 109.091 244.111 111.352C243.94 113.102 244.088 114.867 244.235 116.62L245.737 134.449C245.953 137.024 245.948 139.791 245.287 142.289C246.807 142.584 248.387 142.189 249.798 141.549C251.208 140.909 252.495 140.03 253.853 139.284C256.187 138.002 258.761 137.094 260.805 135.386C261.175 135.099 261.492 134.75 261.742 134.355C262.151 133.65 262.185 132.797 262.38 132.006C262.556 131.374 262.781 130.757 263.052 130.159C263.801 128.362 264.453 126.528 265.006 124.662C265.385 123.424 265.685 122.163 265.904 120.887C266.068 119.871 266.156 118.844 266.244 117.819C266.353 116.213 266.674 114.629 267.197 113.106C268.503 109.475 269.243 105.667 269.39 101.813C269.434 101.256 269.396 100.696 269.277 100.15C269.099 99.4736 268.698 98.882 268.369 98.2646C267.745 97.0945 267.371 95.8067 266.782 94.6184C265.451 91.9334 263.101 89.8977 260.64 88.1915C259.431 87.3536 258.016 86.4311 256.646 86.9672Z" fill="#2F2E41"/>
<path d="M225.257 116.053C224.218 115.451 223.179 114.802 222.397 113.89C222.023 113.453 221.713 112.962 221.332 112.531C220.406 111.481 219.093 110.83 217.736 110.49C216.378 110.15 214.967 110.098 213.568 110.086C212.632 110.078 211.672 110.092 210.796 110.421C209.92 110.75 209.13 111.461 208.96 112.382C208.756 113.491 209.484 114.572 210.358 115.283C211.171 115.944 212.127 116.406 213.152 116.634C213.987 116.779 214.83 116.878 215.677 116.928C220.648 117.446 225.084 120.141 229.44 122.594C233.266 124.748 237.167 126.763 241.142 128.637C241.3 127.451 241.365 126.256 241.338 125.06C241.318 124.168 241.274 122.807 240.427 122.283C239.44 121.672 237.815 121.532 236.702 121.169C234.141 120.332 231.639 119.325 229.214 118.153C227.869 117.503 226.55 116.803 225.257 116.053Z" fill="#FBBEBE"/>
<path d="M246.988 88.085C251.88 88.085 255.845 84.1149 255.845 79.2175C255.845 74.3202 251.88 70.3501 246.988 70.3501C242.096 70.3501 238.131 74.3202 238.131 79.2175C238.131 84.1149 242.096 88.085 246.988 88.085Z" fill="#FBBEBE"/>
<path d="M259.178 97.0206C258.387 97.9391 257.991 99.122 257.46 100.212C256.366 102.454 254.651 104.379 253.791 106.722C252.885 109.193 252.916 112.133 251.139 114.074C250.83 114.411 250.457 114.737 250.368 115.186C250.315 115.453 250.37 115.738 250.278 115.993C250.023 116.698 248.864 116.734 248.647 117.452C248.584 117.662 248.62 117.895 248.541 118.1C248.363 118.564 247.748 118.635 247.336 118.913C246.476 119.493 246.65 120.844 246.036 121.681C245.551 122.343 244.636 122.565 243.823 122.452C243.01 122.34 242.266 121.953 241.525 121.598C241.271 121.456 240.99 121.368 240.699 121.34C240.356 121.352 240.024 121.465 239.745 121.664C238.109 122.7 237.341 124.752 237.352 126.69C237.364 128.628 238.032 130.495 238.717 132.308C238.811 132.614 238.964 132.898 239.169 133.144C239.711 133.716 240.656 133.623 241.376 133.306C242.097 132.988 242.751 132.488 243.526 132.348C244.897 132.101 246.236 133.039 247.627 132.962C248.645 132.905 249.547 132.315 250.393 131.745C251.744 130.834 253.12 129.901 254.113 128.609C254.721 127.818 255.167 126.916 255.697 126.07C256.379 125.033 257.126 124.039 257.934 123.096L263.041 116.871C264.269 115.541 265.114 113.906 265.488 112.139C265.973 110.48 266.462 108.802 266.546 107.076C266.615 105.654 266.408 104.235 266.175 102.832C265.946 101.45 265.685 100.053 265.075 98.7921C263.966 96.4976 261.264 94.5989 259.178 97.0206Z" fill="#2F2E41"/>
<path d="M262.152 71.1138C268.325 71.1138 273.33 66.131 273.33 59.9845C273.33 53.838 268.325 48.8552 262.152 48.8552C255.978 48.8552 250.974 53.838 250.974 59.9845C250.974 66.131 255.978 71.1138 262.152 71.1138Z" fill="#2F2E41"/>
<path d="M271.793 69.2003C270.347 70.2414 268.67 70.9224 266.905 71.1863C265.14 71.4502 263.337 71.2894 261.647 70.7172C259.956 70.1451 258.429 69.1782 257.191 67.8976C255.953 66.617 255.041 65.0599 254.532 63.3565C254.724 64.883 255.233 66.3532 256.025 67.6741C256.817 68.995 257.876 70.1381 259.135 71.0311C260.393 71.9241 261.823 72.5477 263.336 72.8624C264.849 73.1771 266.41 73.1762 267.923 72.8597C269.435 72.5432 270.865 71.9179 272.122 71.0234C273.379 70.1289 274.437 68.9846 275.227 67.6628C276.018 66.3409 276.525 64.8701 276.716 63.3434C276.907 61.8167 276.778 60.2671 276.337 58.7925C276.587 60.7736 276.297 62.7853 275.498 64.6165C274.699 66.4477 273.419 68.031 271.793 69.2003V69.2003Z" fill="#2F2E41"/>
<path d="M253.023 84.6542C257.55 84.6542 261.22 81.0002 261.22 76.4928C261.22 71.9853 257.55 68.3313 253.023 68.3313C248.496 68.3313 244.826 71.9853 244.826 76.4928C244.826 81.0002 248.496 84.6542 253.023 84.6542Z" fill="#2F2E41"/>
<path d="M246.13 79.0896C250.142 79.0896 253.395 76.5567 253.395 73.4323C253.395 70.3078 250.142 67.7749 246.13 67.7749C242.117 67.7749 238.864 70.3078 238.864 73.4323C238.864 76.5567 242.117 79.0896 246.13 79.0896Z" fill="#2F2E41"/>
<path d="M248.921 83.6156C249.409 83.22 249.322 82.308 248.726 81.5784C248.131 80.8488 247.252 80.578 246.763 80.9735C246.275 81.3691 246.362 82.2811 246.957 83.0107C247.553 83.7403 248.432 84.0111 248.921 83.6156Z" fill="#FBBEBE"/>
<path d="M239.864 154.504C239.864 158.457 237.503 159.838 234.591 159.838C234.524 159.838 234.456 159.837 234.389 159.836C234.254 159.833 234.12 159.826 233.988 159.817C231.36 159.632 229.318 158.181 229.318 154.504C229.318 150.699 234.201 145.897 234.569 145.541L234.57 145.541C234.584 145.527 234.591 145.52 234.591 145.52C234.591 145.52 239.864 150.55 239.864 154.504Z" fill="#6C63FF"/>
<path d="M234.399 159.233L236.328 156.55L234.394 159.528L234.389 159.836C234.254 159.833 234.121 159.826 233.989 159.817L234.196 155.862L234.195 155.831L234.198 155.826L234.218 155.452L232.28 152.467L234.224 155.171L234.229 155.251L234.386 152.262L232.726 149.178L234.406 151.738L234.569 145.541L234.57 145.52V145.541L234.543 150.427L236.195 148.49L234.536 150.848L234.492 153.524L236.035 150.955L234.486 153.917L234.462 155.405L236.7 151.831L234.453 155.924L234.399 159.233Z" fill="#3F3D56"/>
</g>
<defs>
<linearGradient id="paint0_linear" x1="0" y1="15.4604" x2="196.865" y2="221.372" gradientUnits="userSpaceOnUse">
<stop stop-color="#EB0055"/>
<stop offset="1" stop-color="#FFFA80"/>
</linearGradient>
<linearGradient id="paint1_linear" x1="222.343" y1="130.498" x2="222.343" y2="118.793" gradientUnits="userSpaceOnUse">
<stop stop-color="#808080" stop-opacity="0.25"/>
<stop offset="0.53514" stop-color="#808080" stop-opacity="0.12"/>
<stop offset="1" stop-color="#808080" stop-opacity="0.1"/>
</linearGradient>
<clipPath id="clip0">
<rect width="271" height="163" fill="white" transform="translate(77)"/>
</clipPath>
</defs>
</svg>
