<svg width="337" height="218" viewBox="0 0 337 218" fill="none" xmlns="http://www.w3.org/2000/svg">
<rect opacity="0.75" x="144.521" y="0.928711" width="180.219" height="216.313" rx="38" transform="rotate(-0.295233 144.521 0.928711)" fill="url(#paint0_linear)"/>
<g clip-path="url(#clip0)">
<path d="M310.505 201.567C315.436 201.567 319.432 200.904 319.432 200.086C319.432 199.268 315.436 198.604 310.505 198.604C305.575 198.604 301.578 199.268 301.578 200.086C301.578 200.904 305.575 201.567 310.505 201.567Z" fill="#F2F2F2"/>
<path d="M320.92 58.644H320.177V74.1952H320.92V58.644Z" fill="#F2F2F2"/>
<path d="M312.737 48.647H308.273V201.937H312.737V48.647Z" fill="#F2F2F2"/>
<path d="M330.94 60.6805H290.071C289.623 60.6805 289.179 60.5856 288.771 60.4021C288.362 60.2186 287.997 59.9507 287.701 59.6162C287.404 59.2816 287.182 58.8881 287.05 58.4617C286.918 58.0353 286.878 57.5857 286.934 57.1429L292.141 15.6732C292.238 14.9124 292.61 14.2128 293.187 13.7054C293.764 13.1979 294.508 12.9173 295.278 12.9163H325.733C326.503 12.9173 327.247 13.1979 327.824 13.7054C328.402 14.2128 328.773 14.9124 328.87 15.6732L334.078 57.1429C334.133 57.5857 334.093 58.0353 333.961 58.4617C333.829 58.8881 333.607 59.2816 333.311 59.6162C333.014 59.9507 332.649 60.2186 332.24 60.4021C331.832 60.5856 331.389 60.6805 330.94 60.6805V60.6805Z" fill="#F2F2F2"/>
<path d="M320.548 76.787C321.986 76.787 323.152 75.6266 323.152 74.1951C323.152 72.7637 321.986 71.6033 320.548 71.6033C319.11 71.6033 317.945 72.7637 317.945 74.1951C317.945 75.6266 319.11 76.787 320.548 76.787Z" fill="#F2F2F2"/>
<path d="M46.7035 160.787C44.8243 167.277 39.3373 171.819 33.6137 175.678C32.8145 176.217 32.0151 176.744 31.2154 177.258C31.21 177.26 31.2044 177.265 31.1989 177.268C31.1605 177.292 31.1219 177.317 31.0861 177.342C30.921 177.448 30.7559 177.554 30.5922 177.658L30.6822 177.698C30.6822 177.698 30.7704 177.745 30.6738 177.706C30.6451 177.694 30.615 177.683 30.5863 177.671C27.2612 176.336 23.8771 174.903 21.3289 172.402C18.6856 169.805 17.1408 165.732 18.5722 162.321C18.7603 161.874 18.998 161.449 19.2807 161.055C19.3968 160.889 19.5218 160.731 19.652 160.576C20.4416 159.616 21.4735 158.884 22.6418 158.453C23.81 158.023 25.0724 157.91 26.2991 158.126C27.5258 158.342 28.6726 158.879 29.6215 159.682C30.5704 160.486 31.2872 161.527 31.6982 162.697C32.1187 158.8 28.8904 155.535 25.7835 153.126C22.6753 150.719 19.1436 148.097 18.5427 144.221C18.2071 142.065 18.9604 139.975 20.3326 138.298C20.3751 138.247 20.4175 138.196 20.4613 138.146C22.1317 136.192 24.4811 134.938 27.0402 134.633C31.8062 134.14 36.4357 136.651 39.8981 139.95C45.4708 145.257 48.8398 153.409 46.7035 160.787Z" fill="#F2F2F2"/>
<path d="M37.7451 152.299C38.6598 153.716 39.362 155.257 39.8297 156.876C40.2252 158.322 40.4012 159.819 40.352 161.318C40.2244 164.401 39.3549 167.408 37.8166 170.087C36.6578 172.12 35.2456 173.998 33.6136 175.678C32.8145 176.217 32.0151 176.743 31.2154 177.258C31.21 177.26 31.2044 177.265 31.1989 177.267C31.1604 177.292 31.1219 177.317 31.086 177.341C30.921 177.447 30.7559 177.553 30.5922 177.658C30.5922 177.658 30.7704 177.745 30.6738 177.706C30.6451 177.694 30.6149 177.683 30.5862 177.671C30.8843 175.239 30.5923 172.771 29.7349 170.474C28.8774 168.178 27.4795 166.119 25.6581 164.471C23.8324 162.848 21.6472 161.677 19.2806 161.054C19.3967 160.889 19.5218 160.731 19.652 160.575C20.566 160.831 21.4555 161.166 22.3102 161.577C25.3656 163.037 27.8673 165.438 29.4451 168.424C30.861 171.136 31.4704 174.193 31.2017 177.237C31.3384 177.114 31.4751 176.988 31.6078 176.863C34.1345 174.518 36.3787 171.827 37.8975 168.72C39.2152 166.09 39.8628 163.177 39.7833 160.239C39.6593 157.035 38.3769 154.067 36.5201 151.483C34.485 148.727 32.0809 146.26 29.3745 144.153C26.6471 141.978 23.6626 140.144 20.4876 138.691C20.416 138.658 20.3599 138.598 20.3311 138.525C20.3023 138.452 20.3028 138.37 20.3326 138.297C20.3538 138.232 20.4 138.178 20.4613 138.146C20.4928 138.132 20.5269 138.126 20.5612 138.128C20.5955 138.129 20.629 138.138 20.6593 138.154C21.0513 138.334 21.4406 138.516 21.8268 138.706C25.0432 140.289 28.0496 142.263 30.7771 144.583C33.4116 146.819 35.8918 149.374 37.7451 152.299Z" fill="white"/>
<path d="M19.5745 177.129H40.1676C40.3935 177.129 40.6168 177.177 40.8228 177.269C41.0287 177.362 41.2125 177.497 41.362 177.665C41.5115 177.834 41.6232 178.032 41.6899 178.247C41.7565 178.462 41.7764 178.689 41.7484 178.912L39.1245 199.807C39.0758 200.191 38.8885 200.543 38.5975 200.799C38.3065 201.055 37.9319 201.196 37.5437 201.196H22.1984C21.8103 201.196 21.4357 201.055 21.1447 200.799C20.8537 200.543 20.6663 200.191 20.6177 199.807L17.9938 178.912C17.9657 178.689 17.9857 178.462 18.0523 178.247C18.119 178.032 18.2307 177.834 18.3802 177.665C18.5297 177.497 18.7135 177.362 18.9194 177.269C19.1253 177.177 19.3486 177.129 19.5745 177.129V177.129Z" fill="#F2F2F2"/>
<path d="M86.7182 201.357C88.1416 201.357 89.2954 200.208 89.2954 198.792C89.2954 197.375 88.1416 196.226 86.7182 196.226C85.2948 196.226 84.141 197.375 84.141 198.792C84.141 200.208 85.2948 201.357 86.7182 201.357Z" fill="#CCCCCC"/>
<path d="M249.512 201.357C250.935 201.357 252.089 200.208 252.089 198.792C252.089 197.375 250.935 196.226 249.512 196.226C248.089 196.226 246.935 197.375 246.935 198.792C246.935 200.208 248.089 201.357 249.512 201.357Z" fill="#CCCCCC"/>
<path d="M133.967 163.089H93.5908C91.7117 163.087 89.9103 162.343 88.5816 161.02C87.2529 159.697 86.5055 157.904 86.5034 156.034V128.669C86.5055 126.798 87.2529 125.005 88.5816 123.682C89.9103 122.36 91.7117 121.616 93.5908 121.614H133.967C135.846 121.616 137.648 122.36 138.976 123.682C140.305 125.005 141.052 126.798 141.054 128.669V156.034C141.052 157.904 140.305 159.697 138.976 161.02C137.648 162.343 135.846 163.087 133.967 163.089V163.089Z" fill="#E6E6E6"/>
<path d="M188.303 163.303H147.927C146.048 163.301 144.247 162.557 142.918 161.234C141.589 159.911 140.842 158.118 140.84 156.248V128.883C140.842 127.012 141.589 125.219 142.918 123.896C144.247 122.574 146.048 121.83 147.927 121.828H188.303C190.182 121.83 191.984 122.574 193.313 123.896C194.641 125.219 195.389 127.012 195.391 128.883V156.248C195.389 158.118 194.641 159.911 193.313 161.234C191.984 162.557 190.182 163.301 188.303 163.303V163.303Z" fill="#E6E6E6"/>
<path d="M242.64 163.516H202.263C200.384 163.514 198.583 162.77 197.254 161.448C195.926 160.125 195.178 158.332 195.176 156.461V129.096C195.178 127.226 195.926 125.433 197.254 124.11C198.583 122.787 200.384 122.043 202.263 122.041H242.64C244.519 122.043 246.32 122.787 247.649 124.11C248.978 125.433 249.725 127.226 249.727 129.096V156.461C249.725 158.332 248.978 160.125 247.649 161.448C246.32 162.77 244.519 163.514 242.64 163.516V163.516Z" fill="#E6E6E6"/>
<path d="M258.103 161.592H80.2751V198.577H258.103V161.592Z" fill="#E6E6E6"/>
<path d="M86.7182 198.791H78.9865C75.0785 198.791 71.8992 195.198 71.8992 190.781V152.186H86.7182V198.791Z" fill="#E6E6E6"/>
<path d="M257.244 198.792H249.512V146.199H264.331V189.752C264.331 194.737 261.152 198.792 257.244 198.792Z" fill="#E6E6E6"/>
<path d="M141.269 169.289H86.7181V157.744C104.902 147.361 123.086 147.361 141.269 157.744V169.289Z" fill="#CCCCCC"/>
<path d="M195.606 169.502H141.055V157.958C159.238 147.575 177.422 147.575 195.606 157.958V169.502Z" fill="#CCCCCC"/>
<path d="M249.942 169.716H195.391V158.172C213.574 147.789 231.758 147.789 249.942 158.172V169.716Z" fill="#CCCCCC"/>
<path d="M76.1946 162.02C83.1928 162.02 88.8659 156.373 88.8659 149.406C88.8659 142.44 83.1928 136.793 76.1946 136.793C69.1964 136.793 63.5233 142.44 63.5233 149.406C63.5233 156.373 69.1964 162.02 76.1946 162.02Z" fill="#CCCCCC"/>
<path d="M261.754 161.592C268.752 161.592 274.425 155.945 274.425 148.979C274.425 142.013 268.752 136.365 261.754 136.365C254.756 136.365 249.083 142.013 249.083 148.979C249.083 155.945 254.756 161.592 261.754 161.592Z" fill="#CCCCCC"/>
<path d="M224.428 124.268C224.457 124.471 224.471 124.675 224.468 124.88L239.656 135.301L243.707 133.392L247.4 139.101L240.559 143.173C240.006 143.502 239.361 143.644 238.721 143.577C238.081 143.51 237.479 143.238 237.007 142.802L221.625 128.591C220.862 128.805 220.051 128.782 219.301 128.526C218.551 128.27 217.897 127.793 217.426 127.158C216.955 126.523 216.69 125.76 216.665 124.971C216.64 124.183 216.857 123.405 217.287 122.742C217.717 122.079 218.339 121.561 219.072 121.259C219.804 120.957 220.612 120.884 221.387 121.049C222.162 121.215 222.868 121.612 223.412 122.187C223.955 122.762 224.309 123.487 224.428 124.268V124.268Z" fill="#FFB8B8"/>
<path d="M239.949 134.404C240.016 134.174 240.132 133.961 240.289 133.78C240.446 133.598 240.64 133.453 240.859 133.353L248.496 129.87C249.528 129.201 250.783 128.967 251.988 129.219C253.192 129.471 254.247 130.188 254.921 131.212C255.596 132.237 255.834 133.486 255.585 134.686C255.335 135.885 254.618 136.937 253.591 137.611L247.277 143.169C247.097 143.328 246.884 143.446 246.654 143.515C246.424 143.585 246.181 143.604 245.943 143.572C245.705 143.54 245.476 143.457 245.273 143.329C245.07 143.2 244.896 143.03 244.765 142.83L240.154 135.777C240.022 135.576 239.936 135.349 239.901 135.113C239.865 134.876 239.882 134.634 239.949 134.404Z" fill="#6C63FF"/>
<path d="M224.236 124.947L224.16 124.953L223.952 122.085C223.885 121.168 223.289 120.464 222.621 120.512L218.193 120.831C217.524 120.879 216.295 121.715 216.361 122.631L216.415 123.37L217.505 138.364C217.572 139.281 218.909 139.932 219.577 139.883L224.006 139.564C224.674 139.516 225.162 138.734 225.095 137.818L224.309 126.994L224.385 126.988L224.236 124.947Z" fill="#3F3D56"/>
<path d="M223.695 122.115L224.837 137.824C224.887 138.509 224.522 139.093 224.023 139.129L219.573 139.45C219.074 139.485 218.63 138.96 218.58 138.275L217.438 122.565C217.388 121.881 217.752 121.297 218.251 121.261L218.791 121.222C218.754 121.362 218.762 121.51 218.814 121.645C218.867 121.779 218.961 121.894 219.083 121.973C219.134 121.997 219.191 122.008 219.248 122.005L221.785 121.822C222.022 121.804 222.195 121.527 222.171 121.201C222.166 121.126 222.15 121.052 222.123 120.982L222.701 120.94C223.2 120.904 223.645 121.43 223.695 122.115Z" fill="white"/>
<path d="M161.268 158.39L159.8 154.092L175.755 146.411L177.921 152.755L161.268 158.39Z" fill="#FFB8B8"/>
<path d="M157.457 160.902L152.724 147.044L152.9 146.985C153.612 146.744 154.364 146.645 155.114 146.694C155.864 146.742 156.597 146.937 157.272 147.268C157.946 147.599 158.548 148.058 159.044 148.62C159.54 149.183 159.919 149.837 160.161 150.545L160.161 150.545L163.052 159.009L157.457 160.902Z" fill="#2F2E41"/>
<path d="M224.591 161.457C221.169 161.649 217.757 160.938 214.7 159.396L195.939 146.691L174.032 154.766C173.45 154.963 172.815 154.933 172.255 154.682C171.695 154.431 171.252 153.978 171.014 153.414L169.94 150.843C169.696 150.265 169.689 149.614 169.921 149.031C170.153 148.447 170.606 147.978 171.183 147.724L192.112 138.368C194.624 137.249 197.443 137.006 200.112 137.679L229.166 145.049L236.846 154.128L236.761 154.245C232.991 159.423 228.519 161.174 224.591 161.457Z" fill="#2F2E41"/>
<path d="M248.32 123.52C253.366 123.52 257.456 119.448 257.456 114.425C257.456 109.403 253.366 105.331 248.32 105.331C243.275 105.331 239.184 109.403 239.184 114.425C239.184 119.448 243.275 123.52 248.32 123.52Z" fill="#FFB8B8"/>
<path d="M238.942 158.176L224.239 147.284L234.266 140.189C233.979 139.271 232.707 134.017 239.666 130.436C241.868 129.303 243.455 128.327 244.382 127.537C245.698 126.407 247.383 125.795 249.12 125.816C250.216 125.834 251.292 126.104 252.263 126.607C253.235 127.11 254.076 127.831 254.72 128.713C255.363 129.596 255.791 130.615 255.971 131.69C256.15 132.766 256.076 133.868 255.753 134.91C254.302 139.605 251.991 145.826 249.219 148.802C246.085 152.163 242.685 155.27 239.053 158.093L238.942 158.176Z" fill="#6C63FF"/>
<path d="M163.599 162.198L162.131 157.9L178.086 150.22L180.253 156.563L163.599 162.198Z" fill="#FFB8B8"/>
<path d="M159.788 164.711L155.056 150.853L155.232 150.793C155.944 150.552 156.696 150.453 157.446 150.502C158.196 150.551 158.929 150.746 159.603 151.076C160.277 151.407 160.879 151.866 161.375 152.429C161.871 152.991 162.251 153.645 162.493 154.353L162.493 154.354L165.383 162.818L159.788 164.711Z" fill="#2F2E41"/>
<path d="M226.923 165.266C223.501 165.457 220.089 164.746 217.031 163.204L198.27 150.499L176.363 158.574C175.782 158.771 175.147 158.741 174.587 158.49C174.027 158.239 173.583 157.786 173.346 157.222L172.272 154.651C172.027 154.073 172.02 153.422 172.252 152.839C172.485 152.256 172.938 151.786 173.514 151.532L194.443 142.176C196.956 141.057 199.774 140.814 202.443 141.487L231.498 148.858L239.178 157.936L239.092 158.054C235.322 163.231 230.85 164.983 226.923 165.266Z" fill="#2F2E41"/>
<path d="M222.706 135.177C222.819 135.347 222.92 135.527 223.005 135.713L241.213 138.657L244.053 135.206L249.845 138.791L245.415 145.387C245.057 145.92 244.535 146.323 243.928 146.535C243.32 146.748 242.66 146.758 242.046 146.565L222.032 140.278C221.434 140.796 220.692 141.122 219.904 141.21C219.116 141.298 218.32 141.146 217.621 140.773C216.922 140.4 216.354 139.824 215.993 139.121C215.631 138.419 215.492 137.624 215.596 136.841C215.699 136.059 216.039 135.326 216.571 134.741C217.103 134.155 217.801 133.745 218.573 133.564C219.345 133.383 220.154 133.441 220.892 133.729C221.63 134.017 222.263 134.522 222.706 135.177V135.177Z" fill="#FFB8B8"/>
<path d="M241.092 137.722C241.053 137.486 241.066 137.244 241.13 137.013C241.194 136.782 241.307 136.568 241.462 136.385L246.866 129.982C247.51 128.938 248.544 128.192 249.741 127.906C250.938 127.62 252.199 127.818 253.249 128.457C254.3 129.095 255.052 130.122 255.343 131.313C255.633 132.503 255.438 133.76 254.799 134.807L251.484 142.52C251.389 142.74 251.248 142.937 251.07 143.098C250.892 143.259 250.681 143.38 250.452 143.453C250.222 143.525 249.98 143.547 249.741 143.518C249.503 143.489 249.273 143.409 249.068 143.284L241.867 138.875C241.662 138.75 241.487 138.582 241.353 138.383C241.219 138.184 241.13 137.959 241.092 137.722V137.722Z" fill="#6C63FF"/>
<path d="M245.878 124.441C248.532 121.041 250.004 116.874 250.072 112.569C248.822 113.493 247.408 114.173 245.904 114.573C244.307 114.996 242.552 115.081 241.049 114.399C238.933 113.44 237.682 110.993 237.922 108.691C238.162 106.389 239.76 104.332 241.841 103.3C243.971 102.308 246.401 102.162 248.636 102.89C249.818 101.888 251.266 101.246 252.805 101.042C254.344 100.837 255.91 101.079 257.315 101.737C260.549 103.317 262.337 106.976 262.648 110.548C262.958 114.121 262.036 117.673 261.122 121.141L261.018 121.533C260.734 122.613 259.906 124.685 259.906 124.685C259.906 124.685 255.102 123.741 253.194 123.136C250.427 124.131 245.878 124.441 245.878 124.441Z" fill="#2F2E41"/>
<path d="M222.977 125.313L219.062 125.595C218.964 125.602 218.867 125.57 218.792 125.505C218.718 125.441 218.672 125.35 218.665 125.252C218.657 125.154 218.69 125.057 218.754 124.983C218.819 124.909 218.91 124.863 219.009 124.856L222.923 124.574C222.972 124.57 223.021 124.576 223.067 124.592C223.114 124.607 223.157 124.631 223.194 124.663C223.231 124.695 223.261 124.734 223.283 124.777C223.305 124.821 223.318 124.868 223.322 124.917C223.325 124.965 223.319 125.014 223.304 125.06C223.288 125.106 223.264 125.149 223.232 125.186C223.2 125.223 223.161 125.253 223.117 125.274C223.073 125.296 223.026 125.309 222.977 125.313Z" fill="#3F3D56"/>
<path d="M223.111 127.159L219.197 127.441C219.148 127.445 219.099 127.439 219.052 127.423C219.006 127.408 218.963 127.384 218.926 127.352C218.889 127.32 218.859 127.281 218.837 127.238C218.815 127.194 218.802 127.147 218.798 127.098C218.795 127.05 218.801 127.001 218.816 126.955C218.832 126.909 218.856 126.866 218.888 126.829C218.92 126.792 218.959 126.762 219.003 126.74C219.047 126.719 219.094 126.706 219.143 126.702L223.057 126.42C223.156 126.413 223.253 126.445 223.328 126.51C223.402 126.574 223.448 126.665 223.455 126.763C223.462 126.861 223.43 126.958 223.366 127.032C223.301 127.106 223.21 127.152 223.111 127.159V127.159Z" fill="#3F3D56"/>
<path d="M223.245 129.005L219.331 129.287C219.232 129.294 219.135 129.262 219.061 129.198C218.987 129.134 218.941 129.043 218.934 128.945C218.927 128.847 218.959 128.75 219.023 128.676C219.087 128.602 219.179 128.556 219.277 128.549L223.191 128.267C223.29 128.26 223.387 128.292 223.462 128.356C223.536 128.42 223.582 128.511 223.589 128.609C223.596 128.707 223.564 128.804 223.5 128.878C223.435 128.953 223.344 128.998 223.245 129.005V129.005Z" fill="#3F3D56"/>
<path d="M336.625 201.937H0.371961C0.273311 201.937 0.178701 201.898 0.108945 201.828C0.0391884 201.759 0 201.665 0 201.567C0 201.468 0.0391884 201.374 0.108945 201.305C0.178701 201.235 0.273311 201.196 0.371961 201.196H336.625C336.723 201.196 336.818 201.235 336.888 201.305C336.957 201.374 336.997 201.468 336.997 201.567C336.997 201.665 336.957 201.759 336.888 201.828C336.818 201.898 336.723 201.937 336.625 201.937Z" fill="#3F3D56"/>
<path d="M178.831 78.6384H141.263C140.376 78.6374 139.525 78.2859 138.897 77.6612C138.27 77.0365 137.917 76.1895 137.916 75.306V43.0929C137.917 42.2094 138.27 41.3624 138.897 40.7376C139.525 40.1129 140.376 39.7615 141.263 39.7605H178.831C179.719 39.7615 180.57 40.1129 181.197 40.7377C181.825 41.3624 182.178 42.2094 182.179 43.0929V75.306C182.178 76.1895 181.825 77.0365 181.197 77.6612C180.57 78.2859 179.719 78.6374 178.831 78.6384V78.6384ZM141.263 40.501C140.573 40.5018 139.911 40.7751 139.423 41.261C138.935 41.7469 138.66 42.4057 138.659 43.0929V75.306C138.66 75.9931 138.935 76.6519 139.423 77.1378C139.911 77.6237 140.573 77.8971 141.263 77.8978H178.831C179.522 77.8971 180.183 77.6237 180.672 77.1378C181.16 76.6519 181.434 75.9931 181.435 75.306V43.0929C181.434 42.4057 181.16 41.7469 180.672 41.261C180.183 40.7751 179.522 40.5018 178.831 40.501H141.263Z" fill="#F2F2F2"/>
<path d="M173.339 73.6397H146.756C145.918 73.6388 145.114 73.3069 144.521 72.7169C143.929 72.1269 143.595 71.3269 143.594 70.4925V47.9063C143.595 47.0719 143.929 46.2719 144.521 45.6819C145.114 45.0919 145.918 44.76 146.756 44.759H173.339C174.177 44.76 174.98 45.0919 175.573 45.6819C176.166 46.2719 176.499 47.0719 176.5 47.9063V70.4925C176.499 71.3269 176.166 72.1269 175.573 72.7169C174.98 73.3069 174.177 73.6388 173.339 73.6397V73.6397Z" fill="#E6E6E6"/>
<path d="M160.233 34.947C161.26 34.947 162.093 34.1182 162.093 33.0957C162.093 32.0733 161.26 31.2444 160.233 31.2444C159.206 31.2444 158.374 32.0733 158.374 33.0957C158.374 34.1182 159.206 34.947 160.233 34.947Z" fill="#F2F2F2"/>
<path d="M164.143 40.321L160.234 33.8181L156.347 40.3199L155.708 39.9415L160.232 32.3733L164.782 39.9404L164.143 40.321Z" fill="#F2F2F2"/>
<path d="M164.511 56.6076C164.51 56.0472 164.448 55.4886 164.326 54.9414H158.745C158.351 54.9414 157.972 55.0975 157.693 55.3752C157.414 55.653 157.257 56.0297 157.257 56.4225V64.3551C159.227 64.216 161.069 63.3394 162.415 61.9019C163.761 60.4644 164.51 58.5726 164.511 56.6076V56.6076Z" fill="#6C63FF"/>
<path d="M156.699 64.7534C155.156 64.7539 153.644 64.3199 152.338 63.5016C151.031 62.6832 149.984 61.5137 149.317 60.1283C148.65 58.7428 148.39 57.1978 148.568 55.6715C148.745 54.1453 149.352 52.7001 150.32 51.5028C151.287 50.3055 152.574 49.4049 154.034 48.905C155.493 48.4051 157.065 48.3262 158.567 48.6774C160.07 49.0287 161.442 49.7958 162.525 50.8902C163.609 51.9846 164.359 53.3616 164.69 54.8623L164.788 55.3116H158.745C158.449 55.3119 158.166 55.4291 157.957 55.6373C157.747 55.8455 157.63 56.1279 157.629 56.4224V64.7L157.219 64.729C157.047 64.7414 156.875 64.7534 156.699 64.7534ZM156.699 49.2022C154.726 49.2022 152.834 49.9824 151.439 51.3712C150.044 52.7599 149.26 54.6435 149.26 56.6075C149.26 58.5715 150.044 60.4551 151.439 61.8439C152.834 63.2326 154.726 64.0128 156.699 64.0128C156.762 64.0128 156.824 64.011 156.885 64.0081V56.4224C156.886 55.9316 157.082 55.461 157.431 55.1139C157.779 54.7669 158.252 54.5716 158.745 54.5711H163.849C163.399 53.0282 162.459 51.6718 161.17 50.7042C159.882 49.7366 158.314 49.2097 156.699 49.2022Z" fill="white"/>
<path d="M167.672 67.1603H158.745C158.252 67.1597 157.78 66.9645 157.431 66.6174C157.082 66.2704 156.886 65.7998 156.885 65.309V64.0103L157.231 63.9859C158.296 63.9128 159.333 63.6117 160.27 63.1033C161.207 62.5948 162.023 61.8911 162.662 61.04C163.301 60.1889 163.748 59.2105 163.973 58.1717C164.197 57.1329 164.194 56.0581 163.963 55.0207L163.864 54.5713H167.672C168.165 54.5719 168.638 54.7671 168.987 55.1142C169.336 55.4612 169.532 55.9318 169.532 56.4226V65.309C169.532 65.7998 169.336 66.2704 168.987 66.6174C168.638 66.9645 168.165 67.1597 167.672 67.1603V67.1603ZM157.629 64.6928V65.309C157.63 65.6035 157.747 65.8858 157.957 66.0941C158.166 66.3023 158.449 66.4195 158.745 66.4198H167.672C167.968 66.4195 168.252 66.3023 168.461 66.0941C168.67 65.8858 168.788 65.6035 168.788 65.309V56.4226C168.788 56.1281 168.67 55.8458 168.461 55.6375C168.252 55.4293 167.968 55.3121 167.672 55.3118H164.776C164.846 55.7402 164.882 56.1736 164.883 56.6077C164.876 58.6051 164.134 60.5308 162.797 62.0206C161.461 63.5104 159.622 64.461 157.629 64.6928Z" fill="white"/>
</g>
<defs>
<linearGradient id="paint0_linear" x1="144.521" y1="0.928711" x2="373.777" y2="87.7368" gradientUnits="userSpaceOnUse">
<stop stop-color="#EB0055"/>
<stop offset="1" stop-color="#FFFA80"/>
</linearGradient>
<clipPath id="clip0">
<rect width="336.997" height="189.021" fill="white" transform="translate(0 12.9163)"/>
</clipPath>
</defs>
</svg>
