<svg width="368" height="471" viewBox="0 0 368 471" fill="none" xmlns="http://www.w3.org/2000/svg">
<rect y="45" width="368" height="409" rx="26" fill="#FCFCFC"/>
<rect x="11" y="66" width="347" height="367" rx="26" fill="url(#paint0_linear)"/>
<path fill-rule="evenodd" clip-rule="evenodd" d="M195.47 86.9381C200.652 81.6415 204.373 74.969 204.364 67.2039C204.338 44.8306 173.006 47.5901 166.201 58.4118C159.397 69.2335 158.146 97.7883 165.799 100.334C168.852 101.35 175.607 99.8446 182.624 96.2485L176.331 125.875L201.301 127.598L195.47 86.9381Z" fill="#915B3C"/>
<path fill-rule="evenodd" clip-rule="evenodd" d="M181.327 46.4419C184.655 46.1293 193.542 46.3697 195.176 46.4827C196.22 46.5548 197.336 46.8714 198.02 45.9552C198.581 45.205 198.487 43.8641 198.701 42.9634C198.95 41.9169 199.271 40.8893 199.595 39.8644C200.517 36.9482 201.797 34.2015 203.498 31.6572C206.69 26.8838 211.133 23.2787 216.558 21.377C222.549 19.2772 229.173 19.1587 235.396 20.0979C242.056 21.1029 247.967 23.7322 254.147 26.2492C260.036 28.6477 266.294 29.8636 272.663 29.3303C279.081 28.793 284.116 25.6824 289.698 22.7853C295.412 19.8195 301.829 18.0646 308.276 19.0147C314.295 19.9017 319.699 22.7849 324.472 26.4677C328.938 29.9134 332.542 33.9369 334.358 39.375C336.311 45.2248 335.878 51.468 331.673 56.2286C325.579 63.1291 315.068 64.297 306.444 63.5138C301.456 63.061 296.612 61.8106 292.01 59.8263C285.873 57.1799 280.696 53.055 275.022 49.6066C272.359 47.9884 269.585 46.6188 266.652 45.5678C263.805 44.5475 260.971 43.9741 258.221 45.5466C255.312 47.2102 252.695 48.8609 249.433 49.8029C246.304 50.7067 243.029 51.1069 239.779 50.8574C233.456 50.372 227.355 47.9705 221.302 46.2262C216.365 44.8039 211.078 43.3611 205.899 44.0434C203.737 44.3282 200.562 45.005 199.639 47.1671C212.435 50.4097 216.419 66.7861 211.954 78.2982C209.544 84.5117 197.18 91.1164 192.803 87.4604C190.029 85.1442 191.993 82.4903 193.267 80.7367C195.706 77.3785 196.768 72.9219 192.872 70.1979C189.512 67.8485 185.48 72.5989 185.411 72.5886C184.452 72.4461 176.451 67.1628 171.189 59.8956C165.506 59.8405 164.905 56.0498 166.467 53.0913C168.029 50.1329 176.728 46.8743 181.327 46.4419Z" fill="#191847"/>
<path fill-rule="evenodd" clip-rule="evenodd" d="M197.349 213.197L166.211 346.686L153.532 446.341L135.523 447.301L141.226 216.19L197.349 213.197Z" fill="#784931"/>
<path fill-rule="evenodd" clip-rule="evenodd" d="M214.493 212.282C215.473 280.714 218.509 317.905 219.436 324.078C220.362 330.251 225.96 371.624 252.886 443.131L234.155 444.13C199.912 375.98 187.041 334.995 183.052 326.019C179.063 317.043 166.737 280.347 148.159 215.82L214.493 212.282Z" fill="#915B3C"/>
<path fill-rule="evenodd" clip-rule="evenodd" d="M198.168 213.153C190.657 258.916 177.345 332.036 158.233 432.513L131.892 433.918C124.518 332.227 129.221 264.788 141.003 216.202L198.168 213.153Z" fill="#69A1AC"/>
<path fill-rule="evenodd" clip-rule="evenodd" d="M214.626 212.275C215.661 280.704 226.005 347.623 251.311 428.615L223.207 430.114C188.964 363.008 163.477 297.231 144.126 216.035L214.626 212.275Z" fill="#C5CFD6"/>
<path fill-rule="evenodd" clip-rule="evenodd" d="M256.278 456.527L254.356 439.919C248.399 442.012 240.783 441.722 231.507 439.049C222.085 446.508 210.01 451.902 195.283 455.231C194.159 455.485 193.454 456.601 193.708 457.725C193.725 457.798 193.745 457.87 193.769 457.94L195.467 462.903L232.674 460.919L254.378 459.761L256.278 456.527Z" fill="#191847"/>
<path fill-rule="evenodd" clip-rule="evenodd" d="M158.385 461.748L156.463 445.14C150.506 447.233 142.89 446.942 133.614 444.27C124.192 451.729 112.117 457.122 97.3899 460.451C96.2663 460.705 95.5613 461.822 95.8153 462.946C95.8318 463.018 95.8521 463.09 95.8762 463.161L97.5738 468.124L134.781 466.14L156.485 464.982L158.385 461.748Z" fill="#191847"/>
<path fill-rule="evenodd" clip-rule="evenodd" d="M110.086 194.142L74.1094 214.367C64.8585 215.692 57.0095 217.787 50.562 220.652C48.985 221.772 46.9502 224.183 52.8922 224.447C58.8342 224.712 65.0724 225.258 65.64 227.365C66.2077 229.471 62.3527 231.439 63.6645 234.348C64.539 236.287 70.2624 232.389 80.8345 222.652L115.188 213.076L110.086 194.142ZM236.774 210.428L215.129 207.877C223.233 252.626 227.656 276.385 228.399 279.153C230.071 285.381 223.901 293.805 221.141 298.4C227.816 302.419 228.49 290.627 236.891 295.856C244.56 300.629 249.909 308.235 260.007 303.584C261.249 303.013 262.841 300.484 260.039 298.015C253.059 291.864 243.196 281.386 242.079 278.196C240.557 273.846 238.788 251.257 236.774 210.428Z" fill="#915B3C"/>
<path fill-rule="evenodd" clip-rule="evenodd" d="M186.355 112.159L177.59 109.532C140.88 134.177 120.522 187.636 76.2516 211.875L84.5706 225.215C156.264 225.076 181.962 159.975 186.355 112.159Z" fill="#1F28CF"/>
<path fill-rule="evenodd" clip-rule="evenodd" d="M211.671 229.411C175.777 225.037 149.374 221.82 132.463 219.759C128.844 219.318 130.162 214.175 131.007 211.602C140.754 181.901 168.323 151.964 173.603 108.639L196.886 107.84C212.081 140.536 214.056 178.752 211.671 229.411Z" fill="#DDE3E9"/>
<path fill-rule="evenodd" clip-rule="evenodd" d="M221.774 141.191C225.209 140.641 228.108 138.737 230.471 135.478C240.657 121.427 238.652 112.764 230.06 108.949C221.468 105.135 212.825 109.782 198.607 108.05C197.833 107.955 197.119 107.917 196.464 107.936L189.262 107.473C160.267 174.52 148.953 220.232 155.321 244.607L217.664 252.204C220.308 261.267 222.96 268.944 225.619 275.236L242.606 277.306C250.503 225.808 243.559 180.437 221.774 141.191Z" fill="#2B44FF"/>
<path fill-rule="evenodd" clip-rule="evenodd" d="M208.441 214.832C204.481 230.997 199.844 242.515 194.528 249.385L217.664 252.204C214.579 241.632 211.505 229.175 208.441 214.832L208.441 214.832Z" fill="black" fill-opacity="0.1"/>
<defs>
<linearGradient id="paint0_linear" x1="11" y1="66" x2="437.036" y2="249.076" gradientUnits="userSpaceOnUse">
<stop stop-color="#7433FF"/>
<stop offset="1" stop-color="#FFA3FD"/>
</linearGradient>
</defs>
</svg>
